<svg height="3900" viewBox="0 0 6300 3900" width="6300" xmlns="http://www.w3.org/2000/svg" xmlns:xlink="http://www.w3.org/1999/xlink"><linearGradient id="a"><stop offset="0" stop-color="#f9ebca"/><stop offset=".49" stop-color="#f7e3b2"/><stop offset="1" stop-color="#dac69a"/></linearGradient><radialGradient id="b" cx="3999.99" cy="-30.36" gradientTransform="matrix(-1.06 -1.06 1.06 -1.06 4274.83 4210.43)" gradientUnits="userSpaceOnUse" r="50.71" xlink:href="#a"/><radialGradient id="c" cx="1030.65" cy="-30.36" gradientTransform="matrix(1.06 1.06 1.06 -1.06 -1060.97 -1125.37)" gradientUnits="userSpaceOnUse" r="50.71" xlink:href="#a"/><path d="m-512-512h1024v1024h-1024z" fill="#fff" transform="matrix(6.85 0 0 4.29 3116.39 2024.05)"/><path d="m-512-512h1024v1024h-1024z" fill="#c12a41" transform="matrix(7.3 0 0 1 3117.73 3433.94)"/><path d="m-512-512h1024v1024h-1024z" fill="#173881" transform="matrix(7.3 0 0 1 3117.89 438.69)"/><path d="m410.9 122.3c-11.7 0-26.9 2.7-31.7 5-4.9 2.2-15 10.1-15 13.6l27.3 32.8c70.6 14.8 23.3 16.6 24.6 24.2 7.6.3 18 4.7 24.8 10 3.2 2.8 4.7 13.9 1.8 25.2-.8 3.2-2.7 4.8-5.7 4.8-6 0-14.5-6.6-14.6-6.6-.1-.1-.3 3.1 4.5 9.1 2 2.4 5.3 3.7 9.8 3.7 2.6 0 5.1-.4 7.5-1 0 .1-3 13.4-7.5 19-.8 1.2-2.2 1.9-3.7 1.9-4.2 0-9-5.2-9.1-5.3-.1 0-1.1 1.6 0 6.5.6 2.7 3.4 3.3 5.6 3.3 1.4 0 2.8-.2 4.2-.6 0 .1-.5 2-3.8 4.9-2.3 2.1-7.2 2.4-12.2 2.4-1.3 0-2.6 0-4 0s-2.8-.1-4-.1c-7.8 0-8.3-13.1-8.3-13.3-.1.1-6 5.4-1.6 12.6 4.2 6.7 10.2 7.3 10.9 7.3h.1l-1.1 1.4c-.5.7-2.4 1.1-4.9 1.1-2.6 0-8.5-.4-17.7-3.3-13.6-4.4-12.6-18.4-12-22.6.3-2 2.2-2.9 5.6-2.9 1.9.1 3.8.3 5.6.7-2.3-.8-4.4-2-6.3-3.5-2.6-2.3-4.9-4.8-5-4.9l4.6 1.1c.5.2 1.1.2 1.6.2 1 0 1.9-.1 2.8-.3 1-.2 2-.3 3-.3 2.3 0 4.3 1 6.5 3.4 1.4 1.7 1.8 3.2 1.4 4.6-1 3-6.6 4.2-6.6 4.3-.1 0 2.2 1.5 6.7 1.5 1 .1 2-.3 2.7-1.1 1.5-1.8 1.7-5.9.4-13.5-.9-5.2-6.5-5.9-11.2-5.9-1.6 0-3.2.1-4.7.2-1.4 0-2.8.1-3.9.1-.7 0-1.4 0-2.1-.1-5.4-.7-9.2-6.8-10-8 1.1 3 2 6.1 2.8 9.2 2.4 8.6 1.4 22.1 1.2 24.7-1.6-.2-3.3-.4-4.9-.3-3 0-6.8-1.3-11.1-2.9-5.8-2.1-13-4.7-20.9-4.7-5.1 0-9.2 1.6-12.3 4.8-3.7 3.8-5.7 9.9-5.4 16.6.3 9.5 10.2 10.3 10.9 10.3-.1 0-11.2-5.1-7.1-15.6 2.2-5.9 9.5-7.1 15.1-7.1 3.1 0 6.2.3 9.3.9-.1.1-7.2 4.3-8.3 10s5.3 9.6 5.4 9.6-3-4.1-1.8-7.9c.8-2.5 3.1-4.3 7-5.5 2-.7 4.2-1 6.3-1 6.2 0 9.5 3.5 11.9 6.1.6.7 1.2 1.3 1.7 1.7 3.3 3 13.7 3.9 14.3 3.9-5.9.6-11.7 2.4-16.9 5.3-2.3 1.2-3.5 2.8-3.7 4.7-.5 5 6.5 10.8 8.6 12.5.5.4 1.2.7 1.9.7 2.5 0 4.5-3.7 4.5-3.7l-.2-.1c-1.3 0-5.6-.1-7.1-2.5-.8-1.2-.7-2.8.2-4.7 2.8-6.3 15.4-6.4 26.5-6.4 2.3 0 4.5 0 6.6-.1 8.3-.3 10.9-2.3 11.6-3.5-.8 2-1.3 4.1-1.6 6.2-.4 3.8 3.7 6.9 3.8 6.9.2-3.6 1.3-7 3-10 3-5.3 17.2-10.3 17.3-10.3.5 2.6.4 5.4-.3 8-.7 2.9-4.4 3.7-8.2 4.5-2.6.5-5.2 1-6.9 2.3-4.1 3-1.5 9.9-1.5 10 .1.1.1-.8 3.4-5.7.9-1.5 2.6-2.4 4.3-2.4 1.7.1 3.3.6 4.7 1.6 0 0 .6 2.9-6 14.9-1.9 3.4-4 5.1-6.2 5.1-4.2 0-7.6-6.2-7.7-6.2l-.7 5.7c-.2.8 0 1.7.6 2.4 1.3 1.4 4 1.8 6.2 1.8 1.3 0 2.7-.2 4-.4-.1.1-2.6 3.2-13.9 6.1-1.1.3-2.3.5-3.5.5-1.5.2-3-.5-4-1.7-1.9-2.5-.4-7.1-.4-7.2-.1-.1-4.9 4.7-2.3 10 .9 1.9 3 2.8 5.9 2.8 2.4 0 4.7-.5 6.9-1.3l-3.4 3.1c-3.6 3.2-8.2 6.5-21.4 7.6-1.9.1-3.6.2-5.2.2-9.8 0-14.4-3-19.6-8.6s-11.2-6.1-19.6-6.1h-3c-5.2 0-11 3.9-16.6 7.7-4.9 3.3-9.5 6.5-13.9 7.2-.5.1-1.1.1-1.7.1-7.8 0-13.1-9.2-14.7-15.4-1.1-4.1 1.2-5.9 4.4-8.3 1.4-1 2.6-2 3.8-3.1 3.5-3.2 5.3-10.2 4.1-14.9-.5-2.5-2.4-4.4-4.9-5-6.1-1.5-10.6-6.6-13.4-15.3-1.1-3.3-3.8-5.6-6.9-5.6-2.2.1-4.3 1.2-5.6 3-1.4 1.6-3.4 2.5-5.5 2.5-3.5 0-7.3-1.9-10.7-3.8-1.5-.8-2.5-2.5-3-4.9-.7-4.6.9-10.5 3.8-13.7 1.4-1.6 2.9-3.5 4.4-5.4 3.2-4.3 6.6-8.7 10.7-11 1-.7 2.1-1 3.3-1 4.2 0 7.3 5.2 9.8 9.4 1.3 2.2 4.5 3.5 8.8 3.5 5.4 0 11.2-1.9 14.1-4.7 5.5-5.1 7.5-28.8 4.9-41.7-1.6-7.7-15-17.3-25.9-25-7.3-5.2-13.7-9.7-14.7-12.5-2.6-6.7 4.9-10.6 4.9-10.7-1.5-.8-3.2-1.2-5-1.3-1.8 0-3.6.8-4.8 2.2-3.7 4.1 0 11.3 0 11.4.1 0-4.5-.4-8.6-6.1-2.9-4-6.1-4.9-10.4-6.1-2.2-.6-4.4-1.2-6.5-2-8.2-3-7.9-11.3-8-11.4-2.6 1.4-3.8 4.5-2.6 7.3 1.1 2.9 3.6 5 6.7 5.7h-4c-5.2.2-10.3-1.1-14.6-3.9-6.6-4-10.2-7.4-11.3-15.6-.3-1.8.2-3.6 1.4-4.9 2.2-2.5 6.5-3.6 9.7-3.6 1.9 0 3.3.3 3.9.9 1.2 1.2-.4 3.3-1.6 4.9-.8 1-1.3 1.7-1.1 2.1.1.2.3.3.5.3h.4c1.3-.2 2.2-1.2 3-2.2.8-.9 1.7-2.1 3.3-2.1.6.1 1.3.2 1.9.4.7.3 1.5.5 2.3.4 2.3 0 4.9-1 8-2.2 3-1.4 6.3-2.4 9.6-3.1 1.2-.2 2.5-.4 3.7-.4 2.9 0 4.9.7 6.1 2.3 1.3 1.6 1.6 4.2.7 7.6-.5 2.1-1.7 3.1-3.6 3.1-3.6 0-8.4-3.9-8.4-4-.4 1.1-.3 2.3.3 3.3 1 1.7 3.4 2.9 7.2 3.3.5.1 1 .1 1.5.1 3.6 0 6.2-1.6 7.2-4.4 1.2-3.4-.2-7.6-3.8-10.6-3.1-2.7-6.2-4-9.4-4-3.7 0-7 1.6-9.8 3.2-1.6 1-3.4 1.6-5.2 1.7-3 0-5.6-1.8-9.4-4.5l-.4-.2c-1.7-1.2-3.6-1.8-5.6-1.7-6.4 0-13.3 4.5-17 10.8-5.2 9.1 14.9 24.7 15.1 24.8l-10.6-2.6c-3.9-.8-8-1.2-12-1.1-7.1 0-13.7 0-16.1-5.4-3.7-8.3-13.1-22-13.2-22.1-.1.1-7.2 15.7-10.6 20.6-1.4 2.1-1.6 5.5-.5 9 1.7 5.3 5.8 9.6 11 11.7 10 3.7 30.3 10.6 30.5 10.6-.2 0-20.4 1.2-28.2 2.3-5.5.6-11.1.9-16.7.8-9.7 0-16.9-.7-19.8-2-2-.9-3.9-1.9-5.7-2.9-3.8-2-7.3-3.8-10.8-4.3-5.2-.7-12.3-14.4-12.4-14.5 0 0 .1 3.2 5.6 11.5 5.6 8.3 15.1 12.5 27.9 16.4 3.4.9 7 1.2 10.6 1.1 16.1 0 40.2-4.5 40.5-4.6 0 0-3.8 2.4-10.2 6.2-6.1 3.6-30.3 13.2-51.5 17.9-1.8.4-3.6.6-5.4.6-16.4 0-23-18-23.1-18.1-4.7 4.1-8.1 9.6-9.8 15.6-3.5 11.8 8.3 21.5 18.8 27.6 3.3 2 7.1 3.1 11 3.2 2.6 0 5.2-.6 7.5-1.7l-4.2 2.6s3.1.3 7.8.3c6 0 12.1-.5 18.1-1.4 13.7-2.3 47.7-18.1 48.1-18.4-.5.4-41.7 25.8-69.2 37.8-9.2 4-16.7 6.1-22.4 6.1-2.7.1-5.4-.5-7.8-1.7-.4-.2-.9-.4-1.4-.5-.3 0-.5.1-.6.4-.4.3-.5.7-.4 1.2.5 1.9 4.6 3.7 4.8 3.7l-10.9.4h-1c-10.4 0-20.3-5.6-20.5-5.7 0 .1 4 6.5 16.2 9.2 2.8.6 5.5.8 8.3.8 11.7 0 26.4-4.5 47.8-14.6 26.4-12.5 56.8-31.3 58.5-32.4-.9.6-9.6 6.5-19.1 13.3-5.1 3.6-14 10.7-23.5 18.2-9 7.1-18.3 14.5-24.2 18.8-14.8 10.8-35.4 25.2-42.9 25.2-3.7-.1-7.4.6-10.7 2.3-1.7.7-3.9 1.6-6.9 2.7-.9.3-1.9.5-2.8.5-7.4 0-9.6-11.8-9.6-12-.1-.1-1.2 1.7-1.6 7.3-.4 5.7 7.1 9.9 7.2 9.9h-4.1c-3.7 0-10.1-6.4-10.2-6.5-.1 0-1.9 2.9 1.1 13.8 2.9 10.8 18.3 20.3 28.4 20.3h.7c9.6-.4 23.9-15.6 24-15.7 0 0 0 .4-.5 4.2-.4 3.8-14.1 10.6-14.2 10.7 2.5.5 5 .7 7.5.7 1.9 0 3.8-.1 5.7-.3 8.9-.8 13.4-2.4 28.6-12.5 15.2-10.2 53-44 53.3-44.4 0 0 0 .4-.7 4.6-.5 2.6-7.3 9.7-14.5 17.3-4.3 4.5-8.9 9.2-11.9 12.8-7.8 9.6-38.3 36-47 41.3-4.8 3-11.1 4.1-16.1 4.9-4.1.8-7.6 1.4-9.1 2.7-.7.7-1 1.3-.8 1.7.4 1 2.8 1.1 4.2 1.1h.8c-.6.4-8.3 6.1-15.4 7.6-7.5 1.5-18.7 1.9-18.9 2 3.9 2.1 8.3 3.2 12.8 3.1 5.1-.1 10.2-1.4 14.7-4 15.4-8.3 51.5-29.7 59-38.9s47.4-49.7 47.8-50.1c-1.5 3.2-3.5 6.2-6.1 8.7-4.4 4.6-37.4 51.3-42.5 61.6-5 10.3-41.4 48.6-59.3 59.2-4 2.4-7.8 3.7-11.3 3.7-9.4 0-13-9.3-13.1-9.4-.1.2-9 14.7-3.4 29.5 3.7 9.7 16.4 15.8 33.2 15.8 5.6 0 11.3-.7 16.8-2 6-1.5 10.4-4.5 12.9-8.8 4.2-7 2.2-15.1 2.1-15.3 1.5 2.3 2.3 4.9 2.3 7.6s-.4 5.4-1.1 8l11.6-7.6c7.8-5.1 19.3-22.3 31.3-40.4 6-8.9 12.1-18.1 18-26.1 6.6-9.1 10.4-14 11.3-14 .4.5-1.5 4.8-4.5 11.9-1.5 3.5-3.4 7.7-5.4 12.4-10.4 25-51.4 84.6-51.8 85.2l-13.2 19.5c-11 16.3-21.8 19.5-28.2 21.4-1.3.4-2.4.8-3.4 1.2-3.6 1.4-4 4.9-4.3 7.8-.1 1.5-.3 3-1 3.6-1.8 1.9-19.7 11.7-19.9 11.8 0 0 .2.6 1.5.6 2.2 0 8.9-1.7 27.5-13.5 23.2-14.6 49.6-48.5 83-106.6 25.3-43.8 30.9-51.2 30.9-51.3l-.5 4.6c-.3 4.6-18.8 48-35.2 84-15.6 34.3-66.6 117-80.9 128.8-3.7 3.1-7.2 4.6-10.3 4.6-6.2 0-8.8-6.4-8.9-6.4-.1-.1-4.4 4.3.8 16 5.1 11.5 19.1 15.7 27.2 15.7h1c8.7-.4 22.6-4.9 35.4-16.4 12.4-11.2 8.1-22.5 7.5-23.7 1.5 2.9 2.6 5.9 3.4 9.1.7 4.1-1.2 11-1.2 11.1.1-.1 8-9.9 10.6-12.6 1.6-1.6 3.7-5.5 5.9-9.7 1.4-2.6 2.9-5.4 4.2-7.5 2.8-4.5 5.4-7.9 9.6-13.5l2.8-3.7c6-8 5.7-46.2 5.6-46.6 0 0 1.6 1.6 3.4 8 1.9 6.4 1.5 19 1.5 19.1.2-.2 14.4-15.4 20-24.4 2.7-4.4 5.8-14.6 9-25.5 3.5-11.6 7-23.6 10.2-28 3.3-4.7 7-9.2 10.8-13.4-.2.8-23.4 64.5-32.6 86.4-7.2 16.8-21.7 45.2-30.4 62.2q-3.1 6.1-6.1 12.2c-3.6 7.3-20.6 24.4-30.8 34.5-4.7 4.8-8.2 8.2-8.3 8.7s-.1.9-.1 1.4c0 4.3-1.6 8.4-4.5 11.6-5.2 6-23 18.2-23.2 18.4h2.6c2.8 0 24.5-16.8 32.4-25.6 19.8-22.7 37.1-47.4 51.5-73.8 19.3-35.9 53.4-125.5 53.7-126.4 0 0 .8 2.3.8 11 0 8.6-41 114.4-41.3 115.5l5.5-.1s-1.9 4.6-6.4 16c-4 10.3-30.8 66.4-50.3 92.2-7.2 9.4-13.9 14.2-20 14.2-2.8-.1-5.5-1.2-7.6-3 5.3 5.8 18.4 19.7 26.8 22.4 2.1.6 4.2.9 6.4.9 10.4 0 22.3-5.7 27.4-9.7 6.6-5.2 15.7-19.1 18.5-26.8 1.3-3.5 2.2-4.2 2.8-4.2.8 0 1.3 1.2 1.3 1.2l1.5 13.4c.2-.1 15.9-13.6 26.7-24.9 8.9-9.3 20.2-44.9 26.3-64.1 1.3-4.2 2.3-7.6 3-9.6 4-11.2 9.1-30 11-42.4 1.8-12.4-9.7-30-9.8-30.2 0 0 4.9.1 10.8 9.5 3 4.7 4.8 7.2 5.3 7.2.1-.1 0-.3 0-.3l2-17.2c1.8-17 13-70.2 13-70.7 0 0 3.4 5.1 3 14.2-.4 9.5-6 52.5-11.6 85.1-5.6 32.9-22 79.5-22.1 80 .1-.1 9.4-13.7 16.8-39.8 7.5-26.1 25.5-143.6 25.6-144.8 0 0 3 2.9 2.6 16.8-.4 14-5.6 46.3-5.6 46.7l3.7-3.1c0 .1-4.1 10.5-4.1 28.6.1 12.9-1.8 25.8-5.6 38.2-2.2 7.2-9 13-9 13.1l6.7-3.5c-.3 3.7-.9 7.4-1.8 11.1-1.5 5.3-12 9.1-12 9.1 5.6-.1 11.2-.5 16.8-1.4 10.6-1.5 25.4-21.9 34.3-34.1 5-6.9 6-14.3 6.9-21.6.7-5.1 1.4-10.5 3.6-15.5 5.2-11.7 8.6-69.3 8.6-69.8 2.3 8.1 3.7 16.6 4.1 25.1.3 8.4-2 31.4-3.5 46.6-.7 7.8-1.3 13.9-1.3 15.4 0 4.1-10.4 36.7-10.5 37l3-3.1c2-2 3.8-9.2 6.5-20.2.9-3.6 1.8-7.6 2.9-11.9 4.5-17.4 9-79.2 9-79.8.1.1 13.9 10 16.9 13l.6.7c3.4 3.4 11.5 11.3 11.5 19.9 0 9-8.1 33.1-13.6 37.8-5.4 4.7-12.8 14.2-14.7 20.3-1.6 5.4-13.7 30.5-23.6 34.8-1.6.7-3.3 1.1-5 1.1-6.6 0-10.3-6-10.4-6.1s-1.5 10 2.2 11.9c1.8.7 3.6 1 5.5.8 3.1 0 6.1-.3 9.1-.8-.3.1-12.1 7.7-17.2 11.8-5.2 4.1-3.8 11.4-3.8 11.5.1.1 2-3.5 7.6-9.6 5.5-6 20.2-11.4 20.3-11.5 0-.1 0 .9-.8 7.3-.7 6.4-8.9 10.2-9 10.3.8-.1 1.6-.2 2.4-.2 2.8 0 5.6.8 8.1 2.1 3.9 2.2 2.4 9.6.8 16.8-.7 2.9-1.2 5.8-1.5 8.8-.8 8.7-15.7 11.8-15.8 11.9 0 0 3.8 3.5 7.9 3.5.4 0 .8 0 1.1-.1 4.5-.7 11.2-10.2 11.2-10.3s1.6 3.2.8 15.7c-.7 12.2-10.1 22-18 23.2-.3.1-.6.1-.9.1-1.2.1-2.3-.4-3-1.3-2.2-2.8-.6-9.4-.6-9.5-2 2.7-3.1 5.9-3.1 9.2-.1 1.9.8 3.7 2.5 4.8 1.8.9 3.8 1.3 5.9 1.2 1.2 0 2.5-.1 3.7-.2 6.3-.8 19.5-16.6 19.6-16.8v4.5c.1 2.9 1.2 5.6 3 7.9 2.2 2.8 5.5 4.4 9 4.4h1.2c8.5-.8 10.1-8 10-8 0 0-4.2 5.4-10.4 5.4-1 0-2-.2-3-.5-7.8-2.3-.9-26.8-.8-27.1 0 .1 3.7 7.3 7.1 11.1.8 1 2 1.6 3.2 1.6 2.6 0 5.1-2.3 5.1-2.4.1 0-9.7-7-7.1-18.7s21.2-32.6 21.3-32.9c0 0 0 3.5-2.2 9.2-2.3 6-.9 13.6 3.4 16.9 2 1.6 4.6 2.4 7.2 2.4.6 0 1.2 0 1.9-.2-.1-.1-9.4-6.5-9-11.8.3-5.3 11.6-24.2 22.1-40.1 9.7-14.8 23.2-26.3 23.3-26.4-.1 1.5-.2 3-.4 4.5-.1 2.7.4 5.3 1.6 7.7 0-.2.1-14.5 10.8-16.4 1.2-.2 2.4-.3 3.5-.3 4 0 4.3 1.9 4.8 4.6.2 1.9.9 3.7 1.9 5.3 3.6 5.1 6 17 5.6 23.6-.4 6.4-10 8.7-10.2 8.8-.1.1 1.3 2.3 6.9 3.1.2 0 .5.1.8.1 5.3 0 10-5.8 10-5.9 0 0 1.9 2.4 1.9 8.4 0 6.3-8.1 17.2-17.3 18h-.4c-4.2 0-5.6-5-7.1-10.3-1.7-5.9-3.4-12.1-9-12.7-.8 0-1.6-.1-2.4-.1-11.2 0-28.7 7-33 22.3-1.5 4.9-.6 10.2 2.5 14.2 4.9 6.4 13.8 9.3 20 9.3.7 0 1.3 0 2-.1 2.5-.1 4.8-1.3 6.2-3.3 2.6-3.6 1.3-9 1.3-9l-1.5 4.6c-.6 1.9-2.6 3-5.5 3-3.7 0-8.3-1.7-12.5-4.5-1.8-1.1-3-2.9-3.2-5-.3-4.2 4.2-8.3 4.3-8.3 0-.1 3.7 3 8.2 6.5 1.1.8 2.5 1.3 3.8 1.2 2.4-.1 4.6-1 6.4-2.5h-4.5c-1 0-1.9-.4-2.5-1.1s-1-1.6-.9-2.6c0-2.1 1.6-4.2 5.3-4.2 3.6 0 4.7 1.8 6.5 4.4 2.3 3.8 5.6 6.8 9.6 8.6 1.8.8 3.8 1.3 5.8 1.3 8.3 0 14.9-7.4 14.9-7.5s.4.9-.8 8.4c-1 7.2-6.4 16.2-13.1 21.8-2.5 2.2-5.7 3.5-9 3.6-3.5 0-5.8-1.9-6-4.8-.1-.8.2-1.6.7-2.2 1.7-1.7 5.6-2.1 8.6-2.1 1.9 0 3.4.1 3.8.1-.2-.2-6.5-4.9-12-4.9-1.6 0-3.2.5-4.5 1.5-2.6 2.1-4.1 5.3-3.9 8.7.2 4.6 3 9 7.7 12 2.1 1.3 4.5 1.9 7 1.8 7.6 0 15.5-5.2 15.5-5.3-.9 3.7-3.2 7-6.4 9.2-3.8 2.4-10 3.8-17.5 3.8-2.5 0-5.1-.1-7.6-.4-1.8-.2-3.6-.4-5.5-.4-5.6 0-7.1 1.9-10.3 6.1-1.6 2.3-4.1 3.6-6.8 3.7-1.9 0-3.8-.8-5.2-2.1-2.2-2.3 3.3-10.2 3.3-10.3h-.3c-.9 0-3.4.2-6.4 3-3.8 3.4-2.4 9.2-2.6 9.2-.8 0-3-.3-6-3.1-1.4-1-3.2-1.6-4.9-1.4-4.9 0-11.3 2.7-12.9 6.8-2.2 5.7 4.4 9.5 4.5 9.5s-2.2-3.4 1.2-8.7c1.1-1.8 1.9-2.6 2.5-2.6s.9.7 1.5 1.6c.7 1.1 1.5 2 2.4 2.9 3.3 3 14.2 8.4 14.3 8.4 0 0-1.3 3.1-6.9 5-5.8 2-14.6 12.5-15.7 20.6-.4 3.3 1 7.3 4.1 10.9 4.8 5.3 11.6 8.3 18.8 8.3.6 0 1.3 0 1.9-.1 5.2-.4 8.7-1.9 10.6-4.6 1.3-2 1.7-4.5 1-6.9-1.2 1.6-2.3 3.3-3.3 5-1.3 2.3-3.5 3.2-8.4 3.2-1 0-2.1-.1-3.3-.2-7.4-.4-7.5-5.2-7.5-5.3 2.1-.4 4.2-.7 6.4-.7 3.4 0 4.2-5 4.1-5 0 0-1.1 1.5-5.6 1.5-.9.1-1.7-.2-2.2-1-1-1.7.3-6 4.1-12.7 1.7-3.1 6.6-4.7 14.4-4.7 4.6.1 9.2.5 13.7 1.3l-.7 8c-.3 3.1-1.5 4.7-3.5 4.7-1.3-.1-2.5-.6-3.6-1.3 2.1 1.7 4.4 3.2 6.7 4.6 1.1.8 2.4 1.3 3.8 1.4 3.2 0 4.1-3.8 4.1-4l.4 6c.3 6-7.8 6.9-7.9 6.9l2.7 2c1.8 1.1 4 1.7 6.1 1.7 1.9.1 3.7-.5 5.2-1.7 2.5-2.6 3.7-6.8 4.1-14.2.4-6.8 2.6-11.1 7.5-14.1 4.9-3.1 22.8-19.3 22.9-19.5 0 0 .4.5 1.1 6.1.2 1.3.2 2.5 0 3.8 2.5-1.4 7.2-1.9 7.2-2l-1.5 4.6q-.4 1.3-.8 2.7c-1 3.6-1.8 6.8-6 8-.4.1-.8.1-1.1.1-4.6 0-7.8-8.1-7.9-8.2s-3.4 2.4-3.4 9.2c-.1 2.3 1.3 4.4 3.4 5.2 1.6.7 3.4 1 5.2 1h.8l-2.3 1.9c-1 .6-2 1.2-3.1 1.7-5.3 2.8-15 7.9-17.9 16.2-1.9 5.5-1.6 11.1 1.1 15.1 1.5 2.5 4.2 4.2 7.2 4.4h.6c6.2 0 14-6 14.1-6.1-2.7.8-5.4 1.3-8.2 1.4-3 0-4.6-.9-4.6-2.9 0-5.6 7-5.7 7.1-5.8.1 0-5-1.6-5.9-4.3-.3-.8-.2-1.8.3-2.5 1.5-2.5 6-3 9.4-3 1.5 0 3 .1 4.5.4v3c0 3 4 8.7 4.1 8.7.1.1.1-1.1 2-5.7.6-1.5 1.3-2.4 2.1-2.4 1 0 1.9 1.3 1.9 1.3v3c0 3-2.8 6.7-9.7 14.9-6.1 7.3-21.4 16.6-29.3 16.6-.9 0-1.8-.2-2.7-.6-1.3-.7-2.7-1.1-4.2-1.2-.7 0-1.4.2-2.1.4-1 .3-2 .5-3 .5-1-.1-2.1-.2-3.1-.4-1.3-.2-2.4-1-2.9-2.2-1.6-3.7 2.5-10.4 2.5-10.5s-5.7 1.6-5.7 7.3c0 3.9-2.2 6.6-5.3 6.6-2.1-.1-4-1-5.5-2.4-2.3-1.8-3.2-4.6-2.9-8 .8-5.3 4.1-10 8.9-12.5 1-.6 2.2-.9 3.5-.9 6.3 0 10.7 8.8 10.8 8.9 0-.2-2-17.7-13.9-20.7-1.4-.4-2.9-.5-4.3-.6-10.8 0-18 10.6-20.5 15.1-4.1 7.2 5 27.3 5.1 27.5-6.1 7.6-8.8 16-9.3 29 0 0-1.5.1-3.5.1-4.7 0-12.7-.4-15.6-2.8-1.1-.9-3.3-1.3-6.3-1.3-7.3 0-17.5 2.8-19.3 6.4-1.4 2.6-4.3 3.1-6.5 3.1-1.4 0-2.8-.2-4.1-.5.9 1.3 1.9 2.4 3 3.5.5.5 1.2.7 2 .7 1.5-.2 3.1-.7 4.4-1.5 0 0 .4.5.7 5.8.1.9-.2 1.8-.8 2.4-1.4 1.4-4 2.3-6.9 2.3-2.6 0-5.6-.8-6.4-3.3-.6-1.3-.6-2.8 0-4.1.8-1.2 2-2 3.3-2.4h-.9c-2.1 0-4.2.5-5.9 1.6-1 .6-1.4 2-1.2 3.6.3 2.9 2.6 7.1 8 9.4 1.8.8 3.8 1.1 5.8 1 7.3 0 15.6-3.7 15.6-3.7s.2.6 1.8 8.4c.7 2.4.1 5-1.5 7-2.1 2.3-5.1 3.7-8.3 3.8-1.1 0-2.3-.3-3.3-.9-.7-.4-1.1-1.1-1.1-1.8-.1-2.9 5.2-6.9 5.2-7 .1-.1-.7-.1-1.9-.1-2.6 0-7.6.4-10.5 2.8-1.9 1.5-2.6 5.3-1.7 9.1 1 5.2 4.9 9.2 10 10.5 1 .3 2 .4 3.1.4 10.4 0 19.6-12.2 21.4-14.6.6-.8 1.5-1.3 2.6-1.3 1.6 0 3.4 1 5.4 2s4.3 2.1 6.2 2.1c4.9 0 6-8.4 6-8.5s-4.4 3.7-8.1 3.7c-.9 0-1.7-.2-2.4-.6-1.2-.7-1.7-1.3-1.7-2 0-1.3 2.3-2.5 4.4-3.6l.3-.1c3-1.5 4.5-14.6 4.5-15 0 .1.2.5 3 1.2 1 .2 2 .2 3 .2 5.3 0 14.7-1 14.7-1 .1 0-1.9 3.9 1.5 9.6 1.5 2.4 4.3 3.9 7.2 3.7 1.4 0 2.8-.2 4.1-.6 0 0-7.4-4.3-4.8-9.6 1.5-3.2 18.4-10.7 33.3-17.3 10-4.4 19.6-8.6 23-10.9 8.6-5.7 26.9-38 27-38.3 0 .2-2.7 23.4-4.1 29.8-1.5 6.5-7.6 16.9-14.6 18.4-.7.1-1.4.1-2.2.1-5.2 0-6.1-5-6.1-5.1-.1-.1-3.8 5.4-1.6 10.3 1.1 2.1 3.3 3.4 5.6 3.3 1.2 0 2.4-.2 3.4-.6-1.1 3.1-3.4 5.6-6.3 7.2-1.3.8-2.5 1.6-3.7 2.5-2.6 2-5.2 3.9-9 3.9-.9 0-1.8-.1-2.7-.3-1.3-.3-2.6-.4-3.9-.4-3.3 0-5.2 1.3-7.5 3-.8.5-1.6 1-2.5 1.6-.7.5-1.5.7-2.3.7-3.8 0-6.7-5.6-6.8-5.6-.1-.1-.7 4.2 1.1 6.9 1.1 1.4 2.8 2.3 4.6 2.3-.6.1-1.1.1-1.7.1-.9 0-2.3 0-4.3-.2-6-.4-10.1-6.4-10.2-6.5.5 4.9 1.5 9.6 3 14.2 2.5 7.1 11 7.7 12.3 7.7-6.6 1.3-13.2 2.3-19.8 3-9.2.7-17.9 9.6-21.8 18-1.2 2.6-1.2 5.6 0 8.2 2.2 5.7 7.9 10.7 12.1 12.4.9.4 1.9.6 3 .6 3.3-.2 6.5-1.6 8.8-4.1 1.5-1.5 2.4-3.5 2.4-5.6-.2-3.5-4.2-4-6.6-4-.7-.1-1.4 0-2 .1l3.7 3.8c.7.6.9 1.6.6 2.5-.8 1.7-3.5 3.1-6.3 3.1-2.6.1-5-1.4-6.2-3.7-1.3-2.4-1.2-5.3.3-7.6 2.4-4.1 8.2-7.3 13.2-7.3.4 0 .7 0 1.1.1 1.2.1 2.6.1 4.2.1 5.3-.1 10.5-.5 15.7-1.4-2.4.9-4.4 2.8-5.5 5.2-1.4 3.1-1 7.1 1 11.7 3.5 7.7 9.1 9.3 13.1 9.3 1.9 0 3.7-.3 5.4-1 0 0-3.6-.9-5.1-3.7-.9-1.8-1-3.9-.2-5.8 1.1-3.2 3.2-5 5.8-5 2.4.1 4.6 1.4 5.8 3.4.6 1.1 1.8 1.8 3 1.8s2.4-.4 3.4-1c0 0-2.6-1.6-2.6-6.1 0-2.6 3.6-4.3 7.7-6.2 3.1-1.4 6.1-3.1 8.9-5.2 6.3-5.3 13.1-31.2 13.1-31.4 0 0 2.6 2.7 4.5 5 1.2 1.5-.1 5.9-1.5 10.5-.7 2.3-1.4 4.7-1.8 7.1-.4 1.9-.5 3.8-.5 5.7.3 4.6-.7 9.2-3 13.3-2.7 5.4-7.8 6.5-11.6 6.5-1.3 0-2.5-.1-3.8-.3.5 2.3 1.5 4.4 3 6.2 1.2 1.2 2.9 1.8 4.6 1.7 1.2 0 2.5-.2 3.7-.7 0 .1-.5 3.9-9 5.4-.5.1-1 .1-1.5.1-7.4 0-9.8-10.3-9.9-10.4l-.7 4.2c-.7 4.1 6.7 14.8 12.8 17.2.7.2 1.3.3 2 .3 3 0 8.6-2.2 13.8-4.8-.4 1.5-.6 3.1-.6 4.6 0 7.8-10.9 8.4-14.2 8.4h-.5c-.1 0-.3 0-.4.1l5.3 3c1.4.8 3.1 1.2 4.8 1.1 3.1-.1 6.3-.9 9.1-2.2l4.5 5.3c4.4 5.3 3.4 14 3.4 14.1l3.1-3.5c3-3.4 6-18.6 6-18.7 0 0 3.7 3.5 7.4 3.9h.5c3.7 0 9.4-5.8 9.4-5.9s-1.9 1.2-4.9 2.7c-.4.3-.9.4-1.4.4-2.5 0-5-3.2-5-9.5 0-.7-.1-1.5-.3-2.2 4.1 1.8 8 3.2 10.5 3.2.6 0 1.3-.1 1.9-.3 6.1-2.4 13.6-13.1 12.8-17.2l-.7-4.2c-.1.1-2.5 10.4-9.8 10.4-.5 0-1 0-1.6-.1-8.4-1.5-9-5.3-9-5.4 1.2.5 2.5.7 3.8.7 1.7.1 3.3-.5 4.5-1.7 1.6-1.8 2.6-3.9 3-6.2-1.2.2-2.5.3-3.7.3-3.8 0-8.9-1.1-11.7-6.5-2.2-4.1-3.2-8.7-3-13.3.1-1.9-.1-3.8-.4-5.7-.5-2.4-1.1-4.8-1.9-7.1-1.4-4.6-2.6-9-1.4-10.5 1.8-2.3 4.4-4.9 4.4-5 0 .2 6.8 26.1 13.2 31.4 2.7 2.1 5.7 3.8 8.9 5.2 4.1 1.9 7.6 3.6 7.6 6.2 0 4.5-2.6 6.1-2.6 6.1 1 .6 2.2 1 3.4 1.1 1.3 0 2.4-.7 3-1.8 1.2-2 3.4-3.3 5.8-3.4 2.6 0 4.7 1.8 5.8 5 .8 1.9.7 4-.2 5.8-1.5 2.8-5 3.7-5.1 3.7 1.7.7 3.5 1 5.4 1 4.1 0 9.7-1.6 13.1-9.3 2.1-4.6 2.5-8.6 1.1-11.7-1.2-2.4-3.2-4.3-5.6-5.2 5.2.8 10.4 1.3 15.7 1.3 1.6 0 3 0 4.2-.2h1c5 0 10.8 3.2 13.2 7.3 1.5 2.2 1.7 5.2.4 7.6-1.2 2.3-3.7 3.8-6.3 3.7-2.7 0-5.5-1.4-6.2-3.2-.4-.8-.2-1.8.5-2.4l3.8-3.8c-.7-.1-1.4-.2-2-.2-2.4 0-6.4.6-6.7 4 0 2.2.9 4.2 2.5 5.6 2.2 2.5 5.4 4 8.8 4.2 1 0 2-.2 3-.6 4.2-1.7 9.9-6.7 12.1-12.4 1.1-2.6 1.1-5.6 0-8.3-3.9-8.3-12.7-17.2-21.8-18-6.7-.6-13.3-1.6-19.8-3 1.2 0 9.8-.5 12.2-7.6 1.6-4.6 2.6-9.3 3-14.2-.1 0-4.2 6.1-10.1 6.5-1.5.1-2.9.2-4.4.2-.5 0-1.1 0-1.6-.1 1.8 0 3.5-.9 4.5-2.4 1.9-2.6 1.2-6.8 1.2-6.9-.1 0-3 5.7-6.9 5.7-.8 0-1.6-.3-2.2-.7-1-.6-1.8-1.1-2.5-1.6-2.4-1.7-4.2-3-7.6-3-1.3 0-2.6.1-3.9.4-.9.2-1.8.3-2.6.3-3.9 0-6.4-1.9-9-3.9-1.2-.9-2.5-1.8-3.8-2.5-2.9-1.6-5.1-4.2-6.3-7.2 1.1.4 2.2.5 3.4.5 2.4.2 4.6-1.1 5.6-3.2 2.2-4.9-1.5-10.3-1.5-10.3-.1-.1-1 5.1-6.2 5.1-.7 0-1.4 0-2.1-.2-7-1.5-13.1-11.7-14.6-18.3-1.5-6.5-4.1-29.6-4.1-29.8.1.3 18.4 32.6 27 38.3 3.4 2.3 13 6.4 23 10.9 14.9 6.6 31.7 14.1 33.3 17.3 2.6 5.2-4.8 9.5-4.9 9.5 1.4.5 2.7.7 4.2.7 2.9.2 5.6-1.3 7.2-3.7 3.3-5.7 1.5-9.6 1.4-9.6 0 0 9.5 1 14.7 1 1 0 2-.1 3-.2 2.8-.8 3-1.1 3-1.2 0 .4 1.6 13.4 4.6 14.9l.3.2c2 1 4.3 2.2 4.4 3.6 0 .6-.6 1.3-1.7 2-.8.3-1.6.5-2.4.5-3.8 0-8.1-3.6-8.2-3.6 0 0 1.2 8.5 6 8.5 2 0 4.2-1.1 6.3-2.1 2-1.1 3.8-2 5.4-2 1 0 2 .5 2.6 1.3 1.7 2.5 10.9 14.6 21.4 14.6 1 0 2.1-.1 3.1-.4 5.1-1.2 9-5.2 10.1-10.4.9-3.8.1-7.6-1.8-9.2-2.9-2.3-7.8-2.7-10.4-2.7-1.3 0-2 .1-2 .1s5.4 4.1 5.3 7c-.1.7-.5 1.4-1.2 1.8-1 .6-2.1.9-3.3.9-3.2-.1-6.2-1.5-8.3-3.9-1.5-1.9-2.1-4.5-1.5-7 1.7-7.7 1.9-8.3 1.9-8.3s8.2 3.7 15.5 3.7c2 .1 4-.3 5.9-1 5.3-2.3 7.6-6.5 8-9.4.2-1.7-.2-3-1.2-3.6-1.7-1.1-3.8-1.7-5.9-1.6h-.9c1.4.4 2.5 1.2 3.3 2.4.6 1.3.6 2.8.1 4.1-.9 2.5-3.9 3.3-6.5 3.3-2.8 0-5.5-.9-6.8-2.3-.7-.7-1-1.5-.9-2.4.3-5.3.7-5.8.7-5.8 1.3.8 2.9 1.3 4.5 1.5.7 0 1.4-.2 2-.7 1-1.1 2-2.3 3-3.5-1.4.3-2.7.5-4.1.5-2.2 0-5.1-.5-6.5-3.2-1.9-3.5-12.1-6.4-19.3-6.4-3 0-5.2.5-6.3 1.4-2.9 2.4-11 2.8-15.6 2.8-2.1 0-3.6-.1-3.6-.1-.5-13-3.2-21.5-9.3-29 .1-.2 9.3-20.3 5.2-27.5-2.6-4.5-9.7-15.1-20.5-15.1-1.5 0-2.9.2-4.3.6-11.9 3-13.9 20.5-14 20.7.1-.1 4.5-9 10.9-9 1.2 0 2.4.4 3.5.9 4.8 2.5 8 7.2 8.8 12.6.4 3.4-.6 6.2-2.8 8-1.6 1.4-3.5 2.2-5.6 2.4-3.1 0-5.3-2.7-5.3-6.6 0-5.7-5.6-7.3-5.7-7.3s4.1 6.8 2.5 10.5c-.5 1.1-1.6 1.9-2.9 2.1-1 .3-2 .4-3.1.4-1 0-2-.1-3-.4-.7-.3-1.4-.4-2.1-.4-1.5 0-2.9.5-4.2 1.2-.8.4-1.8.6-2.7.5-7.8 0-23.2-9.3-29.3-16.5-6.9-8.2-9.7-11.9-9.7-14.9v-3c0-.1.8-1.3 1.9-1.3.8 0 1.5.8 2.2 2.4 1.8 4.5 2 5.7 2 5.7s4.1-5.7 4.1-8.8v-3c1.5-.2 3-.3 4.5-.3 3.4 0 7.8.5 9.4 2.9.5.8.6 1.7.3 2.6-1 2.7-5.9 4.3-5.9 4.3-.1 0 7.1.1 7.1 5.8 0 2-1.6 2.9-4.6 2.9-2.8-.1-5.6-.6-8.2-1.5 0 .1 7.9 6.2 14.1 6.2h.6c2.9-.3 5.6-1.9 7.2-4.5 2.6-4 3-9.5 1-15-2.9-8.4-12.6-13.4-17.8-16.2-1.1-.5-2.2-1.1-3.2-1.8l-2.2-1.8h.8c1.8 0 3.5-.4 5.2-1 2.1-.9 3.5-2.9 3.4-5.2 0-6.8-3.4-9.2-3.4-9.2-.1 0-3.3 8.2-7.9 8.2-.4 0-.8-.1-1.1-.2-4.2-1.2-5-4.4-6-8q-.4-1.3-.8-2.6l-1.5-4.7s4.7.6 7.1 2c-.1-1.2-.1-2.5 0-3.8.8-5.6 1.2-6 1.2-6.1.1.2 18 16.5 22.8 19.5 4.9 3 7.2 7.3 7.6 14.1.4 7.4 1.6 11.7 4.1 14.2 1.4 1.2 3.3 1.8 5.1 1.7 2.2.1 4.3-.5 6.2-1.7l2.7-1.9c-.1-.1-8.3-.9-7.9-6.9l.3-6.1c0 .3 1 4 4.2 4 1.3-.1 2.7-.5 3.8-1.3 6.3-4.2 6.7-4.6 6.7-4.7-1.1.7-2.3 1.2-3.6 1.3-2 0-3.2-1.5-3.5-4.7l-.8-8c4.6-.8 9.1-1.2 13.7-1.3 7.9 0 12.7 1.6 14.5 4.7 3.8 6.8 5.1 11 4.1 12.8-.5.7-1.4 1.1-2.3 1-4.4 0-5.5-1.5-5.6-1.6 0 0 .8 5 4.2 5 2.1 0 4.3.3 6.4.8 0 0-.1 4.9-7.6 5.2-1.1.1-2.2.2-3.2.2-4.9 0-7.1-.8-8.4-3.2-1-1.7-2.1-3.4-3.4-5-.6 2.4-.2 4.9 1.1 6.9 1.8 2.7 5.4 4.3 10.5 4.7h2c7.2 0 14-3 18.8-8.3 3.1-3.5 4.5-7.5 4-10.9-1.1-8.1-9.9-18.6-15.7-20.6-5.6-1.9-6.8-4.9-6.8-5s10.9-5.4 14.2-8.4c.9-.9 1.7-1.8 2.4-2.9.6-.9 1-1.6 1.5-1.6.6 0 1.4.8 2.5 2.6 3.4 5.3 1.2 8.7 1.2 8.8 0 0 6.8-3.9 4.5-9.6-1.6-4.1-8-6.8-12.9-6.8-1.7-.1-3.5.4-4.8 1.5-3 2.7-5.3 3-6.1 3-.2 0 1.2-5.8-2.5-9.2-3-2.8-5.6-3-6.5-3h-.3c0 .1 5.6 8 3.4 10.3-1.5 1.3-3.4 2.1-5.3 2.1-2.7-.1-5.2-1.4-6.7-3.7-3.3-4.2-4.7-6-10.4-6-1.8 0-3.7.1-5.5.3-2.5.3-5 .4-7.6.5-7.5 0-13.7-1.4-17.5-3.9-3.2-2.2-5.5-5.5-6.4-9.2 0 .1 7.9 5.4 15.6 5.4 2.4 0 4.9-.6 7-1.9 4.6-3 7.4-7.3 7.6-12 .2-3.4-1.2-6.6-3.9-8.7-1.3-1-2.9-1.5-4.5-1.4-5.5 0-11.7 4.7-12 4.8h3.8c3 0 6.9.3 8.6 2.1.5.6.8 1.3.7 2.2-.2 2.9-2.5 4.7-6 4.7-3.3-.1-6.5-1.4-9-3.6-6.7-5.6-12.1-14.5-13.1-21.7-1.1-7.5-.8-8.4-.8-8.5.1 0 6.6 7.5 14.9 7.5 2 0 4-.5 5.8-1.3 4-1.8 7.3-4.8 9.6-8.5 1.8-2.7 3-4.5 6.5-4.5 3.7 0 5.3 2.1 5.3 4.2.1 1-.3 1.9-.9 2.6s-1.5 1.1-2.5 1.2h-4.4c1.7 1.5 3.9 2.3 6.3 2.5 1.4 0 2.7-.5 3.8-1.3 4.5-3.5 8.3-6.5 8.3-6.5s4.5 4.1 4.3 8.3c-.3 2.1-1.5 3.9-3.3 5-4.2 2.8-8.8 4.5-12.5 4.5-2.9 0-4.9-1-5.5-3l-1.4-4.6c-.1 0-1.4 5.4 1.2 9 1.5 2 3.7 3.2 6.2 3.3.7.1 1.3.1 2 .1 6.2 0 15.1-2.9 20-9.2 3.1-4.1 4-9.4 2.5-14.2-4.3-15.4-21.8-22.3-32.9-22.3-.9 0-1.7 0-2.5.1-5.6.5-7.3 6.7-9 12.6-1.5 5.3-2.9 10.3-7.1 10.3h-.4c-9.2-.7-17.3-11.7-17.3-17.9 0-6 1.8-8.4 1.9-8.5 0 0 4.7 5.9 10 5.9.3 0 .6-.1.9-.1 5.5-.8 6.8-3.1 6.8-3.1s-9.8-2.3-10.2-8.7c-.4-6.7 2-18.5 5.6-23.7 1-1.6 1.7-3.4 1.9-5.3.5-2.7.8-4.6 4.8-4.6 1.1 0 2.3.1 3.5.3 10.7 1.9 10.8 16.3 10.8 16.4 1.2-2.4 1.7-5 1.6-7.6-.2-1.5-.3-3.1-.4-4.6.1.2 13.7 11.7 23.3 26.4 10.5 16 21.8 35 22.2 40.1.3 5.2-9 11.7-9 11.8.6.2 1.2.3 1.8.2 2.6 0 5.2-.8 7.2-2.4 4.3-3.2 5.7-10.8 3.4-16.9-2.3-5.6-2.2-9.1-2.2-9.1.1.2 18.7 21.1 21.3 32.8s-7 18.7-7.1 18.7c-.2.1 2.5 2.4 5.1 2.4 1.2 0 2.4-.6 3.2-1.5 3.4-3.8 7.1-11 7.2-11.2 0 .3 7 24.9-.9 27.1-1 .3-2 .5-3 .5-6.2 0-10.4-5.4-10.4-5.4-.1-.1 1.5 7.3 10 8 .4 0 .8.1 1.1.1 3.6 0 6.9-1.7 9-4.5 1.8-2.2 2.9-5 3.1-7.9v-4.4c.1.1 13.2 16 19.6 16.7 1.2.1 2.4.2 3.7.2 2 .2 4.1-.3 5.9-1.2 1.6-1 2.5-2.9 2.4-4.8.1-3.3-1-6.5-3-9.1 0 0 1.6 6.6-.6 9.5-.8.8-1.9 1.3-3 1.2-.3 0-.6 0-.9 0-7.9-1.2-17.4-11.1-18.1-23.3-.7-12.5.8-15.6.8-15.7 0 0 6.7 9.6 11.2 10.3.4.1.8.1 1.1.1 4.1 0 8-3.4 8-3.5-.1 0-15-3.2-15.8-11.9-.3-2.9-.8-5.9-1.5-8.7-1.6-7.3-3.1-14.7.8-16.8 2.5-1.4 5.3-2.1 8.1-2.1.8-.1 1.6 0 2.4.1-.1-.1-8.3-3.9-9-10.3-.8-6.4-.8-7.3-.8-7.3s14.7 5.5 20.3 11.5c5.6 6.1 7.5 9.6 7.5 9.6.1 0 1.5-7.3-3.7-11.5s-17-11.7-17.3-11.8c3.1.5 6.1.8 9.2.8 1.9.1 3.7-.2 5.4-.8 3.8-1.9 2.3-11.8 2.3-11.9s-3.8 6.1-10.4 6.1c-1.7-.1-3.4-.4-5-1.1-10-4.3-22-29.4-23.6-34.8-1.9-6-9.3-15.6-14.7-20.3-5.5-4.8-13.6-28.8-13.6-37.8 0-8.6 8-16.5 11.5-19.9l.6-.7c3-3 16.7-12.9 16.9-13 0 .6 4.5 62.4 9 79.8 1.1 4.3 2 8.3 2.9 11.8 2.7 11 4.5 18.3 6.5 20.3l3 3.1c-.1-.4-10.5-32.9-10.5-37.1 0-1.4-.6-7.5-1.3-15.3-1.5-15.2-3.8-38.2-3.5-46.6.3-8.5 1.7-17 4-25.2 0 .6 3.4 58.2 8.6 69.9 2.2 5 2.9 10.3 3.5 15.5 1 7.2 1.9 14.7 6.9 21.6 8.9 12.2 23.8 32.5 34.3 34 5.6.9 11.2 1.4 16.9 1.5-.1-.1-10.5-3.9-12-9.2-1-3.6-1.6-7.3-1.9-11.1l6.8 3.5c0-.1-6.8-5.9-9-13.1-3.9-12.3-5.8-25.2-5.6-38.1 0-18.2-4.1-28.6-4.2-28.7l3.8 3.1c0-.3-5.3-32.6-5.6-46.6-.4-14 2.5-16.8 2.6-16.8.1 1.2 18.1 118.7 25.5 144.7 7.4 26.1 16.8 39.8 16.9 39.9-.1-.5-16.6-47.1-22.1-80-5.6-32.6-11.2-75.6-11.6-85.1-.4-9.1 3-14.2 3-14.2 0 .5 11.2 53.7 13 70.7l2 17.2s-.1.2 0 .3c.5 0 2.3-2.5 5.3-7.2 5.9-9.4 10.8-9.5 10.9-9.5-.2.1-11.7 17.7-9.9 30.2 1.9 12.4 7 31.2 11 42.4.7 2 1.8 5.3 3.1 9.6 6.1 19.2 17.4 54.7 26.3 64.1 10.8 11.3 26.5 24.7 26.7 24.9l1.5-13.4s.4-1.2 1.2-1.2c.6 0 1.6.7 2.9 4.2 2.8 7.7 11.9 21.5 18.5 26.8 5.1 4 17 9.7 27.4 9.7 2.1 0 4.3-.3 6.4-.9 8.4-2.8 21.5-16.6 26.7-22.5-2 1.9-4.7 3-7.5 3-6.1 0-12.8-4.7-20-14.2-19.5-25.7-46.3-81.9-50.3-92.1-4.6-11.4-6.5-16-6.5-16l5.6.1c-.4-1.1-41.4-106.8-41.4-115.5s.9-11 .9-11c.2.9 34.3 90.5 53.6 126.4 14.4 26.4 31.7 51.2 51.5 73.8 7.9 8.8 29.7 25.7 32.4 25.7h2.6c-.1-.2-18-12.4-23.2-18.4-2.9-3.2-4.5-7.4-4.5-11.6 0-.5 0-1 0-1.4-.2-.5-3.6-3.9-8.4-8.7-10.2-10.2-27.1-27.2-30.7-34.5q-3-6.2-6.2-12.3c-8.6-17-23.2-45.3-30.3-62.2-9.3-21.9-32.4-85.6-32.7-86.4 3.9 4.3 7.5 8.7 10.8 13.4 3.2 4.4 6.7 16.4 10.1 28 3.3 10.9 6.4 21.1 9 25.5 5.6 9.1 19.9 24.3 20 24.4 0-.1-.3-12.7 1.6-19.1 1.8-6.4 3.4-8 3.4-8 0 .4-.4 38.6 5.6 46.6l2.7 3.7c4.3 5.7 6.9 9 9.7 13.5 1.3 2.1 2.8 4.9 4.2 7.5 2.2 4.2 4.3 8.1 5.9 9.7 2.6 2.7 10.5 12.5 10.6 12.6 0-.1-1.9-7-1.2-11.1.8-3.2 1.9-6.2 3.4-9.1-.6 1.2-4.9 12.6 7.5 23.7 12.8 11.5 26.6 16 35.4 16.4.3 0 .7.1 1 .1 8.1 0 22-4.2 27.2-15.8 5.2-11.7.8-16 .8-16s-2.7 6.5-8.9 6.5c-3.1 0-6.6-1.5-10.3-4.6-14.3-11.8-65.3-94.6-80.9-128.8-16.4-36.1-34.9-79.4-35.3-84l-.4-4.6c0 .1 5.6 7.4 30.9 51.2 33.5 58.1 59.8 92 83 106.7 18.6 11.8 25.2 13.5 27.5 13.5 1.3 0 1.5-.6 1.5-.6-.2-.1-18.1-10-19.9-11.9-.7-.6-.9-2-1-3.6-.3-2.9-.7-6.3-4.3-7.8-1.1-.4-2.2-.8-3.4-1.1-6.4-2-17.2-5.2-28.2-21.4l-13.2-19.7c-.4-.6-41.4-60.2-51.8-85.1-2-4.7-3.9-8.9-5.4-12.4-3-7.1-4.9-11.4-4.5-11.9.9 0 4.7 5 11.3 14 5.9 8 12 17.2 18 26.1 12.1 18.1 23.5 35.3 31.3 40.4l11.6 7.6c-.7-2.6-1.1-5.3-1.1-8s.8-5.4 2.3-7.6c-.1.1-2 8.3 2.1 15.3 2.6 4.3 6.8 7.3 12.9 8.8 5.5 1.3 11.2 2 16.8 2 16.8 0 29.5-6.1 33.2-15.9 5.6-14.7-3.3-29.3-3.4-29.4-.1.1-3.7 9.3-13.1 9.3-3.5 0-7.3-1.2-11.3-3.6-17.9-10.6-54.3-48.9-59.4-59.2-5.1-10.4-38-57-42.5-61.6-2.5-2.5-4.6-5.5-6-8.7.3.4 40.3 41 47.7 50.1s43.7 30.5 59 38.9c4.5 2.6 9.6 3.9 14.8 4 4.4.1 8.8-1 12.7-3.2-.1 0-11.4-.4-18.8-1.9-7.2-1.5-14.8-7.2-15.4-7.6h.7c1.4 0 3.9-.1 4.2-1.1.2-.4 0-1-.8-1.7-1.5-1.4-5-2-9-2.7-5.1-.8-11.4-2-16.2-4.9-8.6-5.3-39.1-31.8-47-41.3-3-3.6-7.5-8.3-11.8-12.8-7.3-7.6-14-14.8-14.5-17.4-.4-1.5-.6-3-.8-4.5.4.4 38.2 34.1 53.4 44.4 15.2 10.2 19.7 11.7 28.5 12.5 2 .2 3.9.3 5.7.3 2.5 0 5.1-.2 7.5-.7-.1-.1-13.9-6.9-14.2-10.7-.2-1.4-.3-2.8-.4-4.2.1.2 14.3 15.4 24 15.7h.7c10.1 0 25.5-9.5 28.4-20.2 3-11 1.1-13.8 1.1-13.8 0-.1-6.5 6.5-10.2 6.5h-4.1c.1 0 7.6-4.3 7.2-9.9-.4-5.7-1.5-7.3-1.6-7.3 0 0-2.2 12-9.6 12-1-.1-1.9-.3-2.8-.6-2.3-.8-4.6-1.7-6.9-2.7-3.3-1.7-7-2.4-10.7-2.2-7.5 0-28.1-14.4-42.9-25.3-6-4.3-15.2-11.7-24.2-18.8-9.5-7.5-18.4-14.5-23.5-18.2-9.6-6.8-18.2-12.7-19.2-13.3 1.8 1.1 32.1 19.9 58.6 32.4 21.3 10.1 36 14.6 47.8 14.6 2.7 0 5.5-.2 8.2-.8 12.3-2.6 16.2-9.1 16.2-9.2-.1 0-10.1 5.7-20.5 5.7h-1l-10.8-.4c.1 0 4.3-1.8 4.7-3.7.1-.5 0-.9-.3-1.2-.1-.3-.4-.4-.6-.4-.5.1-1 .3-1.4.5-2.4 1.2-5.1 1.8-7.8 1.7-5.7 0-13.2-2-22.5-6.1-27.4-12-68.6-37.4-69.1-37.7.4.2 34.3 16 48.1 18.3 6 .9 12 1.4 18.1 1.4 4.7 0 7.8-.3 7.8-.3l-4.2-2.7c2.3 1.2 4.9 1.8 7.5 1.7 3.9 0 7.7-1.1 11-3.1 10.4-6.1 22.2-15.8 18.8-27.6-1.7-6-5.1-11.5-9.8-15.6-.1.2-6.7 18.1-23.1 18.1-1.9 0-3.7-.2-5.5-.6-21.1-4.7-45.3-14.3-51.5-17.9q-5.1-3-10.1-6.2c.2.1 24.4 4.6 40.5 4.6 3.5.1 7.1-.3 10.6-1.1 12.7-3.9 22.3-8.2 27.8-16.4s5.7-11.5 5.7-11.5c-.1.1-7.2 13.7-12.4 14.5-3.5.5-7.1 2.3-10.8 4.3-1.9 1-3.8 2-5.8 2.9-2.8 1.3-10.1 2-19.8 2-5.5.1-11.1-.2-16.7-.8-7.8-1.1-28-2.3-28.2-2.3.2 0 20.5-6.9 30.5-10.7 5.3-2 9.3-6.3 11-11.6 1.1-3.6.9-7-.5-9-3.3-5-10.5-20.5-10.5-20.6-.2.1-9.5 13.8-13.2 22.1-2.4 5.4-9.1 5.4-16.2 5.4-4-.1-8 .3-12 1.1l-10.5 2.7c.2-.2 20.3-15.8 15.1-24.9-3.7-6.3-10.7-10.8-17-10.8-2.1-.1-4 .5-5.7 1.7l-.4.2c-3.8 2.7-6.4 4.5-9.3 4.5-1.9-.1-3.7-.7-5.3-1.7-2.8-1.6-6.1-3.2-9.7-3.2-3.3 0-6.4 1.3-9.5 4-3.5 3-5 7.3-3.8 10.6 1 2.8 3.7 4.4 7.2 4.4.5 0 1 0 1.5-.1 3.8-.4 6.2-1.5 7.2-3.3.6-1 .7-2.2.4-3.2-.1 0-4.9 4-8.5 4-1.8 0-3.1-1-3.6-3.2-.8-3.3-.6-5.9.7-7.6 1.2-1.5 3.2-2.3 6.1-2.3 1.2 0 2.5.2 3.7.4 3.3.7 6.6 1.7 9.7 3.1 3 1.2 5.6 2.3 7.9 2.3.8 0 1.6-.2 2.4-.4.6-.3 1.2-.4 1.8-.4 1.6 0 2.5 1 3.4 2.1.8 1 1.6 1.9 3 2.1h.3c.2 0 .4-.1.6-.3.1-.3-.4-1.1-1.2-2.1-1.2-1.6-2.8-3.7-1.6-4.9.6-.6 2.1-.9 3.9-.9 3.2 0 7.5 1.1 9.7 3.6 1.2 1.4 1.7 3.2 1.4 4.9-1.1 8.2-4.7 11.7-11.3 15.7-4.3 2.7-9.4 4.1-14.6 3.8h-4c3-.7 5.6-2.8 6.7-5.7 1.1-2.8 0-5.9-2.7-7.3 0 .1.2 8.4-8 11.4-2.1.8-4.3 1.5-6.5 2-4.3 1.2-7.5 2.1-10.4 6.1-4.1 5.7-8.6 6.1-8.6 6.1-.1 0 3.7-7.3 0-11.4-1.2-1.4-3-2.2-4.8-2.1-1.8 0-3.5.5-5 1.3.1 0 7.5 3.9 4.9 10.7-1 2.7-7.4 7.2-14.7 12.5-10.8 7.6-24.3 17.1-25.9 25-2.6 12.8-.5 36.5 4.9 41.6 2.9 2.8 8.7 4.7 14.1 4.7 4.4 0 7.5-1.2 8.8-3.5 2.5-4.2 5.6-9.4 9.8-9.4 1.2 0 2.4.3 3.4 1 4.1 2.3 7.4 6.7 10.7 11 1.5 2 3 3.8 4.3 5.4 3 3.2 4.6 9.1 3.8 13.7-.4 2.4-1.5 4.1-3 5-3.3 1.8-7.2 3.7-10.6 3.7-2.2.1-4.2-.9-5.6-2.5-1.3-1.8-3.4-2.9-5.6-2.9-3 0-5.7 2.2-6.9 5.6-2.8 8.6-7.3 13.7-13.4 15.2-2.5.6-4.4 2.5-4.9 5-1.2 4.7.7 11.7 4.1 14.9 1.2 1.1 2.5 2.1 3.8 3.1 3.2 2.4 5.5 4.2 4.4 8.4-1.6 6.1-6.8 15.4-14.7 15.4-.6 0-1.2-.1-1.7-.2-4.3-.7-9-3.9-13.9-7.2-5.6-3.8-11.3-7.7-16.6-7.7h-3c-8.4 0-14.3.4-19.6 6.1-5.2 5.7-9.8 8.6-19.6 8.6-1.6 0-3.3 0-5.2-.2-13.2-1.1-17.8-4.4-21.4-7.6l-3.4-3.1c2.2.8 4.5 1.3 6.9 1.4 3 0 5-1 5.9-2.9 2.6-5.3-2.2-9.9-2.2-10-.1-.1 1.4 4.7-.4 7.2-1 1.2-2.6 1.9-4.1 1.7-1.2 0-2.4-.1-3.5-.4-11.3-3-13.8-6-13.9-6.2 1.4.3 2.7.4 4 .4 2.2 0 4.9-.3 6.2-1.8.6-.7.8-1.6.7-2.4l-.8-5.7c-.1.1-3.4 6.3-7.7 6.3-2.2 0-4.2-1.8-6.1-5.2-6.7-12-6.1-14.9-6.1-14.9 1.4-.9 3-1.5 4.7-1.6 1.7 0 3.4.9 4.3 2.4 3.3 4.9 3.4 5.7 3.4 5.7s2.6-6.9-1.5-10c-1.6-1.2-4.3-1.7-6.9-2.3-3.8-.8-7.5-1.6-8.2-4.5-.6-2.6-.8-5.4-.3-8 .1.1 14.3 5 17.3 10.3 1.8 3 2.8 6.5 3 10 .1 0 4.2-3.1 3.8-6.9-.2-2.1-.8-4.2-1.6-6.2.7 1.2 3.3 3.3 11.7 3.5 2 .1 4.2.1 6.5.1 11.2.1 23.8.1 26.5 6.4.9 1.9 1 3.5.2 4.7-1.5 2.4-5.8 2.5-7 2.5l-.3.1s2 3.7 4.6 3.7c.6 0 1.3-.2 1.8-.7 2.2-1.7 9-7.5 8.6-12.5-.2-1.9-1.3-3.5-3.6-4.7-5.3-2.9-11-4.7-17-5.3.7 0 11-.9 14.3-3.8.5-.5 1.1-1.1 1.7-1.7 2.4-2.7 5.7-6.2 11.9-6.2 2.2 0 4.3.3 6.3 1 3.9 1.2 6.2 3 7 5.5 1.3 3.8-1.7 7.8-1.7 7.9-.1 0 6.4-3.9 5.3-9.6s-8.2-9.9-8.3-10c3.1-.6 6.2-.9 9.4-.9 5.6 0 12.8 1.2 15 7.1 4.1 10.5-7 15.6-7.1 15.6.8 0 10.6-.8 11-10.3.2-6.7-1.8-12.8-5.5-16.6-3-3.2-7.2-4.8-12.3-4.8-7.9 0-15 2.6-20.8 4.7-4.4 1.6-8.2 2.9-11.2 2.9-1.6 0-3.3.1-5 .4-.1-2.6-1.1-16.2 1.3-24.8.7-3.1 1.7-6.2 2.8-9.2-.8 1.2-4.6 7.3-10 8-.7.1-1.4.1-2.1.1-1.2 0-2.5-.1-3.9-.1-1.5-.1-3.1-.2-4.7-.2-4.7 0-10.3.7-11.2 5.9-1.3 7.6-1.1 11.7.4 13.5.7.8 1.7 1.2 2.7 1.1 4.4 0 6.7-1.5 6.7-1.5s-5.6-1.3-6.6-4.3c-.5-1.3 0-2.9 1.4-4.6 2.2-2.4 4.1-3.4 6.5-3.4 1 0 2 .1 2.9.3 1 .2 1.9.3 2.9.3.5 0 1 0 1.6-.2l4.5-1.1c-.1.1-2.3 2.6-4.9 4.9-1.9 1.5-4.1 2.7-6.3 3.5 1.8-.4 3.7-.6 5.6-.7 3.4 0 5.2 1 5.5 2.9.7 4.2 1.7 18.2-12 22.6-9.1 2.9-15 3.3-17.6 3.3-2.7 0-4.4-.4-4.9-1l-1.1-1.5c.8 0 6.7-.6 10.9-7.3 4.5-7.2-1.5-12.5-1.5-12.6 0 .2-.5 13.3-8.3 13.3-1.3 0-2.7.1-4.1.1-1.3 0-2.6 0-4 0-5 0-9.9-.3-12.2-2.4-3.3-3-3.7-4.8-3.7-4.9 1.3.4 2.7.6 4.1.6 2.2 0 5-.6 5.6-3.3 1.1-4.9 0-6.5 0-6.5s-4.6 5.3-8.8 5.3c-1.5 0-2.9-.7-3.7-1.9-4.5-5.6-7.5-18.9-7.5-19 2.4.6 5 1 7.5 1 4.6 0 7.9-1.3 9.8-3.7 4.8-6 4.5-9.1 4.5-9.1 0-.1-8.5 6.6-14.6 6.6-3 0-5-1.6-5.7-4.8-2.9-11.3-1.4-22.4 1.8-25.2 6.8-5.3 17.2-9.7 24.8-10 1.3-7.6-46-9.4 24.6-24.2l27.3-32.8c0-3.5-10.3-11.4-15-13.6-4.6-2.2-20-5-31.7-5-.7 0-1.4 0-2.2 0-6.8.2-14.8 5.7-22.6 11-6.6 4.5-12.9 8.7-18.3 10-4.5 1-9 1.6-13.6 1.7-5.9 0-9.8-1.2-11.2-3.6-2.6-4.1-2.3-11-2.3-11s-3 8.4-1.9 12.6c1.2 4.4 7.7 8.5 11.3 8.8 3.6.4 11.7 1.1 11.7 1.1s-11 8.4-15.1 13.3c-1.1 1.4-2.3 3.1-3.6 4.9-3 4.5-6.2 9.1-10 9.6-1.2.2-2.4.3-3.7.3-2 0-4-.2-6-.6 0 .1 4.5 4.6 7.9 5.4.7.1 1.4.2 2.1.2 1.9 0 3.7-.4 5.4-1-.1.2-8.7 19.6-10.9 29.8-2.5 11.3-4.8 17.4-7.6 20.3-1.8 1.8-3.8 3.4-6 4.9 1.9.9 3.9 1.5 6 1.6.7 0 1.3-.1 2-.5 1-.5 2-1.2 3-1.8-.1.2-4.2 23.7-4.2 28.6s-7.9 12.2-7.9 12.2h.5c1.8 0 7.7.4 7.7 4.2-1.9 11.9-6.1 22-11.6 32-5.5-10-9.8-20.2-11.7-32 0-3.8 6-4.2 7.8-4.2h.5c-.1 0-8-7.3-8-12.2s-4-28.4-4.1-28.6c.9.6 1.9 1.3 3 1.8.6.4 1.3.5 2 .5 2-.1 4.1-.7 5.9-1.6-2.2-1.5-4.2-3.1-6-5-2.8-2.8-5.1-8.9-7.6-20.3-2.1-10.1-10.7-29.5-10.8-29.7 1.7.6 3.6.9 5.4 1 .7 0 1.4-.1 2.1-.2 3.4-.8 7.9-5.3 7.9-5.4-2 .4-4 .6-6 .6-1.2 0-2.5-.1-3.7-.3-3.8-.5-6.9-5.2-10-9.6-1.2-1.8-2.4-3.5-3.6-4.9-4.1-4.9-15-13.2-15.1-13.3 0 0 7.9-.7 11.7-1.1s10.1-4.5 11.3-8.8c1.1-4.2-1.8-12.5-1.9-12.6 0 0 .4 6.9-2.2 11-1.5 2.4-5.4 3.6-11.2 3.6-4.6-.1-9.2-.7-13.7-1.7-5.4-1.2-11.7-5.5-18.3-10-7.8-5.3-15.8-10.8-22.6-11-.8 0-1.5 0-2.2 0zm246.9 111.6.2-.4s-.2.1-.3.4zm248.4 453.4c.7-.6 1.3-1.3 1.9-2-.1 0-.8.7-1.9 2zm-788.4 0c-1.1-1.3-1.8-2-1.9-2 .6.7 1.2 1.4 1.9 2zm248.4-453.4h.1c-.1-.3-.2-.4-.3-.4z" fill="#070707" stroke="#000" stroke-width="2.6" transform="matrix(2.88 0 0 2.88 1643.3876 423.1808)"/><path d="m478.8 713.5c.3-.6.8-1.2 1.5-1.5-.2 1.6-1 3.1-2.2 4.2h-.1z" transform="matrix(2.88 0 0 2.88 1643.4164 423.1808)"/><path d="m631.7 157.8c-4.7 3.1-14-2.6-13.5-4.9.4-2.3 1.3-8.8 10.2-9.7 8.9-1 10.5 2.8 10.5 2.8.3 3.7-2.4 8.7-7.2 11.8zm-241.4-1.1c4.7 3 13.8-2.5 13.4-4.7-.4-2.3-1.3-8.5-10.1-9.5-8.8-.9-10.4 2.8-10.4 2.8-.2 3.5 2.4 8.4 7.1 11.4z" fill="#fff" stroke="#2a2a2a" stroke-width="1.3" transform="matrix(2.88 0 0 2.88 1643.3876 423.1808)"/><path d="m636.5 149.5c0 2-4.4 6.1-7 6.5s-3.3-2.4-1.4-5.7c.9-1.8 2.9-2.9 5-2.8.4-.1 3.5 0 3.5 2zm-250.9-.8c0 2 4.3 5.9 7 6.3s3.3-2.4 1.4-5.5c-1-1.8-2.9-2.9-5-2.8-.4-.1-3.4 0-3.4 2z" transform="matrix(2.88 0 0 2.88 1643.3876 423.1808)"/><path d="m500.3 681.2-.1-.1c0-.2 8.4-20.3 5.2-40.9-3.3-21-16.2-57.6-26-68.7-6-6.9-10.6-14.8-13.7-23.4.2.2 16.4 17.6 23.4 22.7 7.3 5.3 26.6 34.8 27.3 70.1.4 21-5.4 31.4-10.4 36.5-2.8 2.8-5.2 3.8-5.8 3.8zm-291-15.6c-.4-16 .9-32 3.6-47.7 4.6-25.4 33.7-107.5 34-108.3.1.6 5.4 61.8-8.2 90.8-6.2 13.3-12.5 28-17.5 39.8-6.3 14.7-10.8 25.4-11.9 25.4zm149-15.1c-.1-.2-6.7-12.5 1.5-36 7.6-21.9 33.9-43.4 48.9-54.3 10.4-7.6 32.8-34.9 33.1-35.2-.4.8-38.5 75.8-52.7 84.2-13.3 7.8-28.4 22.8-30.8 41.2zm310.6-9.9c-.1 0-13.6-4.9-21-27.6-2.8-8.6-3.9-16-4.9-23.2-1.7-12.3-3.3-24-13.2-40.2-15.6-25.7-47.8-57-48.1-57.4.6.3 62.6 32.5 73.7 70.3 11.1 37.6 14.1 77.4 13.6 78zm-130.5-28.9c-14.7-28.9-19.9-47-7.1-66.2 9.9-14.9 28.1-16.5 35.4-16.5 6.3 0 12.5 1.1 16.5 2.9 5.8 2.5 13 21.2 13 21.4 0 0-4.1-5.9-18.8-10.4-3.3-1-6.7-1.5-10.1-1.5-11.5 0-20.3 6.7-24.3 18.4-5.4 16.3-4.5 51.5-4.5 51.9zm-179.3-35.1-.1-.3c0-4.3 7.1-33.1 19.6-43.6 2.9-2.5 5.7-4.7 8.4-6.9 8.8-7.1 16.4-13.3 24-22.1 9.6-11.4 18.7-50.9 18.8-51.3.2.3 15 27 7.5 47.5-6.7 18.4-31.2 35.5-49.1 47.9-2 1.4-4 2.8-5.8 4.1-8.6 6.1-15.9 13.8-21.6 22.6-1 1.4-1.4 2.1-1.6 2.1zm163.1-55.7c-.1-.1-14.3-12.4-14.9-20.8-.7-8.3 9.6-18.7 9.7-18.8l1.5 1.9c3.3 4.2 11 14.2 11.6 20.1.6 7.1-7.8 17.5-7.8 17.6zm-29.8-7.1q-6.5-.1-13-.7c-7-.6-8.3-3-10.8-7.4l-.2-.4c-2.6-4.5 0-14.2 0-14.3.2.4 2.2 1.1 4.7 1.9 4.9 1.5 12.2 3.8 14.8 7.2 3.8 5.1 4.5 13.5 4.5 13.6zm5.2-28c-.1-.1-10.4-11.1-11-19.4-.6-8.4 9-14.3 9.1-14.3 1.9 0 11.7 7.2 11.7 16.9s-9.7 16.8-9.8 16.9zm33.1-3.9c0-.1 0-17 3.2-24 2.2-4.4 5.6-8.2 9.7-11l3.3.7c.1.2 3.3 22.1 1.3 25.3-1.9 3.3-17.3 9-17.5 9.1zm-58.4-.6c-.2 0-21.5-6.5-22.7-11-1.3-4.5 2.5-17.4 2.6-17.6 1.3.5 2.7 1 4 1.4 5 1.5 12.5 3.8 14.8 7.1 3.2 4.5 1.3 20 1.3 20.1zm98.6-35c-3.4-5.7-4.9-12.3-4.6-18.9.7-10.9 13.5-19.4 13.7-19.4.2-.1.3-.1.5-.1 1.2 0 3.1 1.4 5 3.7 3 3.5 6.3 9.5 5.5 14.6-1.3 8.3-19.9 20-20.1 20.1zm-48.9-3.4c-4 0-8.5-2.5-11.7-6.6-4.2-5.5-5.6-12.7-3.7-19.4 4.5-18.1 11-20.2 11-20.2 13.6 14.3 16.2 24.9 16 31.4-.1 4.8-2.3 9.4-5.9 12.7-1.6 1.4-3.6 2.1-5.7 2.1zm-68-1.8c-.5 0-2.3-.4-7-4.6-5.6-5-11.7-13.4-10.4-20.7 1.3-7.1 14.8-13 15-13 9.6 14.1 2.7 38 2.6 38.3zm25.7-7.2c-6.4 0-13.8-5.5-15.3-16-2.8-18.2 9-24.8 9.1-24.8.5 0 1.7 1 3 2.6 5 5.7 14 19.1 12.6 29.5-.7 5.4-4.3 8.7-9.4 8.7zm-59.9-6.4c-6.9-1.3-15.6-9.5-15.6-16.9 0-7.1 7.7-16.2 7.8-16.3 1 .8 2.1 1.6 3.3 2.2 3.8 2.5 10.2 6.5 13 10.2 3.8 5.1-1.3 21.9-1.3 22zm137.5 0c-.1-.2-17.5-14.4-16.9-24 .4-5.5 1.2-11 2.6-16.3 2.3.8 18.3 9.8 20.2 16.3 1.9 6.4-5.8 23.8-5.8 24z" fill="#141414" fill-rule="evenodd" transform="matrix(2.88 0 0 2.88 1643.3876 423.1808)"/><path d="m512.5 938.7c0-.4 4-36.1 3.2-61.8-.4-13.1 2.8-35.4 3.2-56.7.3-21.1.7-41 .3-52-.7-21.9-3.7-61.5-3.7-61.9.1.4 10.5 48 8.3 99.3-1.2 27.6-3.8 51.4-3.4 70.6.4 16.8 3.7 30.2 2.6 38.8-.9 7.6-3.4 17.9-10.2 23.4-.1.2-.4.4-.4.4zm71.4-48.9c-.3-.2-36.1-18.5-42.1-33.7-5.9-15.1-16.4-37.2-16.5-37.4.3.3 28 34.4 42.9 39 6.9 2.1 14.1 3.2 21.4 3.3 1.6 0 3.2-.1 4.9-.3l-5.3 7 23.3 6c-1.6 0-29-.9-41.4-7.6-7.1-3.7-13.9-8.1-20.3-13 .2.2 11.5 19.2 23.4 22.9 11.9 3.8 26.2 4.6 26.3 4.6l-15 4.7-1.5 4.5zm-132.4 0c.1-.1 8.4-7 18-14.5 3.9-3 8.7-8.4 14.2-16l-.6.7c-7 7.9-29.8 19.2-43.6 19.9-14.1.7-30.7 7.6-30.9 7.6 0-.1 7-10 23.3-13.8 16.4-3.8 21.8-9.1 21.8-9.1l-15-6.9c5.1 1.2 10.3 1.7 15.5 1.8 8.3 0 19.9-1.8 27.4-10.2 14.2-15.9 31.4-63.8 31.6-64.3.1.1 2.3 10.1.8 26.8-1.5 16.6-8.2 39.5-8.3 39.7l3-38.2c0 .5-14.3 50.6-27 62.7-12.6 12.1-29.9 13.8-30.1 13.8zm40.6-42.8c-.2.5-3.3 5.5-7.5 11.3 3-3.4 5.5-7.2 7.5-11.3zm-76.7-6.1c0-.7-.1-1.4-.2-2-.5-2.8-1.2-6.7 5.5-11.1 6.5-4.1 16.2-4.6 20-4.6h1.8c-.2.2-24.1 8.6-27 17.6zm-58.6-1.6c11.8-6.8 10.5-12.1 10.5-12.2.1 0 8.6 2 9.2 4.9.1.7-.2 1.5-.9 2-4.5 3.7-18.7 5.3-18.8 5.3zm269.5-13.9c-15.3 0-30.6-2.3-45.4-6.7-42.4-12.7-51.5-61.3-51.9-63.4.7 2.6 9 25.1 25.6 42.7 18.9 20.1 70.2 20.6 76 20.6 9.1.1 18.2 1.1 27.1 3.1-.1.1-12.3 3.7-31.3 3.7zm-186.8-5.2c.3-.2 27.2-12.3 33.9-17.6 6.6-5.3 21.8-28.7 22.5-29.8-4.1 4.5-8.6 8.6-13.5 12.3-8.9 6.7-35.1 13.6-35.3 13.7.2-.2 29.4-16.2 41.3-28.3s23.9-40.3 24.1-40.5l-3.7 59.6-.8-29.8c0 .1-7.6 10.2-17.3 31.3-9.7 21.2-50.8 29-51.2 29.1zm-16.5-3.2c-5.4 0-9-2.2-9.5-6-.6-3.7 2.2-8.6 8.3-10.5 6.3 1.5 12.7 2.2 19.2 2.2 22.4 0 37.5-9.2 37.6-9.3-.2.3-28.8 22.3-50.4 23-1.7.4-3.4.6-5.2.6zm170.1-11.1c-2.6.1-5.2-.2-7.7-1l-.6-.2c-11.3-3.8-35-11.8-47.5-42.6.2.2 16.8 23.7 32.4 28.3 2.9.8 5.9 1.3 8.9 1.2 3.7 0 7.5-.5 11.1-1.5 1.4-.4 2.9-.6 4.3-.7.6-.1 1.2.1 1.6.5.4.6.6 1.3.4 2-.2 1.7-1.3 3-3.3 4 6.4-.9 14.8-2.4 19.1-4.7.9-.6 1.9-.9 3-1 .5-.1 1.1.2 1.5.7 1.4 2-.8 7.9-.8 8l15.8.7c-.2.1-23.9 6.3-38.3 6.3zm-13.5-8.6c.4 0 1.7.1 3.4.1 3.2.1 6.3-.4 9.3-1.4q-6.3.8-12.7 1.3zm-86-45.1c-1.3-5.6-1-11.4.8-16.9 3-9 9.7-17.5 9.8-17.5l-10.5 34.5zm57.2 0c-.1-.1-18.1-10.9-19.5-20.7-1.5-9.8-1.6-34.1-1.6-34.4 1.6 17.4 21 54.7 21.2 55v.1zm62.7-41.4c-9.9 0-23.9-1.3-34.8-7.5-12.1-7.1-23.2-15.6-33.1-25.3.4.3 41.3 29.8 56.6 29.8h.6c5.6-.3 8.8-1.4 9.6-3.4.7-2-1.4-4.2-1.4-4.2l10.2-.8c1-2 2.4-3.8 4.1-5.4l-3 5.4-1.1.1c-1.4 3.1-1.8 7.3 4.1 10.6-3.9.5-7.9.7-11.9.7zm-201.7-8.2-.2-.1c1.5-1.1 3.1-2 4.8-2.8 3.6-2.4 7.3-4.7 11.1-6.7 2.2-1.7 4.7-2.9 7.5-3.3 2.6-1 5.4-1.6 8.3-1.8 8.7-.6 17.3-2.4 25.6-5.3-8 6.4-15.4 6.9-25 6.9h-5.2c-1.3 0-2.5.1-3.7.3v-.1c-2.5 1-5 2.1-7.4 3.4-1.2 1-2.3 2.2-3.1 3.5 4.6-1.5 9.4-2.3 14.3-2.6 15.7-.7 31-11.3 32.2-12.2-.7.3-1.4.6-2.1.8 2-1.6 3.8-3.3 5.5-5.1 11.8-12.7 12.8-23.8 12.8-23.9 0 .3-.1 27.7-16.4 41.3-5.6 4.7-8.5 5.6-11.2 5.6-1.6-.1-3.2-.3-4.8-.7-3.4-.9-6.9-1.4-10.4-1.4-6.1 0-13.4 1.3-22.3 3.9.4-2 1.2-4 2.3-5.7-2.8.9-5.4 1.9-8 3.2l-.7.5c-2.1 1.4-3.4 2.4-3.8 2.4zm471.5-17.2c-4.9 2.4-28.9-29.4-60.9-84.6s-50.2-186.8-50.4-188.1c.4-.1.9-.7 1.3-1.4.7-.9 1.4-1.9 2.3-1.9 2.9 0 8.1 8.3 21.3 80.5 18.6 102 84.4 195.2 85.1 196.1zm-709.3-22.2c.1-.1 4.9-4.6 18.1-31.3 8.1-16.5 14.6-39.6 23-68.9 5.2-18.5 11.2-39.5 18.5-61.9 18.4-56.7 26.5-64.3 26.6-64.4.6.4.1 1.8-2.2 8.1-4 11.2-13.4 37.4-32.4 100.6-29.4 98.3-51.3 117.6-51.5 117.8zm398.2-29.9c-.9 0-1.7-.1-2.6-.4 3.4-2.8 4.7-7.1 5.9-11.3 1.6-5.3 3-10.3 8.4-12.4 1.8-.7 3.6-1.1 5.5-1 7.8 0 14.8 5.5 14.9 5.5-.2.1-13.6 1-20.3 11.6-4.2 6.6-8.7 8-11.8 8zm333.7-47c-.5-.3-53-35.5-85-128.4-23.3-67.7-24.5-84.7-23.1-88.8l-.2-.7c.4.3.4.3.3.7 5.7 15.3 55.1 146.7 78 173.6 23.7 28 30 43.4 30.1 43.6v.1zm30.8-7.6c1.7-.8-3.9 0-15.8-3.1-10.5-2.7-36.8-50.3-60.1-92.3-3.3-6.1-6.6-12.1-9.8-17.8-25.3-45.3-38.3-109.4-38.4-110.1 57.3 139.1 123.6 222.6 124.3 223.4l-2.9 1.1zm-197.1-9.2c-.2-.4-21.1-41.7-24.8-78.8-2.2-22.6-2-45.4.8-68 .1 1 6.2 106 24.1 146.8zm-629.6-2.7c-.2 0-.3-.1-.4-.3.5-.7 46-68 63.8-106 20.2-42.8 32.3-65.4 40.5-75.7 7.6-9.5 19.4-10.3 22.9-10.3h1c-.1.2-17 14.5-62.2 95.7-44.1 79.4-63.2 96.6-65.6 96.6zm191.4-12.9c-.1-.1 0-.6.1-1.1s.2-1 .1-1.5c1.8-3 12.2-29 12.8-43.7.2-6.8-.4-16.6-1-26-.8-11.8-1.5-23-.6-28.6 1.5-10.2 6.8-22.1 6.9-22.2 0 .3-3.2 31.5-2.6 40.5.6 11.8 1.2 58.4-8.6 73-5.6 8.5-6.7 9.7-7 9.7zm401.4-112.9c-.2 0-21.2-.2-30.1-16.1-6.9-12.2-3.2-30.3-1.3-37.8-3 6.3-9.1 17.4-16.8 22.8-4.7 3.3-10.4 5-16.1 4.9-2.7 0-5.3-.3-7.9-1 0-.1 2.6-6.6 7.1-10.4 2.5-2.1 12.8-7.8 21.9-12.8 5.9-3.2 10.9-6 12.9-7.2l.2-.6v.4c.2-.1.4-.3.6-.4-.2.4-.4.9-.6 1.4.2 4.1 1.1 18.1 6.8 27.7 6.7 11.3 20.9 17.5 21 17.6.1 0 1.5-1 5.2-12.2 3.7-11.3-5.1-37.2-5.2-37.5.6 0 2.5 1.4 4.6 3.7 3.3 3.4 11 12.9 10.4 25.4-.7 16.6-12.6 32-12.8 32.1zm-30.3-57.6c-.1.6-.5 1.7-.9 3.2.5-.9.8-1.7 1.1-2.4v-.9zm-433.6 39.8c.1-.2 8.7-22.9 25-41 14.8-16.5 22.7-17.4 24.2-17.4h.3c-11.4 6.5-16 16.3-21.5 27.6-1.4 3-2.9 6.1-4.6 9.2-7.9 15-23.2 21.6-23.4 21.7zm140.8-.7c-.1 0-18.4-4-20.4-19.2-1.9-15.1 1.9-31.7 2-31.9 12.5 21.5 18.4 50.8 18.5 51.1zm317-.6c-.2-.4-.7-.9-1.2-1.5-3.5-4.3-10.8-13.3-10.8-25.3 0-13.6 3-31.9 3-32.1.2.3 13.5 30.1 9.1 58.9zm258.5-1.3c-4 0-14.7-2.2-41.8-17.1-37.2-20.4-71.1-93.3-71.5-94 1.5 0 7.3 7.2 38.4 48.1 32.7 43.1 76.3 62.5 76.7 62.7 0 .1-.4.3-1.8.3zm-860.4-.6c4.4-8.5 13.4-18 23-28.1 8.6-9.2 17.5-18.6 23.8-28.1 13.1-19.8 45.9-63.3 46.2-63.8-.1.4-19.2 40.8-34.5 61.6-15.2 20.9-58 58-58.5 58.4zm656.1-9.6c-.1-.1-13.6-12.3-18-17.6-4.5-5.3-4.5-22-4.5-22.2 0 .9.6 1 1.7 1.2 2 .5 5.8 1.4 11.1 7.2 8.2 9.1 9.8 31.2 9.8 31.4v.1zm-433.3-2.8c-.1-.1-8.4-12 .5-24.3 8.9-12.4 22.7-32.3 22.9-32.5 0 .2-.6 15.9-7.4 27.6-3.2 5.5-6.7 12.3-9.5 17.8-3.4 6.6-5.9 11.4-6.5 11.4zm128.3-6.3c0-.2.9-18.4-4.5-22.9-.4-.3-.8-.5-1.3-.5-1.9 0-2.8 4.5-3.8 9-.9 4.4-2 9.3-4 9.3-.3-.1-.7-.2-1-.4-3.9-2.6-4.6-9.4-5-13.5 0-1-.1-2-.5-3 .1-.2 5.5-17.5 8.3-22 .3-.7.9-1.1 1.6-1 3.1 0 8.6 6 13 10.7 1.3 1.4 2.5 2.7 3.8 4 5.4 5.5-6.3 30.1-6.4 30.3zm293-37.5c.3 0 20.4 3.2 20.4 17.6 0 14.3-6 18.3-6 18.3zm-150.7 35.7c-.2-.2-18.3-21.3-12.9-34 0-.1 2.1-6.1 8.4-6.1 1.2 0 2.4.2 3.6.6 4.3 1.3 6.8 4.9 8.1 7.7 2.8 5.8 3.3 13.4 1 18.9-3.6 9.1-8.2 12.8-8.2 12.9zm-192.7-14.7c-2.7-2.5-4.2-6-4.2-9.7-.1-7.4 5-15.6 15.2-24.3zm117.1-1.6c-.2 0-.4-.1-.6-.2 0-.1 5.5-11.1 6.4-21.1.5-6.5.2-12.9-.9-19.3.2.1 12.9 9.3 13.8 18.4.5 4.8-4 10.4-6.6 13.4-4.3 4.8-9.8 8.8-12.1 8.8zm-22.6-3.9c-.2-.2-15.6-23.1-14.7-33 .4-5.7 3.9-10.7 9.2-12.9.4.5.9 1.1 1.4 1.7 2.5 2.8 6.5 7.5 8.7 19.4 1.7 8.6.1 17.4-4.6 24.8zm-75.3-35.8h.6c1.4 0 6.4.3 8.7 3.6 1.6 2.4 1.6 5.8 0 10.2-5.5 14.5-20.1 21.1-20.2 21.1zm135.8 33.8c-5.9 0-10.4-5.2-11-12.7-.9-11.8 10.9-24.6 11-24.8-2.6 10.9 2.8 26.5 2.8 26.6l7.3-19.2c.2.1 9.1 14.8 0 24.8-3.1 3.4-6.6 5.3-10.1 5.3zm-44-3.5c0-.1-2.7-11.1-2.7-19.3 0-4.8 2.9-9.1 7.3-11 3.7 10.9-4.4 30.1-4.5 30.3v.1zm-237-1.6c-.1-.1-14.3-12.4-13.5-29.8.7-17.4 22.3-18.4 22.5-18.4.3 0 .2 0 .3.3.5 1.2-.1 5.6-4 8.9-2.8 2.4-4.8 8.2-5.7 10.9 2.1-2.4 7-5.8 10.8-5.8 1.7-.1 3.3.9 4 2.5 1.7 4.1 4.3 7.7 7.5 10.7 0 .1-1.6 3.9-9.8 7.7s-12 12.9-12 13zm-.5-27.9c-.5.5-.9 1.2-1 1.9 0 .4.1.4.1.4.3-.6.5-1.3.7-2zm509-2.7c.1-.1 6.1-4.6 13-4.6 3.2 0 6.3 1 8.9 3 9.7 7.6 6 21.3 6 21.5zm-323.8 19.4s-6.3-2-7.8-6.9c-.9-3.1.1-6.6 3.2-10.6 10-12.7 5.6-22.8 5.5-22.9 11.9 18.1-.7 40.2-.8 40.4zm158.7-.9c-.3-.1-31.2-10.2-31.2-17.5 0-7.2 5.5-14.6 5.5-14.7 27.3 9.1 25.8 31.9 25.8 32.1zm159-24.6c-2.2-12.1-18.6-45.5-18.8-45.9h.6c8.3 0 12.6.9 13.3 2.6.5 1.2-1.1 2.8-2.5 4.2-.5.5-1 1-1.5 1.6-.2.3-.3.7-.2 1 .5.9 3.1 1.5 7.1 1.5 3.5 0 7-.4 10.4-1 .2-.1.4-.1.6-.1 3.8 0 6.3 7.1 6.3 13.8 0 4.1-1 8.6-4 8.6-.2 0-.4-.1-.6-.1s-.4-.1-.6-.1c-6.9 0-7.7 25.8-7.7 26zm-242.5 9.9c-2.2-6.3-4.1-12.8-5.5-19.3-2.7-11.8 9.1-17.4 9.2-17.4.1-.1.3-.2.5-.2 2.3 0 8.8 5.7 10.5 16.7 1.8 11.8-14.5 20.1-14.7 20.2zm38-5.3c-.1-.2-12-25.3-7.5-34.4 1.1-2.7 3.8-4.5 6.8-4.6 5.1 0 10.3 4.7 11.3 10 1.4 8-9.4 27.8-10.5 29l-.1.1zm-134.2-2.7h-.7l-3.8-.2c-6.3-.4-10.1-.6-10.1-2 .1-.2 12.3-13.7 16-23.8 3.6-10.2 2.1-13.5 2.1-13.5.1.1 10.1 13 9.1 22.1-.8 6.5-3.4 17.4-12.6 17.4zm78-1.6c-.3-.2-21.3-12.5-22.4-18.4s5.3-16.7 5.3-16.8c.4.4 2.1 2.5 4.3 5.1 4.1 5.3 9.8 12.4 12.3 14.9 3.6 3.7.5 15 .5 15.1zm-38.3-2.2c-.2-.2-11.2-19-11.7-28.1-.6-9.1 7.3-19.9 7.4-20 1.6 1 14.4 24.3 13.9 30.8s-9.5 17.2-9.6 17.3zm-22.9-13.6c.1-5.5-1.1-10.9-3.7-15.7q-1.2-2-2.5-4.1c-2.6-4.1-3.9-6.2-3.9-14.2 0-5.2 1.6-10.9 2.9-15.4.9-3.3 1.7-5.9 1.4-7.1-.2-.3-.4-.5-.6-.8.4 0 .6.3.7.8 2.1 2.7 9 12.1 9 20.8 0 10.2-3.2 35.4-3.2 35.7zm-262.1-3.3s5.3-10.2 8.5-16.2c1.2-2.7 2.3-5.4 3.2-8.3 1.3-4.1 2.7-8.4 4.6-11.1-2.7 1.9-5.3 3.8-7.8 5.9-1.2 1.3-2.6 2.2-4.3 2.8 0-.2-3.1-9.9 1-15.2 4.2-5.4 16.9-12.9 17-13 .4-.8.4-1.6 0-2.3s-1.4-1-2.8-1c-.7 0-1.3 0-2 .1-6.8 1.1-23.7 16.6-23.9 16.8-.1-.1-1.1-10.4 4.2-17.4 5.3-6.9 18.5-20.4 18.6-20.5s.6-.2.5-.3c0-.2-.3-.3-2.2-.3-1 0-2.3 0-4.1.1-3.9.2-10.2 6.6-19 15.5-11.4 11.5-27.1 27.3-45.4 36.9-31.5 16.6-39.3 18.9-39.3 18.9.5-.3 56-33.2 72.3-50.3 11.1-11.6 22-21.8 29.1-28.5 3.6-3.3 6.4-5.9 8-7.7 5.3-5.3 17.5-12.9 17.6-13-.3.2-26.8 7.2-43.6 13.6-14.5 5.5-28 7.3-32.2 7.3-.8 0-1.7 0-1.9-.3.4-.1 29-8.8 51.1-17.3 19.3-7.5 31.5-11.6 40.5-11.6 1 0 2.1.1 3.1.2l9 1.1c0 .1-14.3 6-23.4 9.8-9 3.8-18.5 17.1-18.6 17.3-.1.1 3.3 3.8 12.8 7 5.6 1.9 11.5 3 17.5 3.2-.1.1-10.1 8.2-15.4 8.7s-6.9.6-6.9.6c.5 2.6 1.4 5.1 2.7 7.5 2.1 3.7 6.8 5.4 6.9 5.4 0 0-3.2 7.1-4.8 11.4-1.6 4.2-9.5 19.8-9.6 20 4.4 1.6 8.9 2.4 13.6 2.5 2.3 0 4.6-.3 6.8-.9 9.5-2.7 18.5-11.8 18.6-11.9 0 .2-3.2 18.5-10.6 26-3.3 3.4-7.6 5-13.4 5-2.8-.1-5.5-.3-8.2-.7-1.4-.2-2.7-.4-3.9-.5-.4 0-.7 0-1 0-7.4 0-22.7 4.9-22.9 4.9zm18.6-37.7c-.9.5-1.6 1.2-2.1 2q3.4-2.4 6.8-4.7zm604.6 31.3c-.1-.1-10.6-5.4-18-9.9-.9-.6-1.8-1-2.9-1.1-.4-.1-.8.2-1.1.5-1.2 1.8 1 7.4 1 7.4-5.4-8.4-7.3-14.5-5.6-17.6.7-1.4 2.3-2.1 4.5-2.1 3.3 0 7.7 1.7 11.6 4.4 9.7 6.8 10.6 18.3 10.6 18.4zm136.9-1.6c-.4 0-40.2-8.7-67-35.1-26.8-26.5-50.9-34.3-51.1-34.4 27.4 1.3 38.4 14.5 52.5 29.1 1.4 1.4 4 2.3 5.4 3.7 15.6 15.9 59.7 36.5 60.2 36.7zm-490.6-11.4c0-.2 2.1-26.5-1.1-35.1-.7-1.9-1.8-3.6-3.2-5.1-4-4.9-8-9.9 1.6-33.3.2 0 7.6 2.3 16.6 9.2 8.9 7 7.4 22 7.4 22.2s-8.5 10.8-12.1 17c1.7-6 3.7-14.2 2.5-18.6-2.1-8-9.5-22-9.6-22.2 0 .1-1 10.3.6 17.3.7 2.5 1.8 4.8 3.3 6.9 2.4 4 5 8 2.6 13.6-3.7 8.6-8.5 27.9-8.5 28.1zm116.7 0c-.2-.2-18.7-20-12.8-29.1 1.4-2.1 2.8-3.2 4.2-3.2 3.8 0 6.4 7.7 6.4 7.8 0-.3 1.6-5.9 3.1-5.9 1 0 1.7 2.2 2.2 6.6 1.3 12.9-1.4 22.2-2.7 23.7-.1.1-.2.1-.3.1zm-28.6 0c-1.3 0-9.8-11.6-12.8-18.4-.9-2-.9-4.3-.1-6.3 1.8-4.8 7.5-7.5 9.2-8.3.3-.1.6-.2 1-.2 4.8 0 8.8 15.4 8.8 15.5l-6 17.6zm-59.4-.5c0-.2 3.7-13.1 1.6-19-2.1-5.8-.5-22-.5-22.1.1 0 4.8 1.8 6.4 19.4 1.1 11.8-2.3 17.4-4.4 19.7-.7 1-1.8 1.7-2.9 2zm-3.7-1.1c-1-1.6-2.3-3-3.8-4.2-3.2-2.7-6.7-5.7-6.3-12.6.5-10.2 11.1-23.1 11.2-23.2 0 .1-2.6 10.4-1 21 1.6 10.7 1.6 18.4 0 19zm303.9-11.5c4.4-9-10.4-28.8-10.6-29h.4c2.8 0 19.5.4 23 4.6.7.8.9 1.4.6 1.8-.5 1.2-3.7 1.3-7 1.4-2.4-.1-4.8.1-7.1.6-.5.2-.8.4-.8.6 0 .9 4 2.3 8.6 3.9 5.4 1.9 12.3 4.4 15.5 7 .8.6 1.2 1.3 1 2-1.2 4.2-22.6 7.1-23.5 7.2zm-323-2.6s.5-1.7 1.6-5.9c.3-1.3.9-2.4 1.6-3.5q-1.4 4.8-3.2 9.4zm361.3-3.5s-6.1-2.4-12.8-12.2c-2.5-3.8-5.5-8.3-5.4-8.5.3.1 11.4 9.2 17.5 9.2.3.1.5.1.7 0 6-.7 7.6-.7 7.6-.7s-.2-4.6-8.3-8.4c-5-2.3-10.4-3.8-15.8-4.6-.2-.2-4.4-4.2-3.7-6.1.3-.6 1-.9 2.3-.9 1.8.1 3.5.4 5.2.9l3.8 1c11.8 3.1 18.3 4.8 21 9.7 3 5.3 3 15.2 3 15.3zm-269.3-5.3c-16.3-10.6-12-39.5-12-39.8l6 2.3c.4 3.5 1.3 12.7 1.9 12.7.1 0 .2-.1.4-1.2.7-6 11.2-18.3 11.3-18.4 0 .3 3 24.5-1.5 28.3s-6 16-6 16zm226.1-19.8c-1.5 0-2.8 0-4 0h-2.4c-5.2 0-15.7-23.5-15.8-23.7l17.3-10c0 .1-4.4 7-2.2 13.8 1.2 3.6 7.8 7 13.6 10 5.2 2.7 9.7 5 9 6.8-1.1 2.8-9.4 3.1-15.5 3.1zm72.6-10.8c-5.8-6.4-13-11.3-21-14.5-7.9-3-13.4-10.1-14.4-18.4l27.2 6.1v-8.4l18.8 10.7c-.1 0-.3 0-.4 0h-2.6c-4.9 0-16.5.4-18.8 3.9-1.9 2.9 4.5 9.3 8.4 14.2 2.1 2.7 3.1 5.7 3 6.3zm-306.9-38.2c.1 0 5.1 3.6 8.6 3.6.7 0 1.3-.2 1.9-.6 3-2.2 8.2-12.8 8.3-13 .1 0 .2.1.2.2.4.4.9 2-.2 7.5-1.5 7.6-14.2 29.6-14.3 29.8v.1zm-60.5 21.4c-.2 0-.9-.9-1-1-.2 0-3.4-.2-18.6-4.3-3.6-.8-6.8-3.2-8.5-6.5-3.8-7.4 0-17.8 0-17.9h.5.5c2.1 0 4.5 4.2 7 13 2.6 8.7 5.4 10.7 7.3 10.7.9-.1 1.8-.5 2.5-1.2-.3.2-.6.3-1 .3-.8 0-2.1-.7-3.5-3.9-2.7-5.8-5.3-17.1-5.4-17.3 0-.1 4.5 2.4 13.9 17.3 4.3 6.8 6.4 10.4 6.3 10.7zm407.1-2.2c-.4 0-.9 0-1.3 0-6-.3-15.5-5.1-27.5-11.1-17.7-8.9-39.7-20-61.3-21.8-3.6-.3-7.2-.5-10.7-.5-22.9 0-35.9 6.6-40.4 9.4.2-.4.5-.8.8-1.2 2.9-4 8.8-12.2 25.5-17.7 4.9-1.6 10.1-2.3 15.3-2.3 19.1 0 42.5 10.1 74.4 27 13.5 7.2 27.4 9 38.7 9 8.9 0 13.7-2.4 13.7-2.4-.1.2-12.8 11.6-27.2 11.6zm-773.7-3.2c-5.3 0-7.5-1.3-8.5-2.3-.5-.5-.8-1.2-.7-2 .3.6 3.4 1.3 7.5 1.3 3.2 0 6.4-.4 9.5-1.3 7.2-2.1 43.5-16.7 53.7-22.2 9.4-5 28.8-9.6 31.1-10.2-.6.1-1.3.1-2 .1-3.4 0-9.2-.5-10-4.4-.1-.7.1-1.5.6-2.1 2.7-3.4 14.2-3.9 14.9-3.9-1 0-23.3-1.2-36.7-7.5-13.7-6.4-9.1-18.3-9.1-18.4.1 0 .1 4.4 4.9 10.3 4.1 5.1 6.2 5.8 11.9 7.6l3 1c2.4.8 6.6 1.2 12.8 1.2 5.9 0 12.6-.3 19.1-.7 5.6-.2 10.9-.5 14.9-.5 12.6 0 31.2 10.2 31.4 10.3 0 0 0 1.1-4.3 1.1-1.8 0-3.8-.7-6.5-1.6-5-1.8-10.2-3.1-15.4-3.8-1.3-.2-2.7-.2-4-.2-11.8 0-26.7 5.6-26.9 5.6l6.4 1.6c2 .5 4 .7 6 .7 2.6-.1 5.2-.3 7.8-.6q3.5-.4 6.9-.7.5 0 1 0c8.8 0 24 6.1 26.7 9.8.5.8.7 1.3.5 1.6s-.7.5-1.8.5c-1.9 0-5.1-.5-10.6-1.2q-10.3-1.3-20.6-2.5c-1.8-.2-3.7-.3-5.5-.3-16.8 0-33.5 7.8-51.2 16-11.4 5.3-23.3 10.8-35.3 14-9.1 2.5-16.3 3.7-21.6 3.7zm632.5-4.5c-2.5-3.3-3.3-5.8-2.6-7.9 1.2-3.6 6.6-5.9 16.9-9 3.6-1 7.3-1.5 11.1-1.5 12.7 0 25.6 4.5 25.7 4.6-.1.1-12.7 5.4-24.1 5.4-.8 0-1.5 0-2.2 0-.4 0-.7 0-1.1 0-6 0-8.5 3.2-10.4 5.5-1.1 1.5-2.1 2.7-3.4 2.7-.6-.1-1.2-.3-1.7-.6-1.1-.7-2.5-1.1-3.9-1.2-1.6.1-3.2.8-4.3 2zm-197.3-14.5c-.3 0-1.7-.5-4.4-6.9-3.7-9.1 7.4-23.6 7.6-23.8-.1 3.4-.3 6.7-.7 10-.3.7-.1 1.5.4 2 .5.6 1.2.8 1.9.7 3.1 0 8.1-2.7 8.1-2.7l-12.7 19.9c.1.2.2.4.1.6 0 .1-.1.2-.3.2zm195.7-.8c.5-.4 1-.8 1.5-1.1-.5.8-.9 1.1-1.3 1.1zm-288-9.4c-2.6 0-6.6-1-11.3-5.9-6.8-6.9-17.6-18.3-17.6-18.4.2 0 14 1.2 20.8 9.8 6.8 8.5 10.6 14 10.6 14-.8.4-1.7.5-2.5.5zm313.6-12.8c7.2-17.6 31.6-17.6 43.3-17.6h3.4c13.3 0 39.6-14.4 39.8-14.5l-2.2 5.4c-2.1 5-19.7 13.7-41.4 15.3-20.8 1.5-42.6 11.3-42.9 11.4z" fill="#141414" fill-rule="evenodd" transform="matrix(2.88 0 0 2.88 1643.3876 423.1808)"/><path d="m785.4 849.4c7 0 12.9-3 19.4-9.8 11-11.6 7-28.1 6.9-28.3 0-.1 4.2-5.6 0-11-4.1-5.4-15.8-9.6-16-9.6-.1-.1-2.1-11-5.5-14.5-3.5-3.5-11.7-21.9-11.8-22l6.2.7c3.3.4 4.6 3.7 5.9 6.9 1.1 2.9 2.2 5.5 4.5 5.5 2.7 0 4.7-1.8 6.5-3.5 1.6-1.4 3-2.7 4.6-2.7.5 0 .9.1 1.3.4.4.5.4 1.5.3 2.7-.3 2 .1 4.1 1.2 5.9 1.5 2.2 4.2 2.7 6.2 2.7 2.7-.1 5.3-.8 7.7-2 1.4-.9 3-1.2 4.7-1.2 1.2 0 2.4.2 3.6.5-.3 0-1.4.3-1.4 3.4 0 3.6 4.1 10.4 12.1 10.4h1.1c8.9-.7 10.4-11 10.4-11 3.3.6 5.7 3.5 5.5 6.9 0 6.1-6.8 21.8-6.9 22 .3-.1 22.9-14.7 23.6-31.7s-19.9-26.1-20.1-26.2c0 0 1.3-7.6-5.6-9-.6-.1-1.2-.2-1.8-.2-6.1 0-11.3 5.7-11.4 5.7 0 .1-1 .5-5.2.5-5.7-.1-11.3-.5-16.9-1.2-19.2-2-22.9-5.4-22.9-5.5.3 0 10.4-1.4 11.8-5.5.8-2.4 2.5-4.4 4.8-5.5 1.9 3.5 4.8 6.4 8.3 8.3.7.4 1.5.6 2.4.6 3.8 0 5.3-5.4 5.3-5.4 0-.1 1.8-5.7 5.7-5.7.4 0 .8 0 1.2.2.6.1 1.1.6 1.4 1.1 2.1 4-2 16.6-2.1 16.7.2.2.5.3.8.3 1 0 2.9-.7 5.5-3.7 4.6-5.4 10.2-14.2 4.8-29-4.7-12.8-17.8-13.8-21.7-13.8-.8 0-1.2 0-1.2 0-2.7-2.4-5.7-4.5-9-6.2-.7-.4-1.4-.6-2.2-.6-4.9 0-7.8 10-8.9 13.7-1.4 4.8-2.7 6.2-9 6.2-5.2 0-6.6 1.5-8.9 3.9-.5.5-1 1-1.5 1.6-1.4 1.2-3.2 1.9-5 1.7-1.8 0-3.7-.3-5.4-1l-3.5-1.3c-.4-.2-.8-.3-1.3-.4-3.7-1-11.5-3.2-42.4-36.8-34.2-37.5-60.7-108.8-61-109.6-1 0-17.8 23.7-25.7 40.8-4.2 9-5.4 14.8-3.4 17.1 5.6 6.8 12.2 11.7 19.3 17 1.6 1.2 3.3 2.4 5 3.7 8.5 6.5 24.8 21.8 31.9 32.4 3.1 4.5 6.8 8.7 10.9 12.4 3 2.9 5.5 5.3 7.1 8.2 3.3 6 8.2 12.5 11.1 12.5 2.7 0 7.5 8 7.6 8.2-.3.1-.6.1-1 .1-2-.1-4-.6-5.9-1.5-1.4-.6-2.8-.8-4.3-.8-2.8.1-5.5.6-8.2 1.5 0 0-.6-7.6-2.7-11-1.8-3-5.4-6.1-9.1-6.1-1 0-1.9.2-2.7.6-3.1 1.4-5.6 3.8-7 6.9-.2.1-16 15.3-17.4 33.7-.3 5.1.9 9.1 3.6 12 4.4 4.7 11.4 5.3 14.3 5.3h.9c0-.1-4.8-8.4-4.1-15.2.5-4.1 2.7-7.9 6.2-10.3.4 2 .6 4.1.6 6.2 0 3.5 5 9 11.2 9 3.4 0 5-2.4 6.4-4.8 1.3-2 2.5-3.9 4.7-4.2h.6c.4 0 .9.1 1.2.5.4.5.3 1.5.1 2.6-.1 1-.3 2.1.2 2.7.3.4.8.5 1.3.5 4.2 0 11.1 0 14.6-3.5.9-1 2.2-1.6 3.6-1.7 2 0 4 1.6 5.4 4.5 2.1 4.2 4.2 5.5 9 5.5 4.2 0 4.2 0 6.5 2.3l1.1 1.1c2.1 2 1.9 4.8 1.7 7.9-.2 2.2-.1 4.4.4 6.6.3 1.3.5 2.7.6 4.1.3 3.9.6 7 6.3 7 2.2 0 3.2.2 3.6.8.3.5 0 1.7-.8 3.5-1.4 3.2-2.4 6.6-2.8 10.1-.5 2.9.3 5.8 2.2 8 3.5 4 10.3 4.5 13.1 4.5 1 0 1.6.1 1.8.5.3.6-.6 1.8-1.8 3.3l-.7 1c-1.7 2.2-4.5 9.3-3.8 13.6.1 1.2.8 2.3 1.7 3 1.2.7 2.5 1 3.8 1 4.3 0 9.4-2.4 9.4-2.4l-1.4 7.3c-1.3 7.5-17.8 8.9-18 8.9 0 .1 1.5 6.3 9 7.7 2.6.5 5.1.8 7.7.9z" fill="#780000" transform="matrix(2.88 0 0 2.88 1643.3588 423.1808)"/><path d="m783.8 844.8c5 0 12.2-1.3 17.6-7.3 9.8-10.6 6.5-24.7 6.4-24.8-.7 0-2.7 1.2-4 2.7-.7.7-1.1 1.7-1 2.6.2 1 0 1.9-.5 2.7-.2.3-.6.5-1 .5-.6 0-1.6-.3-2.8-2.2-1.1-1.6-2-2.4-2.8-2.4s-1.2 1-1.2 1c.1 4.8-.5 9.5-2 14.1-2.4 7.7-16 12.1-16.2 12.2 2.4.6 4.9.9 7.5.9zm-3.7-21.4c.6-.1 1.2-.2 1.7-.5 2-.9 4.2-3 6.5-5.3 2.7-2.7 5.8-5.8 9.2-7.3 3.1-1.5 6.5-2.2 9.9-2.3.8 0 1.2 0 1.4-.2.1-.2-1-7.8-5.4-9.8l-4.4-1.9c-.2.1-16.2 12.3-19.2 18-1.7 3.6-2.3 6.8-1.4 8.4.4.5 1 .9 1.7.8zm14-29.2c-1.6-3-2.9-6.1-4-9.3-.6-2.2-3.3-6.3-6.3-11-3.7-5.5-7.8-11.8-9.4-16.3-1.2-3.4-2.7-6.9-4.2-10.2-2-4.6-3.8-8.7-4.1-11.2-.1-1.7-.1-3.4.1-5 .3-4.4.7-9.8-2.1-12.5-.7-.8-2.7-2.3-5.3-4.4-10.5-8.4-35.1-27.8-52-51.7-20.8-29.2-47-85-47.6-87.1-.6.5-9.4 8-11.8 13.1-1.6 3.6 8.1 16.4 17.4 28.7 4.8 6.4 9.4 12.3 12 16.7 4.9 7.8 18.4 23.9 30.4 38.1 7.5 8.9 14.5 17.3 18.7 22.8 3.8 4.9 6.5 10.5 8 16.6.9 3.2 1.4 5 3.5 5 .4-.1.8-.1 1.2-.2.3-.1.7-.1 1-.1 2.9 0 4.3 3.2 5.6 6.1 1 2.4 2 4.7 3.7 4.7 2.6 0 6.6 2.9 8.8 5.5 1.1 1.4 1.6 2.5 1.5 3.3-.1.3-.2.8-.4 1.4-.8 3.2-2.4 9 1.4 10.3 4.4 1.4 7.3 5.3 6.8 9.2v.3c-.5 3.8-.8 6.5 2.5 7.5 2.4.6 5.7 3.1 6.6 5.5.4.9.3 1.9-.2 2.7 1.2 7.2 3.8 9.8 6.1 12.1 1.8 1.7 3.4 3.2 3.7 6.4l5.4 6.4zm65.7-2.4c.1-.2 11.7-10.4 11.7-22.5 0-12-16.5-20.9-16.7-21-7.3 5.8-4.4 18.9-4.4 19s4.5.1 9.8 4.4c5.3 4.4-.4 19.8-.5 20z" fill="#a8121c" transform="matrix(2.88 0 0 2.88 1643.33 423.1808)"/><path d="m839.9 778.6c3.4 0 7.7-2.9 8.1-4.9l.5-2.4c0-.1-2.9-4.5-2-12.7.7-5.1 2.2-10 4.5-14.6 0-.1-.5-5.4-4.8-5.4h-.6c-4.7.4-9.3 8.3-10.3 17.5-1 9-1 20 2.4 22 .7.4 1.5.6 2.2.6zm-22.8-10.1c.5 0 1.1-.2 1.5-.6 1.1-.9 3.1-1.4 5.8-1.4 1.7 0 3.3.1 5 .4 0 0 .5-3.4 1.5-9.3.7-4.1 1.7-8.1 2.9-12.1-.1 0-.3 0-.8 0-5.3 0-35.4-2-43.3-5.9-8.7-4.3-18.5-17.9-18.6-18l.9 2.4c.6 1.5.1 4-.5 6.8-.5 1.7-.8 3.6-1 5.4-.5 4.8 3.9 9.7 3.9 9.7.1 0 1.6-.1 3.7-.1 4 0 9.2.5 11 2.6 2.1 2.4 4 7.4 5.2 10.7.5 1.3.9 2.3 1.2 2.9.1.2.3.4.6.3 2.4 0 10.1-7.5 11.7-9.1.4-.5 1.1-.9 1.8-1 2.2 0 3 5.1 3 8.3 0 3.6 2 8 4.4 8zm-142.2-21.6c0-.1.7-14.6 12.3-20.9 0-.1 2.9-8.3.5-12.2l-2.5-3.9c-.2.2-16.7 17.7-15.7 27.3.9 9.7 5.4 9.8 5.4 9.8zm160-12.7c.1-.1 10.4-4.4 5.3-22.4-4-14.2-14.2-15.7-18.4-15.7-.7 0-1.4 0-2.1.1 7.5 7.6 4.1 23.7 4.1 23.8 2.1-1.6 4.7-2.5 7.4-2.4h.9c.8.1 1.5.4 1.9 1 2.9 3.6.9 15.4.9 15.5z" fill="#a8121c" transform="matrix(2.88 0 0 2.88 1643.3588 423.1808)"/><path d="m786.4 730.7c.1 0 9.4 0 13.2-5.1 1.7-2.3 3.7-4.3 6.1-5.8.9-.6 1.3-.9 1.2-1.2 0 0-3.2-5.8-4.9-10l-1.7-4.1c-.1.1-3.6 5.5-9 5.5-4.8 0-6.5 1.6-8.9 3.8l-1.2 1c-3.1 2.8-10.3 2.8-10.4 2.8 1.5 1.4 2.9 2.9 4.2 4.5 2.7 3.4 11.3 8.6 11.4 8.6zm30.3-4.6c2-.2 3.8-1.1 5-2.6 0-.1.7-11.5-.7-17.2-1.3-5.8-5.4-11.7-9.7-14.2-.4-.2-.8-.3-1.2-.3-3.9 0-8.5 9.2-8.5 9.3-.1.1 9.4 19.7 12.1 23.4.7 1 1.8 1.6 3 1.6z" fill="#a8121c" transform="matrix(2.88 0 0 2.88 1643.3588 423.2096)"/><path d="m772.1 799.8c3.5-.1 6.7-1.8 8.7-4.6 2-2.9 0-6.4 0-6.4-.1.1-.3.2-.6.2-.8 0-2-1.4-3.7-3.4l-.6-.7c-.9-1.1-1.4-3-2.1-5.4-1.1-3.8-2.5-8.7-6.2-11.2-3-2-3.3-5.3-3.6-8.6s-.6-6.3-3.3-7.9c-3.4-2.2-4.5-7.2-5.4-11.5-.3-2.3-1-4.5-1.9-6.5-1.3-2.3-3.8-2.6-6.1-2.9s-4.2-.6-4.7-2.5c-1-3.9-3.9-8.8-7.4-10.2-3-1.3-5.3-6.8-7.5-12.1l-.8-2c-2.5-6-15.8-21.5-27-33.2-11.6-12-27.6-33.4-32.4-41.4-4.8-8.2-23.8-30.9-24-31.1-.1.2-5.2 26 8.3 36 14.2 10.6 45.9 40.8 50.5 48.3 4.9 7.7 19.1 23.3 26.5 29.7 2 1.7 2.8 3.2 2.3 4.5-.7 2-4.3 2.9-7.3 2.9-1.4 0-2.9-.2-4.3-.6-1.1-.5-2.3-.7-3.6-.7-1.4 0-2.9.3-4.3.7-2.2.6-4.5.9-6.8 1-5.5 0-6-4.5-6.4-9.2-.1-1.2-.2-2.3-.4-3.5-.3-2.3-2.3-4.1-4.6-4.1-1-.1-2 .3-2.7 1.1-.3.6-.4 1.3-.1 2 1.4 3.7 1.9 13.2 2.4 22.3v1.1c.2 3.8 1.6 5.7 4.2 5.7 2.2 0 4.8-1.3 6.8-2.4l.8-.4c.8-.4 1.6-.8 2.3-1.2 2.8-1.5 5.8-3.2 8.6-3.2.8 0 1.6.2 2.3.5 1.5.9 2.6 2.1 3.3 3.6 1.1 1.7 2.1 3.4 4.4 3.4.4 0 .8-.1 1.2-.1 1.3-.3 2.6-.5 4-.5 3.1 0 5.2 1.1 7.2 3.9 2.1 2.7 4.6 3.4 7.9 4.5 2 .7 4 1.4 5.9 2.3 5.7 2.6 8.7 8.6 9.3 18.5.5 8.9 6.1 10.3 9.8 11.2.8.2 1.3.5 1.5.9.3.7-.2 1.7-.9 2.9-.8 1.4-1.3 2.9-1.6 4.4-.2 1.4-.5 2.8-.8 4.2-.9 3.7-2 8.4-.7 10.4.4.5.9.9 1.5 1 .7.2 1.4.3 2.1.3z" fill="#850e17" transform="matrix(2.88 0 0 2.88 1643.3588 423.1808)"/><g stroke="#9c7c4b" stroke-miterlimit="6"><circle cx="3436.2164" cy="869.2064" fill="none" r="245.6064" stroke-width="10.224"/><circle fill="url(#b)" r="76.06" stroke-width="3.55" transform="matrix(2.0448 -2.0448 2.0448 2.0448 3436.2164 866.816)"/><circle cx="2799.6212" cy="869.2064" fill="none" r="245.6064" stroke-width="10.224"/><circle fill="url(#c)" r="76.06" stroke-width="3.55" transform="matrix(2.0448 -2.0448 2.0448 2.0448 2799.6212 866.816)"/></g><path d="m238.6 849.4c-7 0-12.9-3-19.4-9.8-11-11.6-7-28.1-6.9-28.3 0-.1-4.1-5.6 0-11s15.8-9.6 16-9.6c.1-.1 2.1-11 5.5-14.5s11.7-21.9 11.8-22l-6.2.7c-3.3.4-4.6 3.7-5.9 6.9-1.1 2.9-2.2 5.5-4.5 5.5-2.7 0-4.7-1.8-6.5-3.5-1.6-1.4-3-2.7-4.6-2.7-.5 0-.9.1-1.3.4-.5.5-.4 1.5-.3 2.7.3 2-.1 4.1-1.2 5.9-1.5 2.2-4.2 2.7-6.2 2.7-2.7-.1-5.3-.8-7.7-2-1.4-.9-3.1-1.2-4.7-1.2-1.2 0-2.4.2-3.6.5.3 0 1.4.3 1.4 3.4 0 3.6-4.1 10.4-12.1 10.4-.3 0-.7 0-1.1 0-8.9-.7-10.4-11-10.4-11-3.3.6-5.7 3.5-5.5 6.9 0 6.1 6.8 21.8 6.9 22-.3-.1-23-14.7-23.6-31.7-.7-17 19.9-26.1 20.1-26.2 0 0-1.3-7.6 5.6-9 .6-.1 1.2-.2 1.8-.2 6.1 0 11.3 5.7 11.4 5.7 0 .1.9.5 5.2.5 5.7-.1 11.3-.5 16.9-1.2 19.2-2 22.9-5.4 22.9-5.5-.3 0-10.4-1.4-11.8-5.5-.8-2.4-2.5-4.4-4.8-5.5-1.9 3.5-4.8 6.4-8.3 8.3-.7.4-1.5.6-2.4.6-3.7 0-5.3-5.4-5.3-5.4 0-.1-1.8-5.7-5.7-5.7-.4 0-.8 0-1.2.2-.6.1-1.1.6-1.4 1.1-2.1 4 2 16.6 2.1 16.7-.2.2-.5.3-.8.3-1.1 0-2.9-.7-5.5-3.7-4.6-5.4-10.2-14.2-4.8-29 4.7-12.8 17.8-13.8 21.7-13.8h1.2c2.7-2.4 5.7-4.5 9-6.2.7-.4 1.4-.6 2.2-.6 4.9 0 7.8 10 8.9 13.7 1.4 4.8 2.7 6.2 9 6.2 5.2 0 6.6 1.5 8.9 3.9.5.5 1 1 1.5 1.6 1.4 1.2 3.2 1.9 5 1.7 1.8 0 3.7-.3 5.4-1l3.5-1.3c.4-.2.8-.3 1.3-.4 3.7-1 11.5-3.2 42.4-36.8 34.2-37.5 60.7-108.8 61-109.6 1 0 17.8 23.7 25.7 40.8 4.2 9 5.4 14.8 3.4 17.1-5.6 6.8-12.2 11.7-19.3 17-1.6 1.2-3.3 2.4-5 3.7-8.5 6.5-24.8 21.8-31.9 32.4-3.1 4.5-6.8 8.7-10.9 12.4-3 2.9-5.5 5.3-7.1 8.2-3.3 6-8.2 12.5-11.1 12.5-2.7 0-7.5 8-7.6 8.2.3.1.7.1 1 .1 2-.1 4-.6 5.9-1.5 1.4-.6 2.9-.8 4.3-.8 2.8.1 5.6.6 8.2 1.5 0 0 .6-7.6 2.7-11 1.8-3 5.4-6.1 9.1-6.1 1 0 1.9.2 2.7.6 3.1 1.4 5.5 3.8 7 6.9.1.1 16 15.3 17.3 33.7.4 5.1-.8 9.1-3.5 12-4.4 4.7-11.4 5.3-14.3 5.3-.3 0-.6 0-.9 0 0-.1 4.8-8.4 4.1-15.2-.5-4.1-2.7-7.9-6.2-10.3-.4 2-.6 4.1-.6 6.2 0 3.5-5 9-11.2 9-3.4 0-4.9-2.4-6.4-4.8-1.3-2-2.5-3.9-4.7-4.2-.2 0-.4 0-.6 0-.4 0-.9.1-1.2.5-.4.5-.3 1.5-.1 2.6.2 1 .3 2.1-.2 2.7-.3.4-.8.5-1.3.5-4.2 0-11.1 0-14.6-3.5-.9-1-2.2-1.6-3.6-1.7-2 0-4 1.6-5.4 4.5-2.1 4.2-4.2 5.5-9 5.5-4.2 0-4.2 0-6.5 2.3l-1.1 1.1c-2.1 2-1.9 4.8-1.7 7.9.2 2.2.1 4.4-.4 6.6-.3 1.3-.5 2.7-.6 4.1-.3 3.9-.6 7-6.3 7-2.2 0-3.2.2-3.6.8-.3.5 0 1.7.8 3.5 1.4 3.2 2.4 6.6 2.8 10.1.5 2.9-.3 5.8-2.1 8-3.6 4-10.4 4.5-13.2 4.5-1 0-1.6.1-1.8.5-.3.6.6 1.8 1.8 3.3l.7 1c1.7 2.2 4.5 9.3 3.8 13.6-.2 1.2-.8 2.3-1.7 3-1.2.7-2.5 1-3.8 1-4.3 0-9.4-2.4-9.4-2.4l1.4 7.6c1.4 7.4 17.9 8.9 18 8.9 0 .1-1.4 6.3-9 7.6-2.5.6-5.1.9-7.7.9z" fill="#780000" transform="matrix(2.88 0 0 2.88 1643.3876 423.2096)"/><path d="m240.2 844.8c-5 0-12.2-1.3-17.6-7.3-9.7-10.6-6.5-24.7-6.4-24.8.7 0 2.8 1.2 4 2.7.7.7 1 1.7.9 2.6-.2 1 0 1.9.5 2.7.3.3.7.5 1.1.5.6 0 1.6-.3 2.8-2.2 1.1-1.6 2-2.4 2.8-2.4s1.2 1 1.2 1c-.2 4.8.5 9.5 2 14.1 2.4 7.7 16 12.1 16.1 12.2-2.4.6-4.9.9-7.4.9zm3.7-21.4c-.6-.1-1.2-.2-1.7-.5-2-.9-4.2-3-6.5-5.3-2.7-2.7-5.8-5.8-9.2-7.3-3.1-1.5-6.5-2.2-9.9-2.3-.8 0-1.2 0-1.4-.2 0-.1 1-7.8 5.4-9.8l4.4-1.9c.2.1 16.3 12.2 19.2 18 1.8 3.5 2.3 6.8 1.4 8.4-.4.5-1 .9-1.7.8zm-14-29.2c1.6-3 2.9-6.1 4-9.3.6-2.2 3.3-6.3 6.3-11 3.7-5.5 7.8-11.8 9.4-16.3 1.2-3.4 2.7-6.9 4.2-10.2 2-4.6 3.8-8.7 4.1-11.2.1-1.7 0-3.4-.1-5-.3-4.4-.7-9.8 2-12.5.8-.8 2.8-2.3 5.4-4.4 10.5-8.4 35.1-27.8 52-51.7 20.8-29.2 47-85 47.6-87.1.6.5 9.4 8 11.8 13.1 1.6 3.6-8.1 16.4-17.5 28.7-4.8 6.4-9.3 12.3-12 16.7-4.8 7.8-18.3 23.9-30.3 38.1-7.5 8.9-14.6 17.3-18.7 22.8-3.8 4.9-6.5 10.5-8 16.6-.9 3.2-1.4 5-3.5 5-.4-.1-.8-.1-1.2-.2s-.7-.1-1-.1c-2.9 0-4.4 3.2-5.6 6.1-1 2.4-2 4.7-3.7 4.7-2.6 0-6.6 2.9-8.8 5.5-1.1 1.4-1.6 2.5-1.5 3.3.1.3.2.8.4 1.4.8 3.2 2.4 9-1.4 10.3-4.4 1.4-7.3 5.3-6.8 9.2v.4c.5 3.7.8 6.5-2.5 7.4-2.4.7-5.7 3.2-6.6 5.6-.4.9-.3 1.9.2 2.7-1.2 7.2-3.8 9.7-6.1 12-1.8 1.8-3.4 3.3-3.7 6.5l-5.4 6.4zm-65.7-2.4c-.1-.2-11.7-10.4-11.7-22.5 0-12 16.5-20.9 16.6-21 7.4 5.8 4.5 18.9 4.5 19s-4.5.1-9.8 4.4c-5.3 4.4.4 19.8.5 20z" fill="#a8121c" transform="matrix(2.88 0 0 2.88 1643.3876 423.1808)"/><path d="m184.1 778.6c-3.4 0-7.7-2.9-8.1-4.9l-.5-2.4c0-.1 2.9-4.5 2-12.7-.7-5.1-2.2-10-4.5-14.6 0-.1.5-5.4 4.9-5.4h.5c4.7.4 9.3 8.3 10.3 17.5 1 9 1 20-2.4 22-.7.4-1.5.6-2.2.6zm22.8-10.1c-.5 0-1.1-.2-1.5-.6-1.1-.9-3.1-1.4-5.8-1.4-1.7 0-3.3.1-5 .4 0 0-.5-3.4-1.5-9.3-.7-4.1-1.7-8.1-2.9-12.1h.1.8c5.3 0 35.3-2 43.2-5.9 8.8-4.3 18.6-17.9 18.7-18l-1 2.4c-.6 1.5-.1 4 .5 6.8.4 1.8.8 3.6 1 5.4.5 4.8-3.9 9.7-4 9.7-.1 0-1.6-.1-3.6-.1-4 0-9.2.5-11 2.6-2.2 2.4-4 7.4-5.3 10.7-.4 1.3-.8 2.3-1.1 2.9-.1.2-.4.4-.6.3-2.4 0-10.2-7.5-11.7-9.1-.5-.5-1.1-.9-1.8-1-2.2 0-3.1 5.1-3.1 8.3 0 3.6-2 8-4.4 8zm142.2-21.6c0-.1-.7-14.6-12.3-20.9 0-.1-2.9-8.3-.5-12.2l2.5-3.9c.2.2 16.7 17.7 15.7 27.3-1 9.7-5.4 9.8-5.4 9.8zm-160-12.7c-.1-.1-10.4-4.4-5.2-22.4 4-14.2 14.1-15.7 18.3-15.7.7 0 1.4 0 2.1.1-7.5 7.6-4.1 23.7-4.1 23.8-2.1-1.6-4.7-2.5-7.4-2.4h-.9c-.8.1-1.5.4-1.9 1-2.9 3.6-.9 15.4-.9 15.5z" fill="#a8121c" transform="matrix(2.88 0 0 2.88 1643.3876 423.1808)"/><path d="m237.6 730.7c-.1 0-9.4 0-13.2-5.1-1.7-2.3-3.7-4.3-6.1-5.8-.8-.6-1.3-.9-1.2-1.2 0 0 3.2-5.8 4.9-10l1.7-4.1c.1.1 3.6 5.5 9 5.5 4.8 0 6.6 1.6 8.9 3.8l1.2 1c3.1 2.8 10.3 2.8 10.4 2.8-1.5 1.4-2.9 2.9-4.2 4.5-2.7 3.4-11.3 8.6-11.4 8.6zm-30.3-4.6c-2-.2-3.8-1.1-5.1-2.6 0-.1-.7-11.5.7-17.2 1.4-5.8 5.4-11.7 9.7-14.2.4-.2.8-.3 1.3-.3 3.9 0 8.4 9.2 8.5 9.3 0 .1-9.4 19.7-12.2 23.4-.6 1-1.8 1.6-3 1.6z" fill="#a8121c" transform="matrix(2.88 0 0 2.88 1643.3588 423.2096)"/><path d="m252 799.8c-3.5-.1-6.8-1.8-8.8-4.6-2-2.9 0-6.4 0-6.4.2.1.4.2.6.2.9 0 2.1-1.4 3.8-3.4l.5-.7c.9-1.1 1.5-3 2.1-5.4 1.1-3.8 2.5-8.7 6.3-11.2 3-2 3.3-5.3 3.6-8.6s.6-6.3 3.2-7.9c3.4-2.2 4.5-7.2 5.4-11.5.4-2.3 1-4.5 2-6.5 1.2-2.3 3.8-2.6 6.1-2.9 2.2-.3 4.2-.6 4.7-2.5 1-3.9 3.8-8.8 7.3-10.2 3-1.3 5.3-6.8 7.5-12.1l.8-2c2.5-6 15.8-21.5 27-33.2 11.7-12 27.7-33.4 32.4-41.4 4.9-8.2 23.8-30.9 24-31.1.1.2 5.3 26-8.3 36-14.2 10.6-45.8 40.8-50.5 48.2-4.9 7.8-19.1 23.4-26.5 29.8-2 1.6-2.8 3.2-2.3 4.5.7 2 4.3 2.9 7.3 2.9 1.5 0 2.9-.2 4.3-.7 1.1-.4 2.3-.6 3.6-.6 1.4 0 2.9.2 4.3.6 2.2.7 4.5 1 6.8 1 5.5 0 5.9-4.4 6.4-9.1.1-1.2.2-2.4.4-3.5.3-2.4 2.3-4.1 4.7-4.2 1 0 1.9.4 2.6 1.2.4.6.4 1.3.1 2-1.4 3.7-1.9 13.2-2.4 22.3v1.1c-.2 3.8-1.6 5.7-4.2 5.7-2.2 0-4.8-1.3-6.8-2.4l-.8-.4c-.8-.4-1.6-.8-2.3-1.2-2.7-1.5-5.8-3.2-8.6-3.2-.8 0-1.6.1-2.3.5-1.5.8-2.6 2.1-3.3 3.5-1.1 1.8-2.1 3.4-4.4 3.4-.4 0-.8 0-1.2-.1-1.3-.2-2.6-.4-4-.4-3.1 0-5.2 1.1-7.2 3.8-2.1 2.8-4.6 3.5-7.9 4.6-2 .7-4 1.4-5.9 2.3-5.7 2.6-8.7 8.6-9.3 18.4-.5 9-6.1 10.4-9.8 11.3-.8.2-1.3.5-1.5.9-.3.7.2 1.6.9 2.9.8 1.3 1.3 2.8 1.6 4.4.2 1.4.5 2.8.9 4.2.8 3.7 1.9 8.3.6 10.4-.4.5-.9.9-1.5 1-.7.2-1.3.2-2 .3z" fill="#850e17" transform="matrix(2.88 0 0 2.88 1643.3876 423.1808)"/><path d="m327 167.6s-15.1.6-15.8 9.8c-.7 9.1 5.8 20.2 13.5 23.6 7.8 3.4 19.6 4.3 33.5.5 14-3.7 35.1-13.7 45-13.3 9.8.4 23.8.8 26 .6l2.3-.1s-1.7-3.2-17.2-3.9c-15.4-.7-26.1-2.7-35 1.5-8.8 4.2-19.5 9.7-33.6 9s-20.3.5-25.6-6.2c-5.4-6.8-3.2-17 6.9-21.5z" fill="#a8121c" stroke="#780000" stroke-miterlimit="6" stroke-width="2.6" transform="matrix(2.88 0 0 2.88 1643.3876 423.1808)"/><path d="m365.5 140.9s-2 8.8-5.4 10.8c-3.3 2-7.3 6.4-7.3 15s3.9 22.1 3.9 22.1 7-13.4 18.2-13.1 21.3 4.3 28.6 4.6 25.9 4.5 28.4 6.6c2.5 2.2 2.7 3.3 2.7 3.3s-12.6.4-16.6.2c-4-.1-9.6.3-14 3.6-4.5 3.2-13.7 8.7-17.6 9.1-2.8.3-5.6.3-8.5.2 0 0 4.1 5.8 13 5.5s13.4-3.8 16.4-6.7c2.9-3 5-5.3 9.2-5 4.1.2 17.6-4.8 21-4.4 3.3.4.4-7.4-4.4-9.8s-6-4.5-13-7.3c-7-2.9-10.7-4.5-19.8-6.1-9.2-1.6-11-.4-14.5-4.6s-1.8-6.3-4-9.9c-2.3-3.5-6.2-6.8-7.9-9.1s-8.3-5.2-8.4-5z" fill="#a8121c" stroke="#780000" stroke-miterlimit="6" stroke-width="2.6" transform="matrix(2.88 0 0 2.88 1643.3876 423.1808)"/><path d="m378.9 158.8c3.9 4.9 2.9 8.8-3.3 8.8-6.1 0-12 8.8-13.9 8.8-2 0-2.6-10.4 2.2-15.9 4.9-5.6 9.8-6.2 9.8-6.2 1 0 1.3-.3 5.2 4.5z" fill="#500" transform="matrix(2.88 0 0 2.88 1643.3588 423.152)"/><path d="m697 167.6s15.2.6 15.8 9.8c.7 9.1-5.8 20.2-13.5 23.6s-19.6 4.3-33.5.5c-14-3.7-35.1-13.7-45-13.3-9.8.4-23.8.8-26 .6l-2.2-.1s1.7-3.2 17.1-3.9 26.2-2.7 35 1.5 19.6 9.7 33.6 9c14.1-.7 20.4.5 25.7-6.2 5.3-6.8 3.2-17-6.9-21.5z" fill="#a8121c" stroke="#780000" stroke-miterlimit="6" stroke-width="2.6" transform="matrix(2.88 0 0 2.88 1643.3876 423.1808)"/><path d="m658.5 140.9s2 8.8 5.4 10.8c3.3 2 7.3 6.4 7.3 15s-3.9 22.1-3.9 22.1-7-13.4-18.2-13.1-21.3 4.3-28.6 4.6-25.9 4.5-28.4 6.6c-2.6 2.2-2.7 3.3-2.7 3.3s12.6.4 16.6.2c4-.1 9.6.3 14 3.6 4.4 3.2 13.7 8.7 17.6 9.1 2.8.3 5.6.3 8.5.2 0 0-4.1 5.8-13 5.5s-13.4-3.8-16.4-6.7c-2.9-3-5-5.3-9.1-5-4.2.2-17.7-4.8-21-4.4-3.4.4-.4-7.4 4.3-9.8 4.8-2.4 6-4.5 13-7.3 7-2.9 10.7-4.5 19.8-6.1 9.2-1.6 11-.4 14.5-4.6s1.8-6.3 4-9.9c2.3-3.5 6.2-6.8 7.9-9.1s8.3-5.2 8.4-5z" fill="#a8121c" stroke="#780000" stroke-miterlimit="6" stroke-width="2.6" transform="matrix(2.88 0 0 2.88 1643.4164 423.1808)"/><path d="m645.1 158.8c-3.9 4.9-2.9 8.8 3.3 8.8 6.1 0 12 8.8 14 8.8s2.6-10.4-2.3-15.9c-4.8-5.6-9.7-6.2-9.7-6.2-1 0-1.4-.3-5.3 4.5z" fill="#500" transform="matrix(2.88 0 0 2.88 1643.3876 423.152)"/><path d="m321.3 928.1v-45.7c93.8-8.6 104.9-16 104.9-119.7v-470.2c0-103.7-12.3-113.6-104.9-121v-45.6h381.4v45.6c-92.6 8.6-104.9 17.3-104.9 121v470.2c0 102.5 11.1 109.9 104.9 119.7v45.7z" transform="matrix(1.18 0 0 1.18 537.5982 1240.8836)"/><path d="m537 928.1v-45.7c83.9-11.1 80.2-30.8 59.2-70.3-12.3-21-38.2-64.2-127.1-217.2-56.8 87.6-111.1 167.8-133.3 211-28.4 50.6-22.2 64.1 64.2 76.5v45.7h-307.4v-45.7c69.1-6.1 113.6-25.9 149.4-69.1 44.4-54.3 123.4-162.9 193.7-269-58-97.5-109.8-183.9-172.7-285.2-33.4-55.5-60.5-77.7-153-87.6v-45.6h385v45.6c-74 8.6-77.7 22.2-60.5 58 19.8 38.3 59.3 104.9 109.9 186.4 37-50.6 82.7-123.4 112.3-175.3 23.4-43.2 13.6-55.5-63-69.1v-45.6h298.7v45.6c-80.2 9.9-117.2 22.2-164.1 81.5-42 55.5-90.1 124.6-150.6 209.8 71.6 113.5 128.3 208.6 201.2 318.4 49.3 80.3 75.3 92.6 160.4 101.2v45.7z" transform="matrix(1.18 0 0 1.18 4644.3372 1240.8836)"/></svg>