<svg width="282" height="72" viewBox="0 0 282 72" fill="none" xmlns="http://www.w3.org/2000/svg">
<path d="M-0.00137811 70.3926V0.861621H30.167C37.5734 0.861621 43.1602 2.52168 46.9272 5.8418C50.6943 9.16192 52.5778 14.0144 52.5778 20.3992C52.5778 23.8471 51.9713 26.7841 50.7581 29.2103C49.6089 31.5727 47.7573 33.6159 45.2033 35.3398C48.2042 36.9998 50.4708 39.1707 52.0032 41.8523C53.5994 44.534 54.3975 47.6945 54.3975 51.3338C54.3975 57.7825 52.3863 62.5711 48.3638 65.6997C44.3414 68.8283 38.2758 70.3926 30.167 70.3926H-0.00137811ZM7.94775 8.71498V31.7004H30.167C34.8918 31.7004 38.4992 30.7746 40.9893 28.923C43.4794 27.0076 44.7245 24.1982 44.7245 20.495C44.7245 17.1111 43.3836 14.3656 40.702 12.2586C38.0204 10.1516 34.5087 8.93845 30.167 8.6192L7.94775 8.71498ZM7.94775 39.7453V62.5392H30.167C35.4664 62.5392 39.5208 61.6134 42.3301 59.7618C45.2033 57.8464 46.6399 55.037 46.6399 51.3338C46.6399 47.5668 45.2033 44.6936 42.3301 42.7143C39.5208 40.735 35.4664 39.7453 30.167 39.7453H7.94775ZM108.771 70.3926H55.3298V0.861621H108.771V8.71498H63.4705V31.7004H97.8529V39.7453H63.4705V62.5392H108.771V70.3926ZM114.897 70.3926H106.852V0.861621H134.818C151.355 0.861621 159.623 7.37416 159.623 20.3992C159.623 26.2733 158.123 30.6788 155.122 33.6159C152.121 36.5529 147.875 38.4364 142.384 39.2665L162.784 70.3926H153.015L132.615 39.7453H114.897V70.3926ZM114.897 8.71498V31.7004H134.818C137.372 31.7004 139.798 31.4769 142.097 31.03C144.395 30.5192 146.279 29.8488 147.747 29.0188C148.961 27.9972 149.918 26.7522 150.621 25.2837C151.323 23.7513 151.674 22.1232 151.674 20.3992C151.674 16.7599 150.365 13.8548 147.747 11.6839C146.279 10.7901 144.395 10.0877 142.097 9.57693C139.798 9.00229 137.372 8.71498 134.818 8.71498H114.897ZM187.01 71.2545C178.262 71.2545 171.048 69.3072 165.365 65.4124C159.683 61.4538 156.043 55.6436 154.447 47.9818H163.258C164.088 52.7704 166.642 56.5375 170.92 59.2829C175.198 62.0284 180.561 63.4012 187.01 63.4012C190.011 63.4012 193.075 63.05 196.204 62.3477C199.332 61.6453 202.014 60.4322 204.249 58.7083C206.484 56.9206 207.601 54.622 207.601 51.8127C207.601 48.8118 205.973 46.4494 202.716 44.7255C199.524 42.9377 194.161 41.5012 186.627 40.4157C179.156 39.2665 173.314 37.8618 169.1 36.2017C164.886 34.4778 161.853 32.3708 160.002 29.8807C158.214 27.3268 157.32 24.1025 157.32 20.2077C157.32 16.6322 158.469 13.3121 160.768 10.2473C163.13 7.11877 166.419 4.62868 170.633 2.77707C174.91 0.925469 179.859 -0.000333439 185.477 -0.000333439C200.929 -0.000333439 210.985 7.02299 215.646 21.0697H206.93C203.93 12.2586 196.779 7.85302 185.477 7.85302C181.646 7.85302 178.167 8.39573 175.038 9.48116C171.973 10.5666 169.579 12.067 167.855 13.9825C166.131 15.8341 165.269 17.9092 165.269 20.2077C165.269 22.3785 165.972 24.2302 167.376 25.7625C168.781 27.231 171.143 28.508 174.464 29.5934C177.784 30.615 182.381 31.5727 188.255 32.4666C195.023 33.6159 200.354 34.9886 204.249 36.5848C208.207 38.181 211.049 40.1923 212.773 42.6185C214.496 45.0447 215.39 48.1095 215.454 51.8127V52.0042C215.454 55.7713 214.209 59.1233 211.719 62.0604C209.293 64.9335 205.909 67.2002 201.567 68.8602C197.289 70.4564 192.437 71.2545 187.01 71.2545ZM220.003 70.3926H210.713L246.149 0.861621L281.394 70.3926H272.583L262.622 50.7592H229.868L220.003 70.3926ZM246.149 18.4838L233.507 43.4805H258.696L246.149 18.4838Z" fill="white"/>
</svg>
