<svg width="320" height="70" viewBox="0 0 320 70" fill="none" xmlns="http://www.w3.org/2000/svg">
<path d="M57.2724 47.8854H13.7916C15.2282 54.7811 21.3576 59.3782 29.4026 59.3782C35.1489 59.3782 39.746 57.2712 42.2361 53.8233H55.8358C52.1964 63.5922 41.9488 69.9132 28.8279 69.9132C12.355 69.9132 0.000341742 59.0908 0.000341742 44.6292C0.000341742 29.9759 12.2592 19.1536 28.8279 19.1536C45.205 19.1536 57.4639 29.4013 57.4639 44.6292C57.4639 45.6827 57.4639 46.8319 57.2724 47.8854ZM13.7916 41.1813H43.6727C42.3319 34.3815 36.6813 29.9759 28.8279 29.9759C21.0703 29.9759 15.2282 34.4773 13.7916 41.1813ZM62.831 6.12855C62.831 2.58497 65.321 -0.000897553 69.1519 -0.000897553C72.7913 -0.000897553 75.2814 2.58497 75.2814 6.12855C75.2814 9.95946 72.7913 12.3538 69.1519 12.3538C65.321 12.3538 62.831 9.95946 62.831 6.12855ZM75.856 68.4766H62.4479V20.5902H75.856V68.4766ZM96.9612 46.1615V68.4766H83.553V20.5902H95.5246L96.8654 28.4436C101.079 22.6972 107.4 19.1536 114.871 19.1536C129.237 19.1536 139.293 30.1675 139.293 46.1615V68.4766H125.885V46.1615C125.885 37.542 119.755 31.5083 111.231 31.5083C102.708 31.5083 96.9612 37.542 96.9612 46.1615ZM191.873 54.8768C191.873 63.4964 182.774 69.9132 168.791 69.9132C154.426 69.9132 144.657 63.5922 143.603 53.6318H157.011C157.778 57.8458 161.992 60.3359 168.791 60.3359C174.25 60.3359 178.369 57.9416 178.369 54.8768C178.369 44.3419 144.848 53.6318 144.848 34.3815C144.848 25.9535 153.468 19.1536 167.451 19.1536C181.817 19.1536 190.34 25.3789 191.106 35.3392H177.698C177.124 31.5083 173.676 28.8267 167.355 28.8267C162.087 28.8267 158.256 31.1252 158.256 34.2857C158.256 44.5334 191.873 34.1899 191.873 54.8768ZM253.977 68.4766H242.101L240.76 62.1556C235.876 67.04 228.884 69.9132 220.744 69.9132C204.845 69.9132 192.874 59.0908 192.874 44.6292C192.874 29.9759 204.75 19.1536 220.744 19.1536C228.789 19.1536 235.876 21.931 240.76 26.9112L242.101 20.5902H253.977V68.4766ZM206.282 44.6292C206.282 52.3868 213.561 58.0373 223.617 58.0373C233.769 58.0373 240.569 52.5783 240.569 44.6292C240.569 36.5843 233.673 30.9337 223.617 30.9337C213.561 30.9337 206.282 36.68 206.282 44.6292ZM262.438 6.12855C262.438 2.58497 264.928 -0.000897553 268.759 -0.000897553C272.399 -0.000897553 274.889 2.58497 274.889 6.12855C274.889 9.95946 272.399 12.3538 268.759 12.3538C264.928 12.3538 262.438 9.95946 262.438 6.12855ZM275.463 68.4766H262.055V20.5902H275.463V68.4766ZM319.171 19.1536V33.328C304.901 33.328 296.569 41.4687 296.569 54.8768V68.4766H283.16V20.5902H295.132L296.569 33.0407C300.974 24.5169 308.923 19.1536 319.171 19.1536Z" fill="white"/>
</svg>
