<svg width="487" height="70" viewBox="0 0 487 70" fill="none" xmlns="http://www.w3.org/2000/svg">
<path d="M6.14585 13.5975C6.14585 10.9856 5.78735 9.06512 5.07036 7.83599C4.35337 6.55565 2.91938 5.91547 0.768402 5.91547H0.000195244V3.61086H33.8781C38.2313 3.61086 40.4079 5.65941 40.4079 9.75651V16.2863H38.1033C38.1033 13.111 37.2838 10.7808 35.645 9.29558C34.0574 7.81039 31.6759 7.06779 28.5007 7.06779H16.1325V26.273H36.1059V29.7299H16.1325V50.8556H29.2689C32.1881 50.8556 34.6207 50.2154 36.5668 48.9351C38.513 47.6035 40.1262 45.3245 41.4065 42.098L43.4807 42.8662L41.2529 48.9351C40.5871 50.7787 39.7933 52.1359 38.8715 53.0065C37.9496 53.8772 36.5156 54.3125 34.5695 54.3125H6.14585V13.5975ZM84.857 55.0807C82.0403 55.0807 79.4796 54.2613 77.175 52.6224C74.8703 50.9324 72.4633 48.0388 69.9538 43.9417L62.2718 31.1127H59.1989V54.3125H49.1354V13.5975C49.1354 10.9856 48.7769 9.06512 48.0599 7.83599C47.3429 6.55565 45.9089 5.91547 43.758 5.91547H42.9898V3.61086H64.1923C69.5185 3.61086 74.307 4.58392 78.5577 6.53004C82.8085 8.47616 84.9339 12.2148 84.9339 17.7459C84.9339 24.1476 80.7855 28.3983 72.4889 30.4981L80.5551 43.9417C83.5767 49.0119 86.7519 51.8286 90.0808 52.392V54.3125C89.6711 54.5174 88.9285 54.6966 87.853 54.8502C86.7775 55.0039 85.7789 55.0807 84.857 55.0807ZM63.8082 28.0398C66.6761 28.0398 69.1088 27.1948 71.1061 25.5047C73.1547 23.7635 74.179 21.0491 74.179 17.3618C74.179 13.7256 73.1803 11.0369 71.183 9.29558C69.1856 7.55432 66.8554 6.68368 64.1923 6.68368C62.7071 6.68368 61.5548 6.78611 60.7353 6.99096L59.1989 7.22143V28.0398H63.8082ZM105.999 59.3827V0.000284227H106.998V59.3827H105.999ZM131.99 12.8293C131.99 10.2174 131.631 8.29692 130.914 7.06779C130.197 5.78744 128.763 5.14727 126.612 5.14727H125.076V3.61086H157.801C162.154 3.61086 164.331 5.65941 164.331 9.75651V15.5181H162.795C162.795 9.62848 159.594 6.68368 153.192 6.68368H138.903V26.6571H159.645V29.7299H138.903V51.2397H152.347C155.881 51.2397 158.646 50.5995 160.644 49.3192C162.641 48.0388 164.229 45.8622 165.407 42.7894L166.943 43.1735L164.254 50.4715C163.332 53.0322 161.412 54.3125 158.493 54.3125H131.99V12.8293ZM175.688 13.5975C174.511 13.5975 173.486 13.111 172.616 12.1379C171.796 11.1649 171.387 10.0126 171.387 8.68102C171.387 7.60553 171.694 6.7605 172.308 6.14594C172.974 5.53137 173.845 5.22409 174.92 5.22409C176.098 5.22409 177.097 5.71062 177.916 6.68368C178.787 7.65675 179.222 8.80905 179.222 10.1406C179.222 11.2161 178.889 12.0611 178.224 12.6757C177.609 13.2903 176.764 13.5975 175.688 13.5975ZM172.769 27.4253C172.769 24.8134 172.411 22.8928 171.694 21.6637C170.977 20.3834 169.543 19.7432 167.392 19.7432H165.855V18.2068H172.769C174.664 18.2068 176.073 18.4629 176.994 18.975C177.967 19.4359 178.659 20.3065 179.069 21.5869C179.478 22.8672 179.683 24.8134 179.683 27.4253V54.3125H172.769V27.4253ZM188.602 27.4253C188.602 24.8134 188.243 22.8928 187.526 21.6637C186.809 20.3834 185.375 19.7432 183.224 19.7432H181.688V18.2068H188.602C190.496 18.2068 191.93 18.4629 192.903 18.975C193.928 19.4871 194.67 20.2553 195.131 21.2796H195.515C196.591 20.2041 197.974 19.3079 199.664 18.5909C201.405 17.8227 203.351 17.4386 205.502 17.4386C209.343 17.4386 212.467 18.4629 214.874 20.5114C217.332 22.56 218.562 26.1449 218.562 31.2663V54.3125H211.648V31.2663C211.648 27.6813 210.828 25.0694 209.189 23.4306C207.602 21.7405 205.605 20.8955 203.197 20.8955C200.483 20.8955 197.922 22.2527 195.515 24.967V54.3125H188.602V27.4253ZM238.223 55.0807C232.334 55.0807 228.365 54.0564 226.316 52.0079C225.446 51.1372 224.908 50.1642 224.703 49.0887C224.498 47.962 224.396 46.2463 224.396 43.9417H225.932C226.393 46.5024 227.494 48.4997 229.235 49.9337C231.028 51.3165 233.512 52.0079 236.687 52.0079C239.504 52.0079 241.604 51.5213 242.986 50.5483C244.42 49.5752 245.137 48.2693 245.137 46.6304C245.137 45.1452 244.574 43.8649 243.447 42.7894C242.372 41.7139 240.631 40.6896 238.223 39.7166L233.614 37.7961C230.541 36.5669 228.237 35.1329 226.7 33.4941C225.164 31.8553 224.396 29.8323 224.396 27.4253C224.396 24.3012 225.574 21.8686 227.93 20.1273C230.285 18.3348 233.333 17.4386 237.071 17.4386C242.705 17.4386 246.546 18.4629 248.594 20.5114C249.465 21.382 250.003 22.3551 250.208 23.4306C250.412 24.5061 250.515 26.2217 250.515 28.5776H248.978C248.569 26.0169 247.493 24.0452 245.752 22.6624C244.011 21.2284 241.629 20.5114 238.608 20.5114C236.201 20.5114 234.306 21.0235 232.923 22.0478C231.591 23.0209 230.926 24.3012 230.926 25.8889C230.926 28.552 232.974 30.7286 237.071 32.4186L241.68 34.3391C245.163 35.7731 247.698 37.3095 249.286 38.9484C250.873 40.536 251.667 42.5845 251.667 45.094C251.667 48.2181 250.412 50.6763 247.903 52.4688C245.393 54.2101 242.167 55.0807 238.223 55.0807ZM271.432 55.0807C267.95 55.0807 265.005 54.2613 262.598 52.6224C260.191 50.9324 258.373 48.679 257.144 45.8622C255.914 42.9943 255.3 39.7934 255.3 36.2596C255.3 32.7771 255.914 29.6018 257.144 26.7339C258.373 23.8659 260.14 21.6125 262.444 19.9737C264.8 18.2836 267.54 17.4386 270.664 17.4386C275.837 17.4386 279.678 18.8982 282.187 21.8174C284.748 24.6853 286.028 28.8592 286.028 34.3391L285.875 37.412H262.598C262.598 41.7139 263.52 45.2221 265.363 47.9364C267.207 50.6507 269.742 52.0079 272.969 52.0079C275.376 52.0079 277.399 51.4957 279.037 50.4715C280.728 49.4472 282.29 47.9108 283.724 45.8622L285.26 47.0145C283.57 49.8313 281.598 51.8798 279.345 53.1602C277.091 54.4405 274.454 55.0807 271.432 55.0807ZM278.73 34.3391C278.73 29.8323 278.064 26.401 276.733 24.0452C275.401 21.6893 273.378 20.5114 270.664 20.5114C269.128 20.5114 267.745 21.126 266.516 22.3551C265.287 23.533 264.314 25.1719 263.597 27.2716C262.931 29.3714 262.598 31.7272 262.598 34.3391H278.73ZM302.489 55.0807C299.621 55.0807 297.368 54.2613 295.729 52.6224C294.09 50.9836 293.271 48.4741 293.271 45.094V21.2796H287.893V18.2068H293.271V11.2929L297.112 6.68368H300.185V18.2068H309.403V21.2796H300.185V45.094C300.185 49.7033 301.977 52.0079 305.562 52.0079C306.791 52.0079 307.816 51.8798 308.635 51.6238C309.506 51.3677 310.402 50.9836 311.324 50.4715L312.092 52.0079C310.914 52.8785 309.608 53.6211 308.174 54.2357C306.74 54.799 304.845 55.0807 302.489 55.0807ZM367.241 55.0807C364.527 55.0807 362.145 54.2869 360.097 52.6993C358.099 51.0604 355.871 48.1412 353.413 43.9417L345.731 30.8822H340.354V54.3125H333.44V12.8293C333.44 10.2174 333.081 8.29692 332.364 7.06779C331.647 5.78744 330.213 5.14727 328.062 5.14727H326.526V3.61086H346.499C351.365 3.61086 355.769 4.58392 359.712 6.53004C363.707 8.42495 365.704 12.0611 365.704 17.4386C365.704 24.25 361.607 28.6032 353.413 30.4981L361.479 43.9417C363.374 47.117 365.064 49.3448 366.549 50.6251C368.086 51.8542 369.853 52.5712 371.85 52.7761V54.3125C371.389 54.5174 370.723 54.6966 369.853 54.8502C369.033 55.0039 368.163 55.0807 367.241 55.0807ZM346.115 28.1935C347.703 28.1935 349.418 27.8094 351.262 27.0412C353.157 26.273 354.745 25.0694 356.025 23.4306C357.357 21.7917 358.022 19.7944 358.022 17.4386C358.022 14.9291 357.357 12.8549 356.025 11.2161C354.745 9.52605 353.157 8.29692 351.262 7.52871C349.418 6.70929 347.703 6.29958 346.115 6.29958C344.323 6.29958 342.402 6.55565 340.354 7.06779V27.4253C342.402 27.9374 344.323 28.1935 346.115 28.1935ZM387.744 55.0807C384.261 55.0807 381.239 54.2613 378.679 52.6224C376.118 50.9324 374.172 48.6534 372.84 45.7854C371.509 42.9174 370.843 39.7422 370.843 36.2596C370.843 32.7771 371.509 29.6018 372.84 26.7339C374.172 23.8659 376.118 21.6125 378.679 19.9737C381.239 18.2836 384.261 17.4386 387.744 17.4386C391.226 17.4386 394.248 18.2836 396.808 19.9737C399.369 21.6125 401.315 23.8659 402.647 26.7339C403.978 29.6018 404.644 32.7771 404.644 36.2596C404.644 39.7422 403.978 42.9174 402.647 45.7854C401.315 48.6534 399.369 50.9324 396.808 52.6224C394.248 54.2613 391.226 55.0807 387.744 55.0807ZM387.744 52.0079C389.638 52.0079 391.303 51.3165 392.737 49.9337C394.222 48.5509 395.349 46.656 396.117 44.249C396.936 41.8419 397.346 39.1788 397.346 36.2596C397.346 33.3405 396.936 30.6773 396.117 28.2703C395.349 25.8632 394.222 23.9683 392.737 22.5856C391.303 21.2028 389.638 20.5114 387.744 20.5114C385.849 20.5114 384.159 21.2028 382.673 22.5856C381.239 23.9683 380.113 25.8632 379.293 28.2703C378.525 30.6773 378.141 33.3405 378.141 36.2596C378.141 39.1788 378.525 41.8419 379.293 44.249C380.113 46.656 381.239 48.5509 382.673 49.9337C384.159 51.3165 385.849 52.0079 387.744 52.0079ZM411.99 67.372C414.5 67.372 416.548 66.7831 418.136 65.6051C419.775 64.4784 421.183 62.3787 422.361 59.3058L423.897 55.0807L411.606 25.1206C410.172 21.4333 407.355 19.3847 403.156 18.975V17.4386H409.685C414.141 17.4386 417.214 19.4871 418.904 23.5842L427.661 44.8636L437.341 18.2068H441.182L426.202 59.3058C424.717 63.3517 423.078 66.0917 421.285 67.5257C419.493 68.9596 417.163 69.6766 414.295 69.6766H411.99V67.372ZM453.997 55.0807C452.358 55.0807 450.693 54.7478 449.003 54.082C447.313 53.365 445.854 52.2127 444.624 50.6251C443.447 49.0375 442.858 46.9377 442.858 44.3258C442.858 40.4336 444.65 37.668 448.235 36.0292C451.871 34.3903 456.608 33.5709 462.447 33.5709H464.751C464.751 28.552 464.06 25.1206 462.677 23.2769C461.295 21.4333 459.297 20.5114 456.685 20.5114C454.381 20.5114 452.537 20.9979 451.154 21.971C449.771 22.9441 448.798 24.6341 448.235 27.0412H444.778C444.778 25.2999 444.881 23.9427 445.085 22.9697C445.29 21.9454 445.828 20.9979 446.699 20.1273C447.62 19.2055 449.131 18.5397 451.231 18.13C453.382 17.669 455.712 17.4386 458.222 17.4386C462.37 17.4386 465.648 18.5653 468.055 20.8187C470.462 23.0209 471.665 27.2716 471.665 33.5709V54.3125H467.824L465.136 50.8556H464.751C463.83 52.0335 462.472 53.0322 460.68 53.8516C458.887 54.671 456.66 55.0807 453.997 55.0807ZM457.454 51.6238C459.144 51.6238 460.552 51.2141 461.679 50.3946C462.805 49.5752 463.83 48.4485 464.751 47.0145V36.6437H462.447C458.657 36.6437 455.661 37.3607 453.459 38.7947C451.257 40.1775 450.156 42.0212 450.156 44.3258C450.156 46.6816 450.847 48.4997 452.23 49.7801C453.664 51.0092 455.405 51.6238 457.454 51.6238ZM479.612 12.8293C479.612 10.2174 479.254 8.29692 478.537 7.06779C477.82 5.78744 476.386 5.14727 474.235 5.14727H472.698V3.61086H479.612C481.507 3.61086 482.915 3.86692 483.837 4.37906C484.81 4.83999 485.502 5.71062 485.911 6.99096C486.321 8.27131 486.526 10.2174 486.526 12.8293V54.3125H479.612V12.8293Z" fill="#272727"/>
</svg>
