<svg width="205" height="73" viewBox="0 0 205 73" fill="none" xmlns="http://www.w3.org/2000/svg">
<path d="M41.181 10.6553H11.7309V30.5281H37.2304V41.3025H11.7309V71.8301H-0.00125944V0.000577927H41.181V10.6553ZM83.9345 40.5842L104.526 71.8301H91.3569L72.3221 41.6617H62.3857V71.8301H50.6535V0.000577927H78.7867C90.3992 0.000577927 99.4976 9.33842 99.4976 21.0706C99.4976 30.7675 92.9132 38.6688 83.9345 40.5842ZM62.3857 31.4858H77.3501C83.4556 31.4858 88.0048 27.2958 88.0048 21.1903C88.0048 15.0848 83.4556 10.8947 77.3501 10.8947H62.3857V31.4858ZM154.443 10.6553H124.993V30.5281H150.493V41.3025H124.993V61.1754H154.443V71.8301H113.261V0.000577927H154.443V10.6553ZM204.679 0.000577927V53.9924C204.679 65.6049 197.017 72.7878 184.208 72.7878C172.595 72.7878 165.293 66.802 163.976 56.9853L175.708 53.8727C176.187 58.7811 179.659 62.0134 184.208 62.0134C189.236 62.0134 192.947 58.1825 192.947 52.5558V10.8947H168.645V0.000577927H204.679Z" fill="#272727"/>
</svg>
