<svg width="505" height="77" viewBox="0 0 505 77" fill="none" xmlns="http://www.w3.org/2000/svg">
<path d="M19.059 0.765751C20.9744 0.254966 23.0495 -0.000426648 25.2842 -0.000426648C27.7743 -0.000426648 29.7855 0.286891 31.3179 0.861528C32.9141 1.43616 33.8399 1.72348 34.0953 1.72348C34.3507 1.72348 35.1488 2.48966 36.4896 4.02202C37.8943 5.55439 38.7881 7.05483 39.1712 8.52334C39.6182 9.92801 39.8416 12.2266 39.8416 15.419V20.3034L43.7683 16.2809C47.7269 12.1308 51.1428 10.0557 54.016 10.0557C55.9314 10.0557 57.783 10.758 59.5708 12.1627C61.3586 13.5035 62.5398 15.0997 63.1144 16.9513C63.4975 18.2922 63.689 19.633 63.689 20.9738C63.689 23.5916 62.4121 30.9341 59.8581 43.0015C57.4957 53.7919 56.3145 60.2087 56.3145 62.2518C56.3145 63.4011 56.6657 64.0396 57.368 64.1673H57.7511C59.1558 64.1673 61.1351 62.603 63.689 59.4744C65.4768 57.3674 66.658 56.0266 67.2326 55.4519C67.6157 55.1327 68.0307 55.0369 68.4777 55.1646C68.9884 55.2923 69.3396 55.5796 69.5312 56.0266C69.5312 56.0904 69.5312 56.1224 69.5312 56.1224L69.6269 56.3139C69.6269 57.3355 68.4777 59.1232 66.1791 61.6772C63.9444 64.2311 62.029 65.9231 60.4328 66.7531C59.475 67.2639 58.3896 67.5193 57.1765 67.5193C54.4949 67.5193 52.1325 66.0189 50.0893 63.018C49.4508 62.188 49.0677 61.4537 48.94 60.8152C48.8762 60.2406 48.8123 58.7401 48.7485 56.3139C48.7485 56.0585 48.7166 55.7073 48.6527 55.2604C48.6527 54.7496 48.6527 54.3984 48.6527 54.2069C48.6527 52.3553 49.9297 45.6193 52.4836 33.9989C54.7822 23.5277 55.9314 17.6217 55.9314 16.2809C55.9314 15.1317 55.4526 14.3335 54.4949 13.8866C54.0479 13.6312 53.5371 13.5035 52.9625 13.5035C50.4724 13.5035 47.3757 16.0575 43.6725 21.1653C41.0548 24.7408 39.0435 28.3802 37.6389 32.0834C36.298 35.7866 34.9253 41.1818 33.5206 48.269C32.3075 54.4623 31.4775 58.2294 31.0305 59.5702C30.3282 62.3157 29.977 63.7522 29.977 63.8799C29.594 65.8592 27.87 67.0404 24.8053 67.4235C24.7415 67.4235 24.6138 67.4235 24.4222 67.4235C24.2307 67.4874 24.0711 67.5193 23.9434 67.5193C22.9218 67.5193 22.0279 67.3278 21.2617 66.9447C20.4956 66.5616 20.1125 66.1146 20.1125 65.6039C20.1125 65.2846 20.8148 62.4753 22.2195 57.1759C25.9865 43.0653 28.4447 32.9773 29.594 26.9117C30.2963 23.3362 30.6475 19.2499 30.6475 14.6528C30.6475 11.7158 30.5836 9.83223 30.4559 9.0022C30.3282 8.10832 30.0409 7.31022 29.594 6.60789C28.2531 4.56474 25.9227 3.54316 22.6026 3.54316C19.9209 3.54316 17.2393 4.46896 14.5576 6.32057C11.9399 8.10832 10.0244 10.3111 8.81129 12.9289C7.91741 14.9082 7.47047 17.3344 7.47047 20.2076C7.47047 21.8677 7.66201 23.0808 8.0451 23.847C9.00283 25.7624 10.6948 26.7201 13.1211 26.7201C14.3342 26.7201 15.6111 26.4328 16.952 25.8582C18.4843 25.1559 19.474 24.8047 19.9209 24.8047C20.3679 24.8047 20.7829 25.2516 21.166 26.1455C21.4214 26.6563 21.5491 27.1671 21.5491 27.6779C21.5491 28.1248 21.4533 28.6356 21.2617 29.2102C21.0063 30.1041 20.3359 31.1257 19.2505 32.275C18.1651 33.4242 17.1116 34.2223 16.09 34.6693C15.1323 35.0524 13.8872 35.2439 12.3549 35.2439C10.3756 35.2439 8.81129 34.9566 7.66201 34.382C5.81041 33.4881 4.11843 31.9238 2.58606 29.6891C1.0537 27.3906 0.191745 25.1878 0.000200128 23.0808V22.6019C0.000200128 20.1757 1.0537 17.1748 3.1607 13.5993C5.33155 10.0238 7.82164 7.18252 10.631 5.07552C13.1849 3.09622 15.9942 1.65963 19.059 0.765751ZM90.5548 40.0325C89.597 39.1387 88.4478 38.6917 87.1069 38.6917C84.7445 38.6917 82.7333 39.9049 81.0733 42.3311C79.1578 45.0766 78.1043 48.269 77.9128 51.9084V53.4407C77.9128 59.5702 79.5409 62.6349 82.7972 62.6349C83.4357 62.6349 84.2338 62.4753 85.1915 62.156C87.2985 61.326 89.0862 59.4425 90.5548 56.5054C92.0871 53.5684 92.8533 50.4079 92.8533 47.024C92.8533 43.7038 92.0871 41.3734 90.5548 40.0325ZM82.6056 35.627C83.7549 35.2439 85.415 35.0524 87.5858 35.0524C89.7566 35.0524 91.4167 35.2439 92.566 35.627C93.9068 36.1378 95.2476 37.0317 96.5884 38.3086C97.9931 39.5856 98.9827 40.8945 99.5574 42.2353C100.196 43.7038 100.515 45.6193 100.515 47.9817C100.515 49.6417 100.419 50.8229 100.228 51.5253C100.1 52.2276 99.717 53.2811 99.0785 54.6858C98.1846 56.4735 96.9396 58.2932 95.3434 60.1448L93.2364 62.6349H94.3857C95.0241 62.6349 96.365 62.0283 98.4081 60.8152C100.515 59.6659 102.047 58.6444 103.005 57.7505C103.771 57.112 104.346 56.282 104.729 55.2604C105.24 54.0473 106.038 53.4407 107.123 53.4407C107.379 53.4407 107.634 53.5046 107.89 53.6323C108.145 53.8238 108.273 54.0792 108.273 54.3984C108.273 55.3562 107.379 56.8566 105.591 58.8998C102.271 62.8584 99.1743 65.2208 96.3011 65.9869C95.1518 66.2423 91.9594 66.37 86.7238 66.37C82.8291 66.37 80.4348 66.3062 79.5409 66.1785C78.647 66.1146 77.6893 65.8273 76.6677 65.3165C75.5184 64.7419 74.2095 63.6884 72.741 62.156C71.2725 60.6875 70.219 59.3148 69.5805 58.0378C69.0697 57.0162 68.8144 55.2604 68.8144 52.7703C68.8144 50.9826 68.8782 49.7694 69.0059 49.131C69.1336 48.4925 69.5486 47.5347 70.2509 46.2578C71.5918 43.7677 73.3795 41.5649 75.6142 39.6495C77.8489 37.734 80.1794 36.3932 82.6056 35.627ZM114.691 36.1059C115.457 35.7228 116.128 35.5312 116.702 35.5312C117.596 35.5312 118.394 35.8824 119.097 36.5847C119.99 37.5425 120.437 38.4044 120.437 39.1706C120.437 39.7452 120.086 41.1499 119.384 43.3846C118.554 46.0662 118.139 47.7901 118.139 48.5563C118.139 49.0033 118.266 49.2267 118.522 49.2267C118.841 49.2267 119.671 48.4286 121.012 46.8324C122.353 45.2362 123.438 43.7677 124.268 42.4269C126.248 39.0429 127.971 36.9997 129.44 36.2974C130.589 35.7228 131.962 35.4355 133.558 35.4355C134.899 35.4355 135.793 35.6589 136.24 36.1059C136.687 36.489 136.91 37.0317 136.91 37.734C136.91 38.6917 136.304 40.5753 135.091 43.3846C133.877 46.0662 133.271 48.0136 133.271 49.2267C133.271 50.4398 134.229 51.3337 136.144 51.9084C137.229 52.2276 137.772 52.7384 137.772 53.4407C137.772 53.8877 137.549 54.2388 137.102 54.4942C136.655 54.8773 135.825 55.0689 134.612 55.0689C132.952 55.0689 131.707 54.7496 130.877 54.1111C130.047 53.4726 129.408 52.898 128.961 52.3872C128.578 51.8764 127.971 50.8549 127.141 49.3225C126.12 47.5986 125.481 46.7366 125.226 46.7366C124.971 46.7366 124.077 48.1094 122.544 50.8549C121.012 53.6003 119.895 55.835 119.192 57.5589C118.618 58.8359 117.851 61.0068 116.894 64.0715C116.064 66.5616 115.425 67.9982 114.978 68.3813C114.531 68.7005 113.446 68.8601 111.722 68.8601C109.998 68.8601 108.881 68.6047 108.37 68.0939C107.923 67.647 107.7 66.5297 107.7 64.7419C107.7 62.6349 107.827 61.2302 108.083 60.5279C108.338 59.5702 108.753 56.7928 109.328 52.1957C110.03 46.8963 110.764 43.0653 111.53 40.703C112.297 38.3406 113.35 36.8082 114.691 36.1059ZM146.62 18.4837C147.322 17.7814 148.088 17.4302 148.918 17.4302C149.748 17.4302 150.419 17.7814 150.93 18.4837C151.504 19.2499 151.792 20.2715 151.792 21.5484C151.792 22.8892 151.44 24.677 150.738 26.9117C150.036 28.891 149.685 30.168 149.685 30.7426C149.685 31.1895 149.876 31.4769 150.259 31.6046C150.642 31.6684 151.409 31.7003 152.558 31.7003C155.942 31.7003 157.634 32.3069 157.634 33.52C157.634 33.9669 157.538 34.2862 157.346 34.4777C157.155 34.6693 156.74 34.8289 156.101 34.9566C155.144 35.2758 153.835 35.4355 152.175 35.4355C150.706 35.4355 149.812 35.5312 149.493 35.7228C148.982 36.042 148.248 38.2129 147.29 42.2353C146.333 46.1939 145.598 50.0568 145.088 53.8238C144.832 55.867 144.704 58.0378 144.704 60.3364C144.704 62.5711 144.864 63.848 145.183 64.1673C145.503 64.4865 145.886 64.6461 146.333 64.6461C148.184 64.6461 150.451 62.6987 153.132 58.804C154.346 57.0801 155.016 56.1862 155.144 56.1224C155.208 56.0585 155.335 56.0266 155.527 56.0266C156.357 56.0266 156.772 56.8247 156.772 58.4209C156.772 59.6979 155.75 61.4537 153.707 63.6884C151.664 65.9231 149.717 67.4555 147.865 68.2855C146.907 68.6686 145.758 68.8601 144.417 68.8601C143.14 68.8601 142.119 68.6686 141.352 68.2855C138.543 66.817 137.138 63.7842 137.138 59.1871C137.138 55.1646 137.968 49.6098 139.629 42.5226C139.82 41.7565 140.012 40.8626 140.203 39.841C140.459 38.8194 140.65 38.0532 140.778 37.5425C140.905 37.0317 140.969 36.7444 140.969 36.6805C140.969 36.5528 140.395 36.0739 139.245 35.2439C138.096 34.4777 137.522 33.7754 137.522 33.1369C137.522 32.3707 138.224 31.7961 139.629 31.413C140.905 31.0299 141.895 30.2637 142.597 29.1145C143.364 27.9013 144.066 25.9859 144.704 23.3681C145.343 20.7503 145.981 19.1222 146.62 18.4837ZM177.822 19.9203C177.822 19.3457 177.759 18.9945 177.631 18.8668C177.503 18.7391 177.12 18.6752 176.482 18.6752C175.779 18.6752 175.236 18.8349 174.853 19.1541C174.47 19.4095 173.832 20.2076 172.938 21.5484C172.172 22.6338 171.246 26.3371 170.161 32.6581C169.969 33.5519 169.937 33.9989 170.065 33.9989C170.129 33.9989 170.256 33.9031 170.448 33.7116C171.022 33.1369 171.789 31.9557 172.746 30.168C173.576 28.5718 174.694 26.5924 176.098 24.2301C177.248 22.1869 177.822 20.7503 177.822 19.9203ZM176.003 14.3655C176.258 14.3016 176.609 14.2697 177.056 14.2697C178.589 14.2697 180.057 14.8124 181.462 15.8978C182.93 16.9833 183.664 18.1325 183.664 19.3457C183.664 20.4949 181.079 25.092 175.907 33.1369C169.65 42.9057 166.521 48.6202 166.521 50.2802C166.521 50.9826 166.649 51.3337 166.904 51.3337C167.543 51.3337 169.554 48.9394 172.938 44.1508C176.769 38.6598 180.185 35.9143 183.186 35.9143C183.696 35.9143 184.08 35.9462 184.335 36.0101C185.165 36.1378 185.995 36.6805 186.825 37.6382C187.719 38.5321 188.357 39.5537 188.74 40.703C189.124 41.8522 189.315 43.3527 189.315 45.2043C189.315 48.5244 188.804 52.2595 187.783 56.4097C186.761 60.3683 186.25 62.6349 186.25 63.2095C186.25 63.6565 186.633 63.8799 187.4 63.8799C188.421 63.8799 189.57 63.4969 190.847 62.7307C192.954 61.326 194.583 59.4106 195.732 56.9843C196.115 55.9627 196.69 55.3562 197.456 55.1646C197.583 55.1008 197.807 55.0689 198.126 55.0689C198.828 55.0689 199.18 55.4519 199.18 56.2181C199.18 57.4951 198.318 59.2509 196.594 61.4856C193.465 65.5719 189.985 67.6151 186.155 67.6151C182.26 67.6151 179.993 65.1569 179.355 60.2406V59.2829C179.355 55.5796 180.185 50.8868 181.845 45.2043C182.483 43.0973 182.803 41.7565 182.803 41.1818C182.803 40.671 182.388 40.4156 181.557 40.4156C180.408 40.4156 179.291 40.7987 178.205 41.5649C177.12 42.2672 176.194 43.0653 175.428 43.9592C174.726 44.8531 173.928 46.162 173.034 47.8859C172.14 49.546 171.501 50.8549 171.118 51.8126C170.735 52.7065 170.192 54.0792 169.49 55.9308C167.958 59.6979 166.489 62.4114 165.085 64.0715C163.744 65.7315 162.148 66.7212 160.296 67.0404C160.232 67.0404 160.136 67.0404 160.009 67.0404C159.881 67.1043 159.785 67.1362 159.721 67.1362C157.87 67.1362 156.944 65.7635 156.944 63.018C156.944 61.1664 157.614 56.5054 158.955 49.0352C160.36 41.5649 161.701 35.212 162.978 29.9764C163.744 26.9117 164.51 24.6451 165.276 23.1766C166.042 21.708 167.319 20.1438 169.107 18.4837C171.406 16.249 173.704 14.8763 176.003 14.3655ZM219.518 40.2241C219.071 39.5218 218.241 39.1706 217.028 39.1706C215.751 39.1706 214.633 39.6175 213.676 40.5114C212.654 41.533 211.441 43.4484 210.036 46.2578C208.696 49.0671 208.025 51.0145 208.025 52.0999C208.025 53.2492 208.121 53.8877 208.312 54.0154H208.504C209.015 54.0154 210.196 53.5365 212.048 52.5788C213.963 51.5572 215.368 50.6633 216.262 49.8971C218.816 47.7263 220.093 45.2043 220.093 42.3311C220.093 41.5011 219.901 40.7987 219.518 40.2241ZM213.676 36.0101C214.953 35.627 216.677 35.4355 218.847 35.4355C222.806 35.4355 225.52 36.4251 226.988 38.4044C227.627 39.3621 227.946 40.703 227.946 42.4269C227.946 44.0231 227.659 45.3958 227.084 46.5451C226.19 48.3328 224.785 49.8652 222.87 51.1422C221.018 52.3553 216.996 54.4304 210.803 57.3674C208.951 58.2613 208.025 59.0594 208.025 59.7617C208.025 60.0171 208.121 60.3364 208.312 60.7194C209.206 62.6349 211.313 63.5926 214.633 63.5926C215.144 63.5926 215.974 63.5288 217.124 63.4011C219.997 63.018 222.87 61.5176 225.743 58.8998C226.637 58.0059 227.978 56.8885 229.766 55.5477C230.468 55.0369 230.883 54.7815 231.011 54.7815C231.138 54.7177 231.362 54.8773 231.681 55.2604C231.873 55.5796 231.968 55.9627 231.968 56.4097C231.968 57.1759 231.745 57.8143 231.298 58.3251C230.787 58.9636 229.414 60.1129 227.18 61.7729C225.009 63.433 223.317 64.5823 222.104 65.2208C220.891 65.8592 219.869 66.2423 219.039 66.37C218.273 66.4977 216.613 66.5935 214.059 66.6574C213.037 66.7212 211.856 66.7531 210.515 66.7531C208.983 66.7531 207.61 66.4339 206.397 65.7954C203.907 64.5823 201.96 62.8903 200.555 60.7194C199.15 58.6124 198.448 56.3778 198.448 54.0154C198.448 52.8022 198.639 51.621 199.023 50.4718C199.469 49.0033 200.363 47.2474 201.704 45.2043C203.109 43.1611 204.45 41.5968 205.727 40.5114C208.153 38.4044 210.803 36.904 213.676 36.0101ZM238.339 36.1059C239.105 35.7228 239.775 35.5312 240.35 35.5312C241.244 35.5312 242.042 35.8824 242.744 36.5847C243.638 37.5425 244.085 38.4044 244.085 39.1706C244.085 39.7452 243.734 41.1499 243.032 43.3846C242.202 46.0662 241.787 47.7901 241.787 48.5563C241.787 49.0033 241.914 49.2267 242.17 49.2267C242.489 49.2267 243.319 48.4286 244.66 46.8324C246.001 45.2362 247.086 43.7677 247.916 42.4269C249.895 39.0429 251.619 36.9997 253.088 36.2974C254.237 35.7228 255.61 35.4355 257.206 35.4355C258.547 35.4355 259.441 35.6589 259.888 36.1059C260.335 36.489 260.558 37.0317 260.558 37.734C260.558 38.6917 259.951 40.5753 258.738 43.3846C257.525 46.0662 256.919 48.0136 256.919 49.2267C256.919 50.4398 257.876 51.3337 259.792 51.9084C260.877 52.2276 261.42 52.7384 261.42 53.4407C261.42 53.8877 261.196 54.2388 260.75 54.4942C260.303 54.8773 259.473 55.0689 258.259 55.0689C256.599 55.0689 255.354 54.7496 254.524 54.1111C253.694 53.4726 253.056 52.898 252.609 52.3872C252.226 51.8764 251.619 50.8549 250.789 49.3225C249.768 47.5986 249.129 46.7366 248.874 46.7366C248.618 46.7366 247.724 48.1094 246.192 50.8549C244.66 53.6003 243.542 55.835 242.84 57.5589C242.265 58.8359 241.499 61.0068 240.541 64.0715C239.711 66.5616 239.073 67.9982 238.626 68.3813C238.179 68.7005 237.094 68.8601 235.37 68.8601C233.646 68.8601 232.529 68.6047 232.018 68.0939C231.571 67.647 231.347 66.5297 231.347 64.7419C231.347 62.6349 231.475 61.2302 231.73 60.5279C231.986 59.5702 232.401 56.7928 232.975 52.1957C233.678 46.8963 234.412 43.0653 235.178 40.703C235.944 38.3406 236.998 36.8082 238.339 36.1059ZM266.724 36.7763C267.554 35.8824 268.512 35.4355 269.597 35.4355C270.491 35.4355 271.13 35.5951 271.513 35.9143C271.896 36.1697 272.087 36.7124 272.087 37.5425C272.087 38.564 271.736 40.4156 271.034 43.0973C270.395 45.7789 270.076 47.7582 270.076 49.0352V49.514L270.172 51.9084L271.417 49.6098C272.949 46.6728 274.801 43.9592 276.972 41.4691C279.143 38.9152 281.122 37.1913 282.91 36.2974C284.059 35.7228 285.144 35.4355 286.166 35.4355C288.081 35.4355 290.125 36.7124 292.295 39.2664C293.572 40.8626 294.211 42.4269 294.211 43.9592C294.211 45.2362 293.828 47.024 293.062 49.3225C290.763 56.3458 289.614 60.5917 289.614 62.0603C289.614 62.6987 289.678 63.0818 289.805 63.2095C289.997 63.3372 290.38 63.4011 290.955 63.4011C293.381 63.4011 296.222 61.0068 299.478 56.2181C300.691 54.6219 301.585 53.8238 302.16 53.8238C302.607 53.8238 302.83 54.0792 302.83 54.59C302.83 55.1646 302.607 56.1224 302.16 57.4632C301.266 59.8894 299.478 62.0922 296.797 64.0715C294.179 66.1146 291.753 67.1362 289.518 67.1362C288.943 67.1362 288.528 67.1043 288.273 67.0404C287.507 66.8489 286.677 66.3381 285.783 65.5081C284.889 64.678 284.219 63.7842 283.772 62.8264C283.197 61.6133 282.91 60.0171 282.91 58.0378C282.91 54.3346 283.899 49.514 285.879 43.5761C286.517 41.5968 286.836 40.4156 286.836 40.0325C286.836 39.7133 286.709 39.4579 286.453 39.2664C285.942 38.9471 285.304 38.7875 284.538 38.7875C283.708 38.7875 282.91 38.979 282.143 39.3621C280.036 40.4476 277.131 44.8531 273.428 52.5788C269.661 60.496 266.948 64.9654 265.287 65.9869C264.521 66.4977 263.819 66.7531 263.18 66.7531C262.67 66.7531 262.159 66.4977 261.648 65.9869C261.073 65.4123 260.786 64.1992 260.786 62.3476C260.786 61.1983 260.946 59.0275 261.265 55.835C262.287 45.8747 264.106 39.5218 266.724 36.7763ZM357.359 16.3767L365.213 0.286888L366.649 0.478436C367.288 0.542284 367.671 0.701905 367.799 0.957299C367.99 1.14885 368.086 1.72348 368.086 2.68121C368.086 4.66051 367.352 10.9177 365.883 21.4527C364.415 32.3707 363.68 39.4579 363.68 42.7142V44.7254L363.776 50.9506L364.925 48.5563C365.564 47.2793 366.873 43.7996 368.852 38.1171C371.215 31.2853 373.066 26.4648 374.407 23.6554C375.812 20.7822 377.025 19.3457 378.046 19.3457H378.238C378.685 19.4095 378.972 19.5372 379.1 19.7287C379.228 19.8564 379.291 20.2076 379.291 20.7822C379.291 21.5484 378.142 24.3578 375.844 29.2102C373.417 34.382 371.949 37.734 371.438 39.2664C369.778 43.7996 368.118 50.9826 366.458 60.8152C365.883 64.3269 365.404 66.402 365.021 67.0404C364.638 67.6789 364.095 67.9982 363.393 67.9982C362.18 67.9982 360.839 67.1362 359.371 65.4123C357.902 63.6884 356.785 61.6452 356.019 59.2829C355.38 57.0482 355.061 54.0154 355.061 50.1845C355.061 45.5874 355.508 40.5114 356.402 34.9566C357.296 29.3379 357.743 26.369 357.743 26.0497V24.9005L356.689 25.954C356.114 26.5286 354.327 29.3379 351.326 34.382C347.559 40.8307 343.057 47.7263 337.822 55.0689C332.65 62.4114 329.522 66.3062 328.436 66.7531C327.861 67.0085 327.159 67.1362 326.329 67.1362C325.18 67.1362 324.605 66.9127 324.605 66.4658C324.605 65.8273 325.052 64.5184 325.946 62.5391C329.585 54.5581 332.554 45.6512 334.853 35.8186C335.427 33.3285 335.715 29.4018 335.715 24.0385C335.715 18.6114 335.427 15.1636 334.853 13.6951C334.087 11.7796 332.714 10.2472 330.735 9.09797C328.819 7.88485 326.648 7.27829 324.222 7.27829C322.881 7.27829 321.381 7.53369 319.721 8.04448C316.72 9.0022 314.102 11.0454 311.867 14.1739C309.697 17.3025 308.611 20.3992 308.611 23.4639C308.611 24.7408 308.867 25.954 309.377 27.1032C310.335 29.0825 312.059 30.3914 314.549 31.0299C315.315 31.2215 315.986 31.3172 316.56 31.3172C318.412 31.3172 320.232 30.3595 322.019 28.4441C323.296 27.1032 324.158 26.4328 324.605 26.4328C325.244 26.4328 325.563 27.4863 325.563 29.5933C325.563 33.8712 323.743 36.904 320.104 38.6917C318.699 39.4579 316.88 39.841 314.645 39.841C313.176 39.841 311.867 39.6495 310.718 39.2664C308.228 38.4363 306.185 36.8401 304.589 34.4777C303.056 32.1153 302.29 29.5614 302.29 26.8159C302.29 25.539 302.482 24.262 302.865 22.985C304.397 18.2602 306.951 14.0462 310.527 10.343C314.166 6.63981 317.997 4.30934 322.019 3.35161C323.871 2.90468 325.786 2.68121 327.766 2.68121C333.001 2.68121 337.439 4.50089 341.078 8.14025C342.866 9.928 343.983 11.5561 344.43 13.0247C344.941 14.4293 345.26 16.8556 345.388 20.3034C345.388 20.8142 345.388 21.4527 345.388 22.2188C345.452 22.985 345.484 23.4958 345.484 23.7512C345.484 25.922 344.941 29.1145 343.855 33.3285C342.706 37.9255 342.132 40.5753 342.132 41.2776C342.132 41.6607 342.164 41.8522 342.227 41.8522C342.355 41.9161 342.706 41.6607 343.281 41.086C345.516 39.0429 350.208 30.8064 357.359 16.3767ZM386.536 19.0583C387.621 17.9729 388.77 17.4302 389.984 17.4302C392.154 17.4302 393.527 18.356 394.102 20.2076C394.293 20.9099 394.389 21.5165 394.389 22.0273C394.389 23.4958 393.559 24.8685 391.899 26.1455C391.133 26.7201 390.271 27.0075 389.313 27.0075C387.142 27.0075 385.706 26.0497 385.003 24.1343C384.748 23.6235 384.62 23.1127 384.62 22.6019C384.62 21.5165 385.259 20.3353 386.536 19.0583ZM384.524 38.3086C385.355 37.4786 386.312 37.0636 387.398 37.0636C388.292 37.0636 389.026 37.3509 389.6 37.9255C390.047 38.3725 390.271 39.0429 390.271 39.9368C390.271 41.2137 389.664 44.885 388.451 50.9506C387.302 56.7608 386.727 60.5279 386.727 62.2518C386.727 63.9119 387.27 64.7419 388.355 64.7419C389.696 64.7419 391.803 63.0818 394.676 59.7617C396.847 57.2078 398.252 55.9308 398.89 55.9308C399.337 55.9308 399.561 56.3778 399.561 57.2716C399.561 58.804 398.667 60.6237 396.879 62.7307C395.091 64.8377 393.144 66.402 391.037 67.4235C389.696 68.062 388.292 68.3813 386.823 68.3813C383.311 68.3813 380.789 66.5297 379.257 62.8264C378.81 61.741 378.587 60.1767 378.587 58.1336C378.587 54.6219 379.161 50.8229 380.31 46.7366C381.524 42.5865 382.928 39.7772 384.524 38.3086ZM404.798 36.7763C405.628 35.8824 406.585 35.4355 407.671 35.4355C408.565 35.4355 409.203 35.5951 409.586 35.9143C409.969 36.1697 410.161 36.7124 410.161 37.5425C410.161 38.564 409.81 40.4156 409.107 43.0973C408.469 45.7789 408.15 47.7582 408.15 49.0352V49.514L408.245 51.9084L409.49 49.6098C411.023 46.6728 412.874 43.9592 415.045 41.4691C417.216 38.9152 419.195 37.1913 420.983 36.2974C422.132 35.7228 423.218 35.4355 424.239 35.4355C426.155 35.4355 428.198 36.7124 430.369 39.2664C431.646 40.8626 432.284 42.4269 432.284 43.9592C432.284 45.2362 431.901 47.024 431.135 49.3225C428.837 56.3458 427.687 60.5917 427.687 62.0603C427.687 62.6987 427.751 63.0818 427.879 63.2095C428.07 63.3372 428.453 63.4011 429.028 63.4011C431.454 63.4011 434.296 61.0068 437.552 56.2181C438.765 54.6219 439.659 53.8238 440.233 53.8238C440.68 53.8238 440.904 54.0792 440.904 54.59C440.904 55.1646 440.68 56.1224 440.233 57.4632C439.34 59.8894 437.552 62.0922 434.87 64.0715C432.252 66.1146 429.826 67.1362 427.591 67.1362C427.017 67.1362 426.602 67.1043 426.346 67.0404C425.58 66.8489 424.75 66.3381 423.856 65.5081C422.962 64.678 422.292 63.7842 421.845 62.8264C421.271 61.6133 420.983 60.0171 420.983 58.0378C420.983 54.3346 421.973 49.514 423.952 43.5761C424.591 41.5968 424.91 40.4156 424.91 40.0325C424.91 39.7133 424.782 39.4579 424.527 39.2664C424.016 38.9471 423.378 38.7875 422.611 38.7875C421.781 38.7875 420.983 38.979 420.217 39.3621C418.11 40.4476 415.205 44.8531 411.502 52.5788C407.735 60.496 405.021 64.9654 403.361 65.9869C402.595 66.4977 401.892 66.7531 401.254 66.7531C400.743 66.7531 400.232 66.4977 399.722 65.9869C399.147 65.4123 398.86 64.1992 398.86 62.3476C398.86 61.1983 399.019 59.0275 399.339 55.835C400.36 45.8747 402.18 39.5218 404.798 36.7763ZM458.273 63.6884C458.273 62.7307 458.05 62.2518 457.603 62.2518C457.092 62.2518 455.815 62.9541 453.772 64.3588C451.793 65.7635 450.324 66.9766 449.366 67.9982C448.409 69.0197 447.93 70.0094 447.93 70.9671V71.7333C447.994 73.0103 448.409 73.7765 449.175 74.0318C449.366 74.0957 449.654 74.1276 450.037 74.1276C451.633 74.1276 453.325 72.8826 455.113 70.3925C457.22 67.4555 458.273 65.2208 458.273 63.6884ZM462.296 40.5114C461.274 39.6175 460.221 39.1706 459.135 39.1706C457.411 39.1706 455.623 40.1922 453.772 42.2353C451.154 45.0447 449.749 48.3009 449.558 52.0041C449.558 52.2595 449.526 52.5468 449.462 52.8661C449.462 53.1853 449.462 53.4088 449.462 53.5365C449.462 54.4942 449.813 55.0689 450.516 55.2604C450.771 55.3243 451.154 55.3562 451.665 55.3562C453.197 55.3562 454.793 54.8773 456.453 53.9196C458.177 52.9619 459.55 51.7168 460.572 50.1845C461.274 49.1629 461.976 47.8221 462.679 46.162C463.381 44.5019 463.732 43.3527 463.732 42.7142C463.732 42.0757 463.253 41.3414 462.296 40.5114ZM454.538 36.8721C455.815 36.5528 456.868 36.3932 457.699 36.3932C460.125 36.3932 462.998 37.5425 466.318 39.841C467.659 40.7987 468.585 41.2776 469.095 41.2776C469.542 41.2776 469.989 41.5011 470.436 41.948C470.628 42.1395 470.724 42.4269 470.724 42.81C470.724 43.2569 470.436 44.4381 469.862 46.3535C468.968 49.2267 468.297 51.0464 467.85 51.8126C467.34 52.9619 467.084 53.8557 467.084 54.4942C467.084 54.9412 467.148 55.2285 467.276 55.3562C467.403 55.42 467.723 55.4519 468.234 55.4519C469.702 55.4519 471.426 54.5261 473.405 52.6745C474.171 51.9084 474.778 51.653 475.225 51.9084C475.48 51.9722 475.608 52.1638 475.608 52.483C475.608 52.9938 475.193 53.6323 474.363 54.3984C473.533 55.1646 472.479 55.867 471.202 56.5054C468.84 57.7186 467.308 58.7721 466.605 59.6659C465.967 60.496 464.658 63.0499 462.679 67.3278C461.657 69.4986 460.38 71.2544 458.848 72.5953C455.911 75.1492 452.942 76.4262 449.941 76.4262C447.579 76.4262 445.663 75.5961 444.195 73.9361C443.556 73.1699 443.237 72.4676 443.237 71.8291C443.237 71.1906 443.524 70.3606 444.099 69.339C445.248 67.232 448.121 64.9334 452.718 62.4434C457.252 60.0171 459.518 58.2294 459.518 57.0801C459.518 56.6331 459.295 56.4097 458.848 56.4097C458.337 56.4097 456.9 56.7289 454.538 57.3674C453.133 57.7505 451.793 57.942 450.516 57.942C449.813 57.942 449.302 57.9101 448.983 57.8463C446.302 57.5909 444.163 56.7928 442.566 55.4519C441.034 54.1111 440.268 52.4191 440.268 50.376C440.268 48.9713 440.683 47.4709 441.513 45.8747C442.407 44.1508 444.131 42.3949 446.685 40.6072C449.239 38.8194 451.856 37.5744 454.538 36.8721ZM487.107 48.4605C486.277 46.7366 485.767 45.8747 485.575 45.8747C485.256 45.8747 484.681 46.3535 483.851 47.3113C483.085 48.269 482.447 49.2906 481.936 50.376L480.786 52.5788L481.648 53.6323C482.415 54.59 482.798 55.5477 482.798 56.5054C482.798 57.3355 482.51 58.3251 481.936 59.4744C481.233 61.0068 480.882 61.9326 480.882 62.2518C480.882 62.6349 481.138 63.0818 481.648 63.5926C482.095 63.9119 482.51 64.0715 482.893 64.0715C483.66 64.0715 484.617 63.6245 485.767 62.7307C486.852 61.9006 487.554 61.0068 487.874 60.049C488.193 59.0913 488.353 57.4632 488.353 55.1646C488.353 52.3553 487.938 50.1206 487.107 48.4605ZM485.767 36.7763C486.405 35.8824 487.107 35.4674 487.874 35.5312C488.448 35.5951 488.768 35.7866 488.831 36.1059C488.959 36.3613 489.087 37.4786 489.214 39.4579C489.342 41.5649 489.629 43.0653 490.076 43.9592C490.523 44.8531 491.8 46.5451 493.907 49.0352C495.312 50.7591 496.206 52.3234 496.589 53.728C496.908 54.6858 497.068 55.42 497.068 55.9308C497.068 56.1862 496.844 57.3674 496.397 59.4744C496.078 61.0706 495.919 62.0283 495.919 62.3476C495.919 62.7945 496.046 63.018 496.302 63.018C496.557 63.018 497.1 62.8584 497.93 62.5391C498.76 62.2199 499.558 61.5176 500.324 60.4321C501.41 58.6444 502.527 57.7505 503.676 57.7505C504.378 57.7505 504.73 58.1974 504.73 59.0913C504.73 59.9213 503.676 61.2941 501.569 63.2095C499.526 65.1888 497.642 66.6254 495.919 67.5193C494.642 68.1578 493.652 68.5409 492.95 68.6686C492.247 68.7963 490.651 68.8601 488.161 68.8601C485.862 68.8601 484.33 68.7963 483.564 68.6686C482.798 68.5409 481.904 68.2216 480.882 67.7109C479.094 66.817 477.658 65.5081 476.572 63.7842C475.551 62.0603 475.04 60.1767 475.04 58.1336C475.04 56.7928 475.998 54.2388 477.913 50.4718C481.106 44.1508 483.724 39.5856 485.767 36.7763Z" fill="white"/>
</svg>
