<svg width="367" height="70" viewBox="0 0 367 70" fill="none" xmlns="http://www.w3.org/2000/svg">
<path d="M26.6237 31.2225C29.3054 32.2441 31.8912 33.3295 34.3813 34.4788C36.8714 35.6281 39.0742 36.937 40.9896 38.4055C42.9689 39.874 44.5332 41.5979 45.6825 43.5772C46.8318 45.4927 47.4064 47.8231 47.4064 50.5686C47.4064 53.5695 46.736 56.283 45.3952 58.7093C44.1182 61.0717 42.3943 63.1148 40.2235 64.8387C38.1165 66.4988 35.6902 67.7758 32.9447 68.6696C30.2631 69.5635 27.4857 70.0105 24.6125 70.0105C20.9732 70.0105 17.7807 69.5635 15.0353 68.6696C12.2898 67.7119 9.89545 66.5626 7.8523 65.2218C5.873 63.881 4.24487 62.4444 2.9679 60.9121C1.69093 59.3797 0.701277 57.975 -0.00105579 56.6981L10.3424 52.2925C9.51236 53.8887 9.12927 55.6765 9.19312 57.6558C9.25697 59.5712 9.83161 61.3909 10.917 63.1148C12.0663 64.7749 13.7583 66.1796 15.993 67.3288C18.2277 68.4781 21.1328 69.0527 24.7083 69.0527C27.0068 69.0527 29.1458 68.7016 31.1251 67.9992C33.1682 67.2969 34.924 66.3392 36.3926 65.1261C37.8611 63.9129 39.0103 62.4763 39.8404 60.8163C40.6704 59.1562 41.0854 57.3685 41.0854 55.453C41.0854 53.0268 40.415 50.9198 39.0742 49.132C37.7972 47.2804 36.1372 45.6842 34.094 44.3434C32.1147 42.9387 29.9439 41.7575 27.5815 40.7998C25.2829 39.7782 23.1121 38.8524 21.0689 38.0224C18.1958 36.8731 15.6099 35.7558 13.3113 34.6703C11.0767 33.5211 9.12927 32.2441 7.46921 30.8394C5.873 29.3709 4.62796 27.7109 3.73408 25.8593C2.90405 24.0077 2.48903 21.8049 2.48903 19.2509C2.48903 16.3778 3.03175 13.76 4.11717 11.3976C5.26644 9.03519 6.7988 7.02397 8.71426 5.36391C10.6297 3.64 12.8644 2.33111 15.4183 1.43723C17.9723 0.479503 20.7178 0.000640011 23.6548 0.000640011C25.3787 0.000640011 27.2622 0.224109 29.3054 0.671046C31.3485 1.11799 33.3598 1.88417 35.3391 2.96959C37.3184 3.99117 39.2338 5.33198 41.0854 6.99205C42.937 8.58826 44.5332 10.5995 45.8741 13.0257L34.956 16.8566C36.0414 15.1966 36.5203 13.4407 36.3926 11.5891C36.2649 9.73753 35.6264 8.04554 34.4771 6.51318C33.3917 4.98082 31.8593 3.70385 29.88 2.68227C27.9007 1.6607 25.5702 1.14991 22.8886 1.14991C21.037 1.14991 19.2493 1.50108 17.5253 2.20341C15.8014 2.8419 14.2691 3.7677 12.9283 4.98082C11.5874 6.19394 10.502 7.66245 9.67198 9.38636C8.84195 11.1103 8.42694 12.9938 8.42694 15.0369C8.42694 17.3355 8.96965 19.3148 10.0551 20.9749C11.2043 22.5711 12.6409 24.0077 14.3648 25.2846C16.1526 26.4977 18.1319 27.5832 20.3028 28.5409C22.4736 29.4348 24.5806 30.3287 26.6237 31.2225ZM101.068 1.43723V13.8877C100.046 11.8445 98.6413 9.99292 96.8535 8.33286C95.3212 6.99204 93.278 5.747 90.7241 4.59773C88.1702 3.44845 84.9458 2.87382 81.0511 2.87382H79.2314V57.9431C79.2314 59.9224 79.2952 61.5825 79.4229 62.9233C79.5506 64.2641 79.7422 65.3495 79.9976 66.1796C80.3168 67.0096 80.7318 67.6481 81.2426 68.095C81.7534 68.5419 82.3599 68.8612 83.0623 69.0527H67.4513C68.1537 68.8612 68.7283 68.5419 69.1752 68.095C69.686 67.6481 70.101 67.0096 70.4203 66.1796C70.7395 65.3495 70.963 64.296 71.0907 63.0191C71.2184 61.7421 71.2822 60.1459 71.2822 58.2304V2.87382H69.4626C65.7594 2.87382 62.6308 3.44845 60.0768 4.59773C57.5229 5.747 55.4478 6.99204 53.8516 8.33286C52 9.99292 50.5315 11.8445 49.4461 13.8877V1.43723H101.068ZM138.358 69.0527C139.124 68.095 139.571 67.0096 139.698 65.7965C139.826 64.5833 139.73 63.3064 139.411 61.9656C139.156 60.6247 138.741 59.2201 138.166 57.7516C137.591 56.283 136.985 54.8145 136.346 53.346C136.027 52.5798 135.612 51.6221 135.101 50.4728C134.59 49.2597 133.984 47.9189 133.282 46.4504H104.646C103.241 49.8344 102.028 52.7395 101.006 55.1657C100.048 57.5919 99.5057 58.9647 99.3781 59.2839C97.3988 64.4556 98.0053 67.7119 101.198 69.0527H90.2796C91.1097 68.6696 91.8759 68.2866 92.5782 67.9035C93.2805 67.4565 93.9509 66.8819 94.5894 66.1796C95.2279 65.4134 95.8345 64.4556 96.4091 63.3064C97.0476 62.1571 97.718 60.6886 98.4203 58.9008C98.7396 58.1346 99.2823 56.73 100.048 54.6868C100.878 52.6437 101.868 50.2174 103.017 47.4081C104.167 44.5349 105.412 41.4064 106.753 38.0224C108.157 34.6384 109.562 31.2225 110.967 27.7747C114.223 19.7298 117.83 10.8549 121.789 1.14991H123.896C127.216 9.00327 130.345 16.3458 133.282 23.1776C134.495 26.1147 135.74 29.0836 137.017 32.0845C138.294 35.0854 139.507 37.9266 140.656 40.6083C141.805 43.2899 142.827 45.7481 143.721 47.9827C144.679 50.2174 145.445 52.0052 146.019 53.346C146.913 55.3253 147.711 57.0812 148.414 58.6135C149.18 60.1459 149.946 61.5186 150.712 62.7317C151.542 63.9449 152.404 65.0622 153.298 66.0838C154.256 67.1054 155.373 68.095 156.65 69.0527H138.358ZM132.803 45.2053C131.462 42.0129 129.961 38.5332 128.301 34.7661C126.641 30.9352 125.077 27.3278 123.609 23.9438C121.948 20.0491 120.256 16.1543 118.533 12.2595L105.124 45.2053H132.803ZM206.447 60.7205C207.724 62.7637 208.777 64.3599 209.607 65.5091C210.501 66.6584 211.267 67.4884 211.906 67.9992C212.608 68.6377 213.183 68.9889 213.63 69.0527H208.458C206.032 69.0527 204.02 68.4781 202.424 67.3288C200.828 66.1157 199.391 64.4876 198.114 62.4444C197.221 61.0398 196.263 59.5393 195.241 57.9431C194.22 56.3469 193.198 54.7826 192.177 53.2502C191.219 51.7179 190.293 50.2813 189.399 48.9405C188.505 47.5997 187.771 46.4823 187.196 45.5884C185.792 43.4814 184.387 41.8214 182.982 40.6083C181.642 39.3313 180.013 38.5332 178.098 38.2139H169.861V58.0389C169.861 60.0182 169.925 61.6782 170.053 63.0191C170.181 64.296 170.372 65.3495 170.628 66.1796C170.947 67.0096 171.362 67.6481 171.873 68.095C172.384 68.5419 172.99 68.8612 173.692 69.0527H157.986C158.688 68.8612 159.295 68.5419 159.805 68.095C160.316 67.6481 160.731 67.0096 161.05 66.1796C161.37 65.2857 161.593 64.1683 161.721 62.8275C161.849 61.4867 161.912 59.8266 161.912 57.8473V9.29059C161.912 7.88592 161.721 6.70473 161.338 5.747C160.955 4.72542 160.508 3.89539 159.997 3.25691C159.358 2.49073 158.688 1.85224 157.986 1.34146H182.695C187.228 1.34146 190.995 1.88417 193.996 2.96959C197.061 3.99117 199.519 5.39583 201.371 7.18359C203.222 8.97135 204.531 11.0464 205.297 13.4088C206.127 15.7074 206.542 18.1017 206.542 20.5918C206.542 23.0819 206.095 25.3485 205.202 27.3916C204.308 29.3709 203.031 31.1268 201.371 32.6591C199.774 34.1276 197.827 35.3408 195.529 36.2985C193.23 37.1924 190.676 37.767 187.867 38.0224C189.208 38.5332 190.485 39.2036 191.698 40.0336C192.975 40.7998 194.156 41.8852 195.241 43.2899C195.688 43.8645 196.422 44.918 197.444 46.4504C198.466 47.9827 199.551 49.6747 200.7 51.5263C201.85 53.3141 202.935 55.0699 203.957 56.7938C205.042 58.5177 205.872 59.8266 206.447 60.7205ZM179.726 36.7773C183.365 36.7773 186.366 36.2346 188.729 35.1492C191.155 34.0638 193.07 32.691 194.475 31.031C195.944 29.3071 196.965 27.4555 197.54 25.4762C198.178 23.433 198.498 21.5176 198.498 19.7298C198.498 17.8782 198.274 15.9627 197.827 13.9834C197.38 11.9403 196.55 10.0887 195.337 8.42863C194.188 6.76857 192.56 5.39583 190.453 4.31041C188.409 3.22498 185.792 2.68227 182.599 2.68227H169.861V36.7773H179.726ZM221.359 57.56C223.019 57.56 224.392 58.1027 225.477 59.1881C226.562 60.2736 227.105 61.6463 227.105 63.3064C227.105 65.0303 226.562 66.4349 225.477 67.5204C224.392 68.6058 223.019 69.1485 221.359 69.1485C219.763 69.1485 218.454 68.6058 217.432 67.5204C216.41 66.4349 215.9 65.0303 215.9 63.3064C215.9 61.6463 216.41 60.2736 217.432 59.1881C218.454 58.1027 219.763 57.56 221.359 57.56ZM281.764 1.43723V13.8877C280.742 11.8445 279.337 9.99292 277.55 8.33286C276.017 6.99204 273.974 5.747 271.42 4.59773C268.866 3.44845 265.642 2.87382 261.747 2.87382H259.927V57.9431C259.927 59.9224 259.991 61.5825 260.119 62.9233C260.247 64.2641 260.438 65.3495 260.694 66.1796C261.013 67.0096 261.428 67.6481 261.939 68.095C262.449 68.5419 263.056 68.8612 263.758 69.0527H248.147C248.85 68.8612 249.424 68.5419 249.871 68.095C250.382 67.6481 250.797 67.0096 251.116 66.1796C251.436 65.3495 251.659 64.296 251.787 63.0191C251.914 61.7421 251.978 60.1459 251.978 58.2304V2.87382H250.159C246.455 2.87382 243.327 3.44845 240.773 4.59773C238.219 5.747 236.144 6.99204 234.548 8.33286C232.696 9.99292 231.228 11.8445 230.142 13.8877V1.43723H281.764ZM320.84 55.5488C319.626 57.2727 318.254 58.9647 316.721 60.6247C315.253 62.2848 313.561 63.7852 311.645 65.1261C309.794 66.4669 307.783 67.5523 305.612 68.3823C303.441 69.1485 301.079 69.5316 298.525 69.5316C295.971 69.5316 293.353 69.0527 290.671 68.095C288.053 67.0734 285.659 65.573 283.488 63.5937C281.317 61.5505 279.562 58.9966 278.221 55.9319C276.88 52.8672 276.21 49.2916 276.21 45.2053C276.21 41.1829 276.88 37.5116 278.221 34.1915C279.562 30.8714 281.349 28.062 283.584 25.7635C285.883 23.4011 288.532 21.5814 291.533 20.3044C294.534 18.9636 297.695 18.2932 301.015 18.2932C304.016 18.2932 306.665 18.7721 308.964 19.7298C311.262 20.6875 313.21 21.9645 314.806 23.5607C316.466 25.1569 317.743 27.0085 318.637 29.1155C319.531 31.2225 320.01 33.4572 320.073 35.8196H283.201C283.009 37.352 282.914 38.8843 282.914 40.4167C282.914 43.8007 283.361 46.9612 284.254 49.8982C285.212 52.8352 286.553 55.3892 288.277 57.56C290.065 59.7309 292.172 61.4548 294.598 62.7317C297.088 63.9449 299.865 64.5514 302.93 64.5514C306.569 64.5514 309.826 63.6575 312.699 61.8698C315.636 60.0182 318.19 57.7835 320.361 55.1657L320.84 55.5488ZM297.95 19.5383C295.971 19.5383 294.151 19.9533 292.491 20.7833C290.895 21.5495 289.49 22.603 288.277 23.9438C287.064 25.2846 286.042 26.8808 285.212 28.7324C284.446 30.5202 283.871 32.4676 283.488 34.5746H312.507C312.252 32.9145 311.741 31.2225 310.975 29.4986C310.273 27.7109 309.315 26.0827 308.102 24.6142C306.889 23.1457 305.42 21.9326 303.696 20.9749C302.036 20.0171 300.121 19.5383 297.95 19.5383ZM356.993 59.667C358.078 61.2632 359.036 62.604 359.866 63.6895C360.76 64.711 361.558 65.573 362.261 66.2753C362.963 66.9138 363.633 67.4246 364.272 67.8077C364.91 68.1269 365.549 68.3823 366.187 68.5739H363.506C360.696 68.5739 358.078 67.9035 355.652 66.5626C353.29 65.2218 351.406 63.3383 350.002 60.9121C349.491 60.0182 348.852 59.0285 348.086 57.9431C347.384 56.8577 346.618 55.6765 345.788 54.3995L341.574 47.887C341.446 47.6316 341.222 47.5039 340.903 47.5039C340.584 47.44 340.329 47.5677 340.137 47.887L330.56 61.1036C330.496 61.1675 330.177 61.6144 329.602 62.4444C329.027 63.2106 328.261 64.0726 327.304 65.0303C326.41 65.9242 325.42 66.7542 324.335 67.5204C323.249 68.2227 322.196 68.5739 321.174 68.5739H319.737C320.568 68.3185 321.429 67.8715 322.323 67.2331C323.281 66.5946 324.175 65.8922 325.005 65.1261C325.899 64.296 326.729 63.4341 327.495 62.5402C328.261 61.6463 328.932 60.8163 329.506 60.0501C330.4 58.9008 331.422 57.4962 332.571 55.8361C333.784 54.176 334.965 52.5798 336.115 51.0475C337.392 49.2597 338.732 47.4081 340.137 45.4927L328.932 28.4451C327.846 26.7851 326.857 25.4442 325.963 24.4227C325.133 23.4011 324.366 22.5711 323.664 21.9326C322.962 21.2302 322.291 20.7195 321.653 20.4002C321.014 20.0171 320.376 19.7298 319.737 19.5383H323.473C326.346 19.5383 328.964 20.3044 331.326 21.8368C333.752 23.3053 335.668 25.2846 337.072 27.7747C337.455 28.477 337.839 29.1475 338.222 29.7859C338.669 30.4244 339.052 30.9671 339.371 31.4141C339.69 31.861 340.041 32.4356 340.424 33.138C340.871 33.7765 341.318 34.4469 341.765 35.1492C342.212 35.8515 342.659 36.522 343.106 37.1604C343.553 37.7989 343.936 38.3736 344.255 38.8843C344.383 39.2036 344.606 39.3632 344.926 39.3632C345.245 39.3632 345.5 39.2036 345.692 38.8843C346.075 38.3097 346.586 37.5435 347.224 36.5858C347.863 35.6281 348.533 34.6384 349.235 33.6168C349.938 32.5314 350.608 31.5098 351.247 30.5521C351.885 29.5944 352.428 28.8282 352.875 28.2536C353.322 27.6151 353.864 26.817 354.503 25.8593C355.205 24.8377 355.94 23.88 356.706 22.9861C357.536 22.0284 358.398 21.2302 359.292 20.5918C360.249 19.8894 361.207 19.5383 362.165 19.5383H364.176C363.474 19.7298 362.771 19.9852 362.069 20.3044C361.431 20.6237 360.728 21.1026 359.962 21.741C359.26 22.3795 358.462 23.2095 357.568 24.2311C356.674 25.2527 355.684 26.5935 354.599 28.2536C354.024 29.1475 353.226 30.3286 352.204 31.7972C351.247 33.2018 350.289 34.6065 349.331 36.0112C348.182 37.6712 347.001 39.4271 345.788 41.2787L356.993 59.667Z" fill="white"/>
</svg>
