<svg width="244" height="151" viewBox="0 0 244 151" fill="none" xmlns="http://www.w3.org/2000/svg">
<path d="M85.2387 4.78921H92.2301L71.7347 71.8301H63.7856L46.0676 14.4622L28.637 71.8301H20.7837L0.000981003 4.78921H6.99239L24.8061 64.1683L43.0987 4.78921H49.1324L67.6165 64.1683L85.2387 4.78921ZM98.9716 71.8301V0.000572218H105.197V71.8301H98.9716ZM132.779 71.8301V43.194C132.779 38.7885 131.566 35.3407 129.14 32.8506C126.714 30.2967 123.585 29.0197 119.754 29.0197C115.732 29.0197 112.284 30.4244 109.411 33.2337C106.601 35.9792 105.197 39.2993 105.197 43.194H101.27C101.27 37.6392 103.186 32.8825 107.016 28.9239C110.911 24.9015 115.668 22.8902 121.287 22.8902C126.267 22.8902 130.449 24.678 133.833 28.2535C137.281 31.7652 139.005 36.2984 139.005 41.8532V71.8301H132.779ZM148.118 14.3665C147.288 13.4726 146.873 12.4191 146.873 11.206C146.873 9.92901 147.288 8.87551 148.118 8.04548C149.012 7.1516 150.065 6.70466 151.278 6.70466C152.555 6.70466 153.609 7.1516 154.439 8.04548C155.333 8.87551 155.78 9.92901 155.78 11.206C155.78 12.4191 155.333 13.4726 154.439 14.3665C153.609 15.1965 152.555 15.6115 151.278 15.6115C150.065 15.6115 149.012 15.1965 148.118 14.3665ZM148.214 71.8301V23.9437H154.439V71.8301H148.214ZM184.958 65.8922H190.896V71.8301H184.096C179.691 71.8301 176.211 70.7127 173.657 68.478C171.103 66.2433 169.826 63.2105 169.826 59.3796V29.7859H160.823V23.9437H169.826V9.76939L176.051 8.52434V23.9437H190.896V29.7859H176.051V57.943C176.051 63.2425 179.02 65.8922 184.958 65.8922ZM237.765 44.8222C237.382 39.842 235.434 35.8196 231.923 32.7548C228.411 29.6263 224.165 28.062 219.185 28.062C214.332 28.062 210.182 29.6263 206.735 32.7548C203.287 35.8196 201.275 39.842 200.701 44.8222H237.765ZM200.701 50.5685C201.275 55.6126 203.319 59.6989 206.83 62.8274C210.406 65.956 214.652 67.5203 219.568 67.5203C223.335 67.5203 226.719 66.6264 229.72 64.8387C232.785 62.9871 235.083 60.4651 236.616 57.2726L242.362 59.5712C240.255 63.9129 237.158 67.3288 233.072 69.8189C229.05 72.3089 224.548 73.554 219.568 73.554C212.481 73.554 206.479 71.1277 201.563 66.2753C196.71 61.3589 194.284 55.1976 194.284 47.7911C194.284 40.3209 196.678 34.1595 201.467 29.307C206.256 24.4545 212.13 22.0283 219.089 22.0283C226.049 22.0283 231.923 24.3907 236.711 29.1155C241.564 33.8403 243.99 39.8101 243.99 47.025C243.99 47.9188 243.894 49.1 243.703 50.5685H200.701ZM57.6568 115.83H53.7568V73.8301H57.6568V115.83ZM74.0752 102.45C70.3552 101.77 67.5752 100.73 65.7352 99.3301C63.9352 97.8901 63.0352 96.0501 63.0352 93.8101C63.0352 91.2901 64.0152 89.2101 65.9752 87.5701C67.9352 85.8901 70.3952 85.0501 73.3552 85.0501C76.0352 85.0501 78.4552 85.8301 80.6152 87.3901C82.8152 88.9101 84.3952 90.9501 85.3552 93.5101L81.7552 94.9501C80.9952 93.0301 79.8752 91.5301 78.3952 90.4501C76.9552 89.3301 75.2952 88.7701 73.4152 88.7701C71.5352 88.7701 69.9752 89.2301 68.7352 90.1501C67.5352 91.0701 66.9352 92.2301 66.9352 93.6301C66.9352 94.9101 67.5152 95.9501 68.6752 96.7501C69.8752 97.5101 71.7752 98.1501 74.3752 98.6701C82.2552 100.11 86.1952 103.15 86.1952 107.79C86.1952 110.27 85.1152 112.35 82.9552 114.03C80.7952 115.67 78.1952 116.49 75.1552 116.49C72.2352 116.49 69.5952 115.77 67.2352 114.33C64.9152 112.89 63.2552 110.95 62.2552 108.51L65.7352 106.77C66.5352 108.69 67.7552 110.19 69.3952 111.27C71.0752 112.31 72.9552 112.83 75.0352 112.83C77.1152 112.83 78.8352 112.37 80.1952 111.45C81.5952 110.49 82.2952 109.27 82.2952 107.79C82.2952 105.23 79.5552 103.45 74.0752 102.45ZM90.7904 115.83V70.8301H94.6904V115.83H90.7904ZM119.149 101.55L109.909 102.63C105.429 103.15 103.189 104.85 103.189 107.73C103.189 109.25 103.809 110.49 105.049 111.45C106.329 112.37 108.009 112.83 110.089 112.83C112.809 112.83 114.989 112.01 116.629 110.37C118.309 108.69 119.149 106.49 119.149 103.77H121.189C121.189 107.41 120.049 110.45 117.769 112.89C115.489 115.29 112.629 116.49 109.189 116.49C106.309 116.49 103.929 115.69 102.049 114.09C100.209 112.45 99.2888 110.33 99.2888 107.73C99.2888 105.37 100.149 103.43 101.869 101.91C103.589 100.35 106.009 99.3901 109.129 99.0301L119.149 97.9501V96.5101C119.149 94.4701 118.369 92.7101 116.809 91.2301C115.249 89.7101 113.329 88.9501 111.049 88.9501C109.009 88.9501 107.209 89.4901 105.649 90.5701C104.129 91.6501 103.149 93.0301 102.709 94.7101L99.0488 93.6301C99.8088 91.1101 101.269 89.0701 103.429 87.5101C105.589 85.9501 108.049 85.1701 110.809 85.1701C114.129 85.1701 116.989 86.2301 119.389 88.3501C121.789 90.4701 122.989 92.9901 122.989 95.9101V115.83H119.149V101.55ZM128.879 115.83V85.8301H132.779V115.83H128.879ZM150.059 115.83V97.8901C150.059 95.1301 149.299 92.9701 147.779 91.4101C146.259 89.8101 144.299 89.0101 141.899 89.0101C139.379 89.0101 137.219 89.8901 135.419 91.6501C133.659 93.3701 132.779 95.4501 132.779 97.8901H130.319C130.319 94.4101 131.519 91.4301 133.919 88.9501C136.359 86.4301 139.339 85.1701 142.859 85.1701C145.979 85.1701 148.599 86.2901 150.719 88.5301C152.879 90.7301 153.959 93.5701 153.959 97.0501V115.83H150.059ZM190.988 115.83H187.088V70.8301H190.988V115.83ZM183.488 109.65C185.888 107.33 187.088 104.37 187.088 100.77C187.088 97.1701 185.888 94.2301 183.488 91.9501C181.128 89.6301 178.228 88.4701 174.788 88.4701C171.348 88.4701 168.428 89.6301 166.028 91.9501C163.668 94.2301 162.488 97.1701 162.488 100.77C162.488 104.37 163.668 107.33 166.028 109.65C168.428 111.93 171.348 113.07 174.788 113.07C178.228 113.07 181.128 111.93 183.488 109.65ZM184.868 89.1901C187.788 92.2301 189.248 96.0901 189.248 100.77C189.248 105.45 187.788 109.31 184.868 112.35C181.948 115.39 178.388 116.91 174.188 116.91C169.788 116.91 166.088 115.39 163.088 112.35C160.088 109.27 158.588 105.41 158.588 100.77C158.588 96.1301 160.088 92.2901 163.088 89.2501C166.088 86.1701 169.788 84.6301 174.188 84.6301C178.388 84.6301 181.948 86.1501 184.868 89.1901ZM59.825 140.29C57.385 139.77 55.565 139.01 54.365 138.01C53.165 137.01 52.565 135.74 52.565 134.2C52.565 132.54 53.205 131.17 54.485 130.09C55.765 128.99 57.375 128.44 59.315 128.44C61.035 128.44 62.585 128.91 63.965 129.85C65.365 130.79 66.365 132.05 66.965 133.63L65.225 134.41C64.705 133.15 63.925 132.16 62.885 131.44C61.845 130.72 60.675 130.36 59.375 130.36C57.975 130.36 56.815 130.72 55.895 131.44C54.995 132.14 54.545 133.05 54.545 134.17C54.545 135.19 54.985 136.03 55.865 136.69C56.745 137.33 58.155 137.85 60.095 138.25C64.875 139.29 67.265 141.33 67.265 144.37C67.265 146.03 66.595 147.41 65.255 148.51C63.915 149.61 62.245 150.16 60.245 150.16C58.465 150.16 56.845 149.67 55.385 148.69C53.945 147.71 52.915 146.4 52.295 144.76L54.095 143.89C54.615 145.25 55.415 146.32 56.495 147.1C57.575 147.86 58.795 148.24 60.155 148.24C61.615 148.24 62.835 147.87 63.815 147.13C64.795 146.37 65.285 145.43 65.285 144.31C65.285 143.31 64.845 142.49 63.965 141.85C63.085 141.19 61.705 140.67 59.825 140.29ZM87.4161 128.83V130.72H80.3661V149.83H78.4161V130.72H71.3661V128.83H87.4161ZM95.3752 142.06H107.945V143.89H95.3752V142.06ZM93.5152 149.83H91.2952L100.445 128.83H102.965L112.115 149.83H109.925L101.735 130.9L93.5152 149.83ZM124.517 149.83H116.897V128.83H124.517C126.417 128.83 128.157 129.27 129.737 130.15C131.337 131.03 132.597 132.28 133.517 133.9C134.457 135.5 134.927 137.3 134.927 139.3C134.927 141.32 134.457 143.14 133.517 144.76C132.597 146.36 131.337 147.61 129.737 148.51C128.157 149.39 126.417 149.83 124.517 149.83ZM124.217 130.72H118.847V147.94H124.217C126.657 147.94 128.727 147.13 130.427 145.51C132.147 143.89 133.007 141.82 133.007 139.3C133.007 136.8 132.147 134.75 130.427 133.15C128.727 131.53 126.657 130.72 124.217 130.72ZM141.909 149.83H139.959V128.83H141.909V149.83ZM162.195 147.79C160.555 149.37 158.515 150.16 156.075 150.16C153.635 150.16 151.595 149.37 149.955 147.79C148.315 146.19 147.495 144.17 147.495 141.73V128.83H149.445V141.43C149.445 143.55 150.055 145.21 151.275 146.41C152.515 147.61 154.115 148.21 156.075 148.21C158.035 148.21 159.625 147.61 160.845 146.41C162.085 145.21 162.705 143.55 162.705 141.43V128.83H164.655V141.73C164.655 144.17 163.835 146.19 162.195 147.79ZM170.263 149.83V128.83H172.693L181.063 143.98L189.433 128.83H191.863V149.83H189.943V131.92L181.873 146.44H180.283L172.183 131.92V149.83H170.263Z" fill="#272727"/>
</svg>
